<svg width="16" height="16" viewBox="0 0 16 16" fill="none" xmlns="http://www.w3.org/2000/svg">
<g clip-path="url(#clip0_0_6947)">
<path d="M14.8155 0H5.97122C5.34089 0 4.82812 0.5128 4.82812 1.1431V3.82602H5.8716V1.1431C5.8716 1.08817 5.9163 1.04348 5.97122 1.04348H14.8155C14.8704 1.04348 14.9151 1.08817 14.9151 1.1431V9.98734C14.9151 10.0423 14.8704 10.087 14.8155 10.087H12.2162V11.1305H14.8155C15.4458 11.1305 15.9586 10.6177 15.9586 9.98734V1.1431C15.9585 0.5128 15.4458 0 14.8155 0Z" fill="#8C98A9"/>
<path d="M10.0293 4.86951H1.18512C0.554792 4.86951 0.0419922 5.38231 0.0419922 6.01264V14.8569C0.042027 15.4872 0.554792 16 1.18512 16H10.0294C10.6597 16 11.1725 15.4872 11.1725 14.8569V6.01264C11.1725 5.38231 10.6597 4.86951 10.0293 4.86951ZM10.0294 14.9565H1.18512C1.13017 14.9565 1.08547 14.9118 1.08547 14.8569V6.01264C1.08547 5.95768 1.13017 5.91299 1.18512 5.91299H10.0294C10.0843 5.91299 10.129 5.95768 10.129 6.01264V14.8569H10.1291C10.1291 14.9118 10.0843 14.9565 10.0294 14.9565Z" fill="#8C98A9"/>
</g>
<defs>
<clipPath id="clip0_0_6947">
<rect width="16" height="16" fill="white"/>
</clipPath>
</defs>
</svg>
