<svg width="275" height="48" viewBox="0 0 275 48" fill="none" xmlns="http://www.w3.org/2000/svg">
<g clip-path="url(#clip0_0_7176)">
<path d="M269.917 13.1645C266.519 10.16 261.711 8.57581 256.903 7.81102C241.325 5.4074 225.554 10.7609 209.784 10.7063C197.475 10.6517 185.679 6.9916 173.498 6.3907C161.382 5.78979 149.971 10.6517 137.854 10.5424C127.725 10.4331 117.788 6.82772 107.659 7.64713C99.3251 8.35729 92.145 11.3618 83.6186 9.72299C79.5157 8.90357 75.4769 7.70176 71.3098 7.31937C62.3347 6.49995 53.7442 9.5591 44.9614 10.3785C36.1786 11.1979 27.2034 10.7609 18.677 8.73969C14.6382 7.75639 10.1506 7.15549 6.36826 8.79432C5.72718 9.06745 5.0861 9.44985 4.50912 9.83224C0.919066 12.5636 -0.491314 23.5438 0.149768 27.477C0.406201 29.0066 1.62426 34.9064 4.82966 33.1036C6.11183 32.3935 6.75291 31.0278 7.00934 29.7714C7.4581 28.0233 7.97096 23.5438 10.4712 23.5438C13.7407 23.5984 15.9204 27.4224 19.3822 26.7668C22.3312 26.2206 25.4725 25.0734 28.5497 26.002C32.6526 27.3131 33.7425 31.3556 36.6914 33.7045C40.6661 36.8183 45.5384 22.5605 50.7952 27.0946C52.7185 28.7334 52.3979 31.137 52.3338 33.2675C52.2697 35.1249 52.5261 38.621 55.411 39.0034C56.3085 39.1127 57.2701 38.7849 57.783 38.184C60.9884 34.6332 56.4367 29.6621 59.7704 26.2206C63.1681 22.6698 69.8354 25.0734 74.0665 25.8382C77.336 26.4391 79.8362 26.1113 83.1058 26.1113C84.6443 26.1113 85.2213 26.9307 85.1572 28.1871C85.029 31.1917 83.2981 35.1795 85.4136 37.9655C85.9906 38.7849 87.0163 39.3312 88.1703 39.1127C89.3242 38.9488 90.0935 38.0748 90.4141 37.2007C91.0552 35.0702 90.0935 32.612 90.0294 30.4269C89.9653 28.0233 89.6448 24.4178 93.7477 24.9095C95.9915 25.1826 98.043 26.1113 100.223 26.6576C104.518 27.7501 109.39 24.9095 113.942 23.7077C116.378 23.0521 118.878 24.5271 119.006 26.7122C119.135 29.0066 119.006 32.175 118.301 36.5452C116.506 47.3615 125.93 46.8152 125.097 41.7348C124.584 38.5664 124.712 32.7759 124.904 28.9519C125.097 29.3343 125.353 29.7167 125.545 30.0991C128.43 34.4693 133.815 32.612 136.38 29.1158C138.431 26.3844 139.521 22.8883 144.009 23.3253C149.458 23.8169 154.522 25.9474 159.971 26.1659C165.036 26.3844 169.459 24.254 174.396 23.653C179.012 23.0521 183.884 23.4892 188.307 24.9095C192.41 26.2206 196.385 28.6788 201.001 28.2418C202.219 28.1325 204.014 27.1492 205.168 27.9686C206.386 28.8973 205.488 31.2463 205.232 32.3389C204.975 33.7045 204.975 35.1795 205.36 36.5452C205.552 37.2553 205.873 38.0201 206.45 38.5664C207.027 39.1127 208.053 39.3858 208.822 39.1127C209.784 38.7849 210.168 37.8016 210.36 36.873C210.937 33.6499 210.809 31.5741 210.809 28.2964C210.809 27.5862 210.873 26.8215 211.514 26.3298C212.027 25.9474 212.861 25.8928 213.566 25.9474C217.156 26.0567 219.72 25.8382 222.99 27.0946C224.464 27.6955 225.49 28.8973 225.49 30.3176C225.554 32.4481 225.362 35.2887 224.785 39.0034C223.054 49.5466 232.221 49.0003 231.388 44.0838C230.939 41.3524 231.003 36.5998 231.132 32.9398C231.196 31.4648 232.67 30.3176 234.401 30.4269H234.465C238.76 30.7 242.992 24.5271 247.287 25.2919C251.646 26.0567 256.198 31.137 259.788 28.8973C261.07 28.1325 261.903 26.8215 263.314 26.2206C264.596 25.6196 265.429 26.2752 265.814 27.3677C267.096 31.0824 268.122 34.961 268.314 38.8396C268.314 39.2219 268.443 39.659 268.763 39.9867C270.109 41.3524 272.289 39.5497 272.994 37.9109C275.943 30.5908 276.2 18.7912 269.917 13.1645Z" fill="white"/>
<path d="M57.9103 32.8844C57.3333 33.4853 56.4358 33.8131 55.5383 33.7038C52.6534 33.3214 52.397 29.8799 52.4611 27.9679C52.5252 25.8375 52.8458 23.4338 50.9225 21.795C45.6656 17.2063 40.7934 31.5187 36.8187 28.405C33.8056 26.056 32.7158 22.0135 28.677 20.7024C25.6639 19.7192 22.5226 20.8663 19.5095 21.4672C16.0477 22.1228 13.868 18.2988 10.5985 18.2442C8.09825 18.1896 7.52128 22.7237 7.13663 24.4718C6.81609 25.6736 6.23912 27.0939 4.95695 27.8041C1.81565 29.5521 0.533489 23.8162 0.277056 22.232C0.0847314 24.3625 0.0847314 26.2745 0.277056 27.5309C0.533489 29.0605 1.75154 34.9603 4.95695 33.1576C6.23912 32.4474 6.8802 31.0817 7.13663 29.8253C7.58539 28.0772 8.09825 23.5977 10.5985 23.5977C13.868 23.6523 16.0477 27.4763 19.5095 26.8207C22.4585 26.2745 25.5998 25.1273 28.677 26.056C32.7799 27.367 33.8697 31.4095 36.8187 33.7585C40.7934 36.8722 45.6656 22.6144 50.9225 27.1485C52.8458 28.7873 52.5252 31.191 52.4611 33.3214C52.397 35.1788 52.6534 38.675 55.5383 39.0574C56.4358 39.1666 57.3974 38.8388 57.9103 38.2379C59.7053 36.2713 59.0642 33.8677 58.7437 31.5734C58.5514 32.0104 58.2949 32.4474 57.9103 32.8844Z" fill="#D9F1FF"/>
<path d="M119.07 21.4126C118.942 19.2275 116.441 17.7525 114.005 18.4081C109.453 19.6099 104.581 22.4505 100.286 21.3579C98.1063 20.8117 96.0549 19.883 93.8111 19.6099C89.7082 19.0636 90.0287 22.7236 90.0928 25.1273C90.0928 25.7282 90.1569 26.3837 90.2852 26.9846C90.6698 25.6189 91.5673 24.6356 93.8111 24.9634C96.0549 25.2365 98.1063 26.1652 100.286 26.7115C104.581 27.804 109.453 24.9634 114.005 23.7616C116.249 23.1607 118.557 24.3625 119.006 26.2198C119.134 24.3078 119.134 22.7236 119.07 21.4126Z" fill="#D9F1FF"/>
<path d="M124.839 38.458C123.621 40.6431 119.518 40.5338 118.428 36.2183C118.428 36.3275 118.364 36.4368 118.364 36.546C116.569 47.3623 125.993 46.816 125.16 41.7357C124.967 40.8616 124.903 39.7144 124.839 38.458Z" fill="#D9F1FF"/>
<path d="M85.2204 22.8336C85.2846 21.5771 84.7076 20.7577 83.169 20.7577C79.9636 20.7577 77.3993 21.0855 74.1297 20.4846C69.8986 19.7198 63.1672 17.3162 59.8336 20.867C57.9745 22.8336 58.5515 25.2372 58.872 27.6408C59.0643 27.1491 59.3849 26.6575 59.8336 26.2205C63.2313 22.6697 69.8986 25.0733 74.1297 25.8381C77.3993 26.439 79.8995 26.1112 83.169 26.1112C83.8742 26.1112 84.3871 26.2751 84.7076 26.5482C84.8999 25.2918 85.2204 23.9807 85.2204 22.8336Z" fill="#D9F1FF"/>
<path d="M88.2334 33.8134C87.0795 33.9773 86.0538 33.431 85.4768 32.6662C85.1563 32.2838 84.9639 31.8468 84.8357 31.4098C84.4511 33.7042 84.1305 36.1624 85.4768 38.0197C86.0538 38.8392 87.0795 39.3854 88.2334 39.1669C89.3874 39.003 90.1567 38.129 90.4772 37.255C90.926 35.7254 90.5413 33.9773 90.2849 32.3385C89.9003 33.0486 89.1951 33.6495 88.2334 33.8134Z" fill="#D9F1FF"/>
<path d="M231.067 40.7518C229.849 42.8822 225.938 42.773 224.848 38.5667C224.848 38.7305 224.784 38.8398 224.784 39.0037C223.053 49.5468 232.221 49.0005 231.387 44.084C231.195 43.1554 231.131 42.0082 231.067 40.7518Z" fill="#D9F1FF"/>
<path d="M272.865 32.5027C272.159 34.0869 269.98 35.9442 268.634 34.5785C268.313 34.2507 268.185 33.8684 268.185 33.4313C268.057 29.5528 266.967 25.6742 265.685 21.9595C265.3 20.867 264.467 20.2661 263.184 20.8123C261.774 21.4679 260.941 22.7243 259.658 23.4891C256.068 25.6742 251.517 20.5938 247.157 19.8837C242.862 19.1189 238.695 25.2918 234.336 25.0187H234.272C232.541 24.9094 231.066 26.0566 231.002 27.5315C230.938 29.7713 230.874 32.3934 230.938 34.7424C230.938 34.0869 231.002 33.486 231.002 32.8851C231.066 31.4101 232.541 30.2629 234.272 30.3722H234.336C238.631 30.6453 242.862 24.4724 247.157 25.2372C251.517 26.002 256.068 31.0823 259.658 28.8426C260.941 28.0778 261.774 26.7668 263.184 26.1658C264.467 25.5649 265.3 26.2205 265.685 27.313C266.967 31.0277 267.992 34.9063 268.185 38.7848C268.185 39.1672 268.313 39.6043 268.634 39.932C269.98 41.2977 272.159 39.495 272.865 37.8562C274.467 34.0322 275.301 29.0065 274.852 24.2539C274.596 27.2584 273.89 30.1537 272.865 32.5027Z" fill="#D9F1FF"/>
<path d="M225.489 24.9648C225.425 23.5444 224.464 22.288 222.989 21.7417C219.72 20.4853 217.155 20.7038 213.565 20.5945C212.86 20.5945 212.091 20.5945 211.514 20.9769C210.873 21.414 210.809 22.2334 210.809 22.9435C210.809 26.1666 210.937 28.297 210.36 31.5201C210.232 32.3941 209.847 33.3774 208.821 33.7598C207.988 34.033 207.026 33.7598 206.449 33.2135C205.936 32.7219 205.616 32.121 205.424 31.4655C205.359 31.7932 205.231 32.121 205.231 32.3395C204.975 33.7052 204.975 35.1801 205.359 36.5458C205.552 37.256 205.872 38.0208 206.449 38.5671C207.026 39.1133 208.052 39.3865 208.821 39.1133C209.783 38.7856 210.168 37.8023 210.36 36.8736C210.937 33.6506 210.809 31.5747 210.809 28.297C210.809 27.5869 210.873 26.8221 211.514 26.3305C212.027 25.9481 212.86 25.8934 213.565 25.9481C217.155 26.0573 219.72 25.8388 222.989 27.0952C224.143 27.5323 224.977 28.4063 225.361 29.4442C225.489 27.6961 225.489 26.2212 225.489 24.9648Z" fill="#D9F1FF"/>
<path d="M205.231 26.9857C205.423 25.8931 206.321 23.5441 205.167 22.6154C204.013 21.7414 202.218 22.7247 201 22.8886C196.448 23.3256 192.41 20.922 188.307 19.5563C183.947 18.136 179.075 17.7536 174.395 18.2998C169.459 18.9008 165.035 21.0312 159.971 20.8127C154.522 20.5942 149.393 18.4637 144.008 17.9721C139.52 17.5351 138.43 21.0312 136.379 23.7626C133.815 27.2588 128.43 29.1161 125.545 24.7459C125.288 24.3635 125.096 23.9811 124.904 23.5987C124.775 26.1116 124.711 29.3893 124.775 32.2845C124.775 31.0827 124.84 29.9355 124.904 28.9522C125.096 29.3346 125.352 29.717 125.545 30.0994C128.43 34.4696 133.815 32.6123 136.379 29.1161C138.43 26.3847 139.52 22.8886 144.008 23.3256C149.457 23.8172 154.522 25.9477 159.971 26.1662C165.035 26.3847 169.459 24.2543 174.395 23.6534C179.011 23.0525 183.883 23.4895 188.307 24.9098C192.41 26.2209 196.384 28.6791 201 28.2421C202.218 28.1328 204.013 27.1495 205.103 27.9689C205.103 27.6412 205.167 27.3134 205.231 26.9857Z" fill="#D9F1FF"/>
<path d="M90.4777 35.3446C90.2213 36.2733 89.3879 37.0927 88.234 37.2566C87.08 37.4205 86.0543 36.8742 85.4773 36.1094C84.9003 35.3446 84.6439 34.416 84.5157 33.4873C84.3875 35.1261 84.5157 36.7103 85.4773 37.9668C86.0543 38.7862 87.08 39.3325 88.234 39.114C89.3879 38.9501 90.1572 38.076 90.4777 37.202C90.7342 36.3279 90.7342 35.4539 90.6701 34.5252C90.6059 34.7984 90.5418 35.0715 90.4777 35.3446Z" fill="#B4DCFF"/>
<path d="M119.07 27.5327C119.07 26.5494 119.07 25.6207 119.006 24.8559C118.878 22.6708 116.377 21.1959 113.941 21.8514C109.39 23.0532 104.517 25.8939 100.222 24.8013C98.0424 24.255 95.991 23.3264 93.7472 23.0532C89.7725 22.5069 89.9648 26.0031 90.0289 28.4067C90.1571 26.4401 90.7341 24.5828 93.7472 24.9652C95.991 25.2383 98.0424 26.167 100.222 26.7133C104.517 27.8058 109.39 24.9652 113.941 23.7634C116.377 23.1078 118.878 24.5828 119.006 26.7679C119.07 26.9864 119.07 27.2596 119.07 27.5327Z" fill="#B4DCFF"/>
<path d="M85.1564 27.3136C85.2205 26.9859 85.2205 26.6035 85.2205 26.2757C85.2846 25.0193 84.7077 24.1998 83.1691 24.1998C79.9637 24.1998 77.3993 24.5276 74.1298 23.9267C69.8987 23.1619 63.1673 20.7583 59.8337 24.3091C58.5515 25.6202 58.4233 27.2044 58.6156 28.8432C58.7439 27.9145 59.0644 27.0405 59.8337 26.2211C63.2314 22.6703 69.8987 25.0739 74.1298 25.8387C77.3993 26.4396 79.8996 26.1118 83.1691 26.1118C84.3871 26.1118 84.9641 26.5488 85.1564 27.3136Z" fill="#B4DCFF"/>
<path d="M57.9104 36.3274C57.3334 36.9283 56.4359 37.256 55.5384 37.1468C53.2305 36.8736 52.5894 34.5246 52.4612 32.6673C52.4612 32.8858 52.4612 33.1043 52.4612 33.3228C52.3971 35.1802 52.6535 38.6763 55.5384 39.0587C56.4359 39.168 57.3976 38.8402 57.9104 38.2393C59.1285 36.9283 59.1926 35.3987 59.0644 33.8145C58.9361 34.6885 58.6156 35.5626 57.9104 36.3274Z" fill="#B4DCFF"/>
<path d="M50.8584 25.2384C45.6016 20.6496 40.7293 34.9621 36.7546 31.8483C33.7416 29.4993 32.6517 25.4569 28.6129 24.1458C25.5998 23.1625 22.4585 24.3097 19.4454 24.9106C15.9836 25.5661 13.8039 21.7422 10.5344 21.6876C8.03414 21.6329 7.45716 26.167 7.07252 27.9151C6.75197 29.1169 6.175 30.5372 4.89284 31.2474C1.68743 33.0501 0.469369 27.1503 0.212937 25.6208C0.148829 25.2384 0.0847203 24.7467 0.0847203 24.2551C0.0206121 25.5661 0.0847203 26.7133 0.212937 27.5327C0.469369 29.0623 1.68743 34.9621 4.89284 33.1594C6.175 32.4492 6.81608 31.0835 7.07252 29.8271C7.52127 28.079 8.03414 23.5995 10.5344 23.5995C13.8039 23.6542 15.9836 27.4781 19.4454 26.8226C22.3944 26.2763 25.5357 25.1291 28.6129 26.0578C32.7158 27.3688 33.8057 31.4113 36.7546 33.7603C40.7293 36.8741 45.6016 22.6162 50.8584 27.1503C52.0124 28.1336 52.3329 29.3901 52.4611 30.7011C52.5252 28.7345 52.5252 26.7133 50.8584 25.2384Z" fill="#B4DCFF"/>
<path d="M205.616 28.7343C205.808 27.751 205.872 26.6584 205.103 26.1121C203.949 25.2381 202.154 26.2214 200.936 26.3853C196.384 26.8223 192.345 24.4187 188.243 23.053C183.883 21.6327 179.011 21.2503 174.331 21.7966C169.395 22.3975 164.971 24.5279 159.907 24.3094C154.458 24.0909 149.329 21.9604 143.944 21.4688C139.456 21.0318 138.366 24.5279 136.315 27.2593C133.751 30.7555 128.365 32.6128 125.481 28.2426C125.224 27.8602 125.032 27.4778 124.84 27.0954C124.775 29.1713 124.647 31.7388 124.711 34.2517C124.711 32.3943 124.775 30.537 124.84 29.0074C125.032 29.3898 125.288 29.7722 125.481 30.1546C128.365 34.5248 133.751 32.6675 136.315 29.1713C138.366 26.4399 139.456 22.9437 143.944 23.3808C149.393 23.8724 154.458 26.0029 159.907 26.2214C164.971 26.4399 169.395 24.3094 174.331 23.7085C178.947 23.1076 183.819 23.5446 188.243 24.965C192.345 26.276 196.32 28.7343 200.936 28.2972C202.154 28.188 203.949 27.2047 205.103 28.0241C205.359 28.188 205.552 28.4065 205.616 28.7343Z" fill="#B4DCFF"/>
<path d="M231.323 43.5929C230.49 46.5428 225.105 46.5428 224.592 40.5338C223.951 49.3834 232.157 48.6733 231.387 44.0299C231.323 43.9207 231.323 43.7568 231.323 43.5929Z" fill="#B4DCFF"/>
<path d="M272.865 35.9448C272.16 37.529 269.98 39.3863 268.634 38.0207C268.313 37.6929 268.185 37.3105 268.185 36.8735C268.057 32.9949 266.967 29.1163 265.685 25.4017C265.3 24.3091 264.467 23.7082 263.185 24.2545C261.774 24.91 260.941 26.1664 259.659 26.9312C256.069 29.1163 251.517 24.036 247.158 23.3258C242.863 22.561 238.696 28.7339 234.336 28.4608H234.272C232.541 28.3516 231.067 29.4987 231.003 30.9737C230.938 32.7218 230.874 34.6884 230.938 36.6003C230.938 35.2893 231.003 34.0328 231.003 32.8857C231.067 31.4107 232.541 30.2635 234.272 30.3728H234.336C238.631 30.6459 242.863 24.473 247.158 25.2378C251.517 26.0026 256.069 31.0829 259.659 28.8432C260.941 28.0784 261.774 26.7673 263.185 26.1664C264.467 25.5655 265.3 26.2211 265.685 27.3136C266.967 31.0283 267.993 34.9069 268.185 38.7854C268.185 39.1678 268.313 39.6049 268.634 39.9326C269.98 41.2983 272.16 39.4956 272.865 37.8568C274.276 34.5245 275.109 30.2089 274.981 25.9479C274.853 29.5534 274.083 33.1042 272.865 35.9448Z" fill="#B4DCFF"/>
<path d="M225.489 28.4615C225.425 27.0411 224.464 25.7847 222.989 25.2384C219.72 23.982 217.155 24.2005 213.565 24.0912C212.86 24.0912 212.091 24.0912 211.514 24.4736C210.873 24.9107 210.809 25.7301 210.809 26.4402C210.809 26.9865 210.809 27.4782 210.809 27.9152C210.873 27.3143 211.001 26.768 211.514 26.3856C212.027 26.0032 212.86 25.9486 213.565 26.0032C217.155 26.1125 219.72 25.894 222.989 27.1504C224.464 27.6967 225.425 28.9531 225.489 30.3188C225.489 29.6086 225.489 29.0077 225.489 28.4615Z" fill="#B4DCFF"/>
<path d="M210.359 34.9624C210.231 35.8364 209.846 36.8197 208.821 37.2021C207.987 37.4753 207.026 37.2021 206.449 36.6558C205.872 36.1096 205.551 35.3994 205.359 34.6346C205.231 34.143 205.167 33.6513 205.102 33.1597C204.974 34.3069 205.038 35.3994 205.359 36.5466C205.551 37.2568 205.872 38.0215 206.449 38.5678C207.026 39.1141 208.051 39.3872 208.821 39.1141C209.782 38.7863 210.167 37.803 210.359 36.8744C210.808 34.3069 210.808 32.4495 210.808 30.1552C210.744 31.6301 210.68 33.1597 210.359 34.9624Z" fill="#B4DCFF"/>
<path d="M125.096 41.3524C124.263 44.4116 118.685 44.4116 118.172 38.2386C117.531 47.3068 125.929 46.5967 125.16 41.7894C125.096 41.6256 125.096 41.4617 125.096 41.3524Z" fill="#B4DCFF"/>
<path d="M257.608 11.0897C257.544 12.1276 254.531 12.8378 250.877 12.7285C247.223 12.6192 244.274 11.6906 244.274 10.7073C244.338 9.66935 247.351 8.95919 251.005 9.06845C254.724 9.1777 257.608 10.1064 257.608 11.0897Z" fill="#D9F1FF"/>
<path d="M179.653 9.83296C179.589 10.8709 176.575 11.581 172.921 11.4718C169.267 11.3625 166.318 10.4339 166.318 9.45057C166.382 8.41264 169.395 7.70248 173.049 7.81173C176.768 7.92099 179.717 8.84966 179.653 9.83296Z" fill="#D9F1FF"/>
<path d="M74.1937 10.4336C74.1296 11.253 71.7576 11.8539 68.8086 11.7447C65.8597 11.6354 63.5518 10.9252 63.5518 10.1058C63.6159 9.28641 65.9879 8.68551 68.9368 8.79476C71.8858 8.90402 74.1937 9.61418 74.1937 10.4336Z" fill="#D9F1FF"/>
<path d="M62.2711 10.2146C62.3993 10.8155 60.7966 11.5803 58.7452 11.908C56.6296 12.2904 54.8346 12.1265 54.7064 11.5256C54.5781 10.9247 56.1809 10.1599 58.2323 9.83217C60.2838 9.50441 62.0788 9.66829 62.2711 10.2146Z" fill="#D9F1FF"/>
<path d="M13.2912 9.61441C13.4195 10.2153 11.8167 10.9801 9.76525 11.3079C7.64968 11.6903 5.85465 11.5264 5.72643 10.9255C5.59822 10.3246 7.20092 9.55978 9.25238 9.23201C11.368 8.84962 13.163 9.0135 13.2912 9.61441Z" fill="#D9F1FF"/>
<path d="M164.523 9.77904C164.651 10.5438 162.6 11.4179 159.907 11.8003C157.215 12.1827 154.907 11.8549 154.778 11.1447C154.65 10.3799 156.702 9.5059 159.394 9.12351C162.087 8.74111 164.395 9.01425 164.523 9.77904Z" fill="#D9F1FF"/>
<path fill-rule="evenodd" clip-rule="evenodd" d="M29.8956 20.4308C29.8956 21.1955 29.1263 21.8511 28.2288 21.8511C27.3313 21.8511 26.562 21.1955 26.562 20.4308C26.562 19.666 27.3313 19.0104 28.2288 19.0104C29.1263 19.0104 29.8956 19.6113 29.8956 20.4308Z" fill="white"/>
<path fill-rule="evenodd" clip-rule="evenodd" d="M183.884 1.42032C183.884 2.18511 183.114 2.84064 182.217 2.84064C181.319 2.84064 180.55 2.18511 180.55 1.42032C180.55 0.655532 181.319 0 182.217 0C183.178 0 183.884 0.655532 183.884 1.42032Z" fill="white"/>
<path fill-rule="evenodd" clip-rule="evenodd" d="M270.943 27.0404C270.943 27.8052 270.173 28.4608 269.276 28.4608C268.378 28.4608 267.609 27.8052 267.609 27.0404C267.609 26.2756 268.378 25.6201 269.276 25.6201C270.173 25.6201 270.943 26.2756 270.943 27.0404Z" fill="white"/>
<path fill-rule="evenodd" clip-rule="evenodd" d="M223.31 29.1717C223.31 29.9365 222.54 30.592 221.643 30.592C220.745 30.592 219.976 29.9365 219.976 29.1717C219.976 28.4069 220.745 27.7514 221.643 27.7514C222.54 27.806 223.31 28.4069 223.31 29.1717Z" fill="white"/>
<path fill-rule="evenodd" clip-rule="evenodd" d="M149.008 24.1996C149.008 24.9643 148.239 25.6199 147.342 25.6199C146.444 25.6199 145.675 24.9643 145.675 24.1996C145.675 23.4348 146.444 22.7792 147.342 22.7792C148.303 22.7792 149.008 23.4348 149.008 24.1996Z" fill="white"/>
<path fill-rule="evenodd" clip-rule="evenodd" d="M185.807 42.7194C185.807 43.1018 185.422 43.4295 184.974 43.4295C184.525 43.4295 184.14 43.1018 184.14 42.7194C184.14 42.337 184.525 42.0092 184.974 42.0092C185.422 42.0092 185.807 42.337 185.807 42.7194Z" fill="white"/>
<path fill-rule="evenodd" clip-rule="evenodd" d="M106.569 29.882C106.569 30.2644 106.184 30.5922 105.735 30.5922C105.287 30.5922 104.902 30.2644 104.902 29.882C104.902 29.4996 105.287 29.1719 105.735 29.1719C106.248 29.1719 106.569 29.4996 106.569 29.882Z" fill="white"/>
<path fill-rule="evenodd" clip-rule="evenodd" d="M129.584 9.50453C129.584 9.88693 129.199 10.2147 128.751 10.2147C128.302 10.2147 127.917 9.88693 127.917 9.50453C127.917 9.12214 128.302 8.79437 128.751 8.79437C129.199 8.79437 129.584 9.12214 129.584 9.50453Z" fill="white"/>
<path fill-rule="evenodd" clip-rule="evenodd" d="M91.824 14.2584C91.824 14.6408 91.4394 14.9685 90.9906 14.9685C90.5419 14.9685 90.1572 14.6408 90.1572 14.2584C90.1572 13.876 90.5419 13.5482 90.9906 13.5482C91.4394 13.5482 91.824 13.876 91.824 14.2584Z" fill="white"/>
<path fill-rule="evenodd" clip-rule="evenodd" d="M63.6165 10.2153C63.6165 10.5977 63.2319 10.9255 62.7831 10.9255C62.3344 10.9255 61.9497 10.5977 61.9497 10.2153C61.9497 9.83295 62.3344 9.50519 62.7831 9.50519C63.2319 9.50519 63.6165 9.83295 63.6165 10.2153Z" fill="white"/>
<path fill-rule="evenodd" clip-rule="evenodd" d="M71.6946 30.5916C71.6946 30.974 71.31 31.3017 70.8612 31.3017C70.4124 31.3017 70.0278 30.974 70.0278 30.5916C70.0278 30.2092 70.4124 29.8814 70.8612 29.8814C71.31 29.8814 71.6946 30.2092 71.6946 30.5916Z" fill="white"/>
<path fill-rule="evenodd" clip-rule="evenodd" d="M194.205 18.3001C194.205 18.6825 193.821 19.0103 193.372 19.0103C192.923 19.0103 192.538 18.6825 192.538 18.3001C192.538 17.9177 192.923 17.59 193.372 17.59C193.821 17.59 194.205 17.9177 194.205 18.3001Z" fill="white"/>
<path fill-rule="evenodd" clip-rule="evenodd" d="M242.927 10.2153C242.927 10.5977 242.542 10.9255 242.093 10.9255C241.645 10.9255 241.26 10.5977 241.26 10.2153C241.26 9.83295 241.645 9.50519 242.093 9.50519C242.542 9.50519 242.927 9.83295 242.927 10.2153Z" fill="white"/>
</g>
<defs>
<clipPath id="clip0_0_7176">
<rect width="275" height="48" fill="white"/>
</clipPath>
</defs>
</svg>
