<svg width="63" height="21" viewBox="0 0 63 21" fill="none" xmlns="http://www.w3.org/2000/svg">
<g clip-path="url(#clip0_0_7168)">
<path d="M61.5849 10.1868C63.14 8.64955 62.4557 6.65442 60.5274 5.21532C58.5368 3.77621 55.5508 2.86042 52.4406 2.20628C48.7704 1.48672 44.9136 1.06153 41.0568 0.66905C35.0228 0.0476179 28.3666 -0.541108 23.0169 1.06153C21.1507 1.61755 19.4711 2.43523 17.3561 2.59876C14.7435 2.795 12.3174 1.91191 9.7048 1.8465C5.84801 1.71567 2.48887 3.35102 1.12033 5.24802C-0.248208 7.14503 -0.0615898 9.20556 0.187236 11.2334C0.249442 11.7894 0.311648 12.3454 0.747092 12.8687C1.18254 13.3266 2.11563 13.7518 3.17314 13.7518C4.7905 13.7518 6.09683 12.7706 7.65199 12.9669C9.02053 13.1304 9.45597 14.0135 9.82921 14.7003C10.2024 15.4199 11.3843 16.2049 12.6907 15.9432C13.3749 15.7797 13.6859 15.3872 14.308 15.1255C15.6766 14.4714 18.0405 15.0274 18.9114 15.8778C19.8444 16.7282 19.8444 17.7421 20.1554 18.6906C20.5286 19.6391 21.4617 20.6857 23.2035 20.9474C25.0697 21.209 26.9981 20.4568 27.8068 19.541C28.6155 18.6252 28.6156 17.5785 28.74 16.5646C28.8643 15.5507 29.1753 14.4714 30.4194 13.7191C32.7833 12.2473 37.3244 12.6071 40.5592 13.5229C43.7938 14.4387 46.7798 15.7797 50.45 15.9759C55.3643 16.2049 58.2257 13.4575 61.5849 10.1868Z" fill="#E3F2FD"/>
<path d="M12.1308 9.53213C8.52285 8.4528 3.98179 8.81258 0.125 8.06032C0.249413 7.07911 0.498238 6.13061 1.18251 5.21481C2.55105 3.31781 5.9724 1.68246 9.76698 1.81329C12.3797 1.91141 14.8679 2.76179 17.4184 2.56555C19.5334 2.40202 21.213 1.58434 23.0792 1.02832C28.4289 -0.574315 35.0228 0.0144098 41.0568 0.668549C44.9136 1.06103 48.7704 1.48622 52.3783 2.23848C55.4886 2.89262 58.5368 3.80842 60.4651 5.24752C60.5896 5.34564 60.7762 5.47647 60.9006 5.57459C58.7234 7.53701 54.991 9.13965 50.6988 9.27048C47.7129 9.33589 44.8514 8.71446 41.9277 8.35468C39.1906 8.02761 36.3913 7.9622 33.6542 8.12573C31.9747 8.22386 30.1707 8.4528 29.1754 9.17236C27.558 10.2517 28.3667 11.9852 26.6871 13.0318C25.443 13.8495 23.0792 13.9803 21.213 13.5878C19.3468 13.228 17.8538 12.4431 16.5475 11.6908C15.179 10.8731 13.8104 10.0554 12.1308 9.53213Z" fill="white"/>
<path opacity="0.5" d="M50.3871 15.9757C46.717 15.7794 43.7311 14.4384 40.4963 13.5226C37.2616 12.6068 32.7205 12.2471 30.3567 13.7189C29.1126 14.4711 28.8015 15.5505 28.6771 16.5644C28.5527 17.5783 28.5527 18.6249 27.744 19.5407C26.9354 20.4565 25.007 21.2088 23.1408 20.9471C21.3368 20.6855 20.4037 19.6715 20.0927 18.6903C19.7194 17.7418 19.7194 16.7279 18.8485 15.8775C17.9154 15.0272 15.6138 14.5038 14.2453 15.1253C13.6854 15.3869 13.3744 15.8121 12.6279 15.943C11.3216 16.2373 10.1397 15.4196 9.76639 14.7001C9.39316 13.9805 8.95771 13.1302 7.58917 12.9666C6.03402 12.7704 4.72768 13.7189 3.11031 13.7516C2.05281 13.7516 1.11971 13.3264 0.684269 12.8358C0.248825 12.3452 0.186623 11.7565 0.124417 11.2004C0.06221 10.7425 0 10.2846 0 9.82675C0.684269 10.0557 1.36854 10.3174 1.9284 10.6117C2.67487 11.0042 3.67017 11.5275 4.72768 11.3313C5.22533 11.2332 5.59857 11.0042 6.03402 10.8407C7.58917 10.3174 9.64198 11.135 10.0774 12.0835C10.2641 12.5414 10.3885 13.1302 11.2594 13.261C11.9436 13.3591 12.6279 13.0647 12.8145 12.7377C13.0011 12.4106 12.068 11.6583 12.7523 11.6583C17.0445 11.6583 19.7816 15.0272 23.2652 16.7279C23.7628 16.9896 24.3849 17.2512 25.1314 17.2185C25.8778 17.1858 26.4377 16.7606 26.6243 16.3681C26.8109 15.9757 26.6865 15.5505 26.7487 15.158C26.9976 13.817 29.0504 12.8031 30.9166 11.8873C32.5339 11.135 34.2135 10.3501 36.3285 9.99029C38.6301 9.5978 41.1806 9.76134 43.42 10.2846C45.3484 10.7098 47.028 11.3967 48.8942 11.8873C50.7604 12.3779 52.9376 12.705 54.9282 12.4106C56.9188 12.0835 58.5984 11.1677 60.6512 11.1023C57.7275 13.9478 54.866 16.2046 50.3871 15.9757Z" fill="#BBDEFB"/>
<path d="M52.6274 7.40621C52.2839 7.40621 52.0054 7.25978 52.0054 7.07914C52.0054 6.89851 52.2839 6.75208 52.6274 6.75208C52.971 6.75208 53.2495 6.89851 53.2495 7.07914C53.2495 7.25978 52.971 7.40621 52.6274 7.40621Z" fill="#E3F2FD"/>
<path d="M6.65722 15.0591C6.48544 15.0591 6.34619 14.9859 6.34619 14.8956C6.34619 14.8053 6.48544 14.7321 6.65722 14.7321C6.829 14.7321 6.96825 14.8053 6.96825 14.8956C6.96825 14.9859 6.829 15.0591 6.65722 15.0591Z" fill="#E3F2FD"/>
<path d="M16.9209 1.32311C16.2338 1.32311 15.6768 1.03024 15.6768 0.668971C15.6768 0.3077 16.2338 0.0148315 16.9209 0.0148315C17.608 0.0148315 18.165 0.3077 18.165 0.668971C18.165 1.03024 17.608 1.32311 16.9209 1.32311Z" fill="#E3F2FD"/>
</g>
<defs>
<clipPath id="clip0_0_7168">
<rect width="63" height="21" fill="white"/>
</clipPath>
</defs>
</svg>
