<svg width="106" height="76" viewBox="0 0 106 76" fill="none" xmlns="http://www.w3.org/2000/svg">
<g clip-path="url(#clip0_0_6998)">
<path d="M103.986 10.1061C103.621 10.8221 103.1 11.5623 102.534 12.2603C101.49 13.5687 100.223 14.8379 99.3547 16.0572C96.1424 20.5429 91.9173 18.5571 89.7817 23.6047C89.5892 24.0382 89.4192 24.4927 89.2489 24.9258C88.5046 26.8741 85.8895 27.0305 84.9659 28.896C84.1071 30.6528 82.9569 32.2641 81.6032 33.6853C80.4029 34.9749 79.0218 36.0956 77.5041 37.0251C74.8649 38.6622 71.7937 39.7476 69.4953 41.8089C67.8758 43.2778 66.7299 45.147 65.4037 46.8689C64.8167 47.6318 64.1846 48.3524 63.485 49.0311C58.7648 53.7365 51.8133 56.674 45.5378 54.9978C45.0018 54.8565 44.4651 54.6723 43.9502 54.4661C42.4727 53.8681 41.1244 53.0312 39.6251 52.455C37.2305 51.5288 34.6037 51.3162 32.0439 51.124C27.0133 50.7379 21.9831 50.3734 16.9525 49.9874C13.4357 49.7258 9.89664 49.4645 6.37981 49.2028C4.97752 49.098 3.50819 48.9729 2.33957 48.2405C1.46319 47.6965 0.845665 46.6965 0.828913 45.7291C0.822956 45.3851 0.905892 45.0396 1.07847 44.7355C1.53101 43.9105 2.50212 43.5066 3.40805 43.1898C12.8218 39.9516 23.3587 41.2314 32.8891 38.3138C41.867 35.5777 49.3171 29.3412 58.202 26.3702C61.7606 25.1903 65.5944 24.5003 68.6243 22.3188C71.1054 20.5339 72.7715 17.9029 74.4843 15.4002C80.8608 6.21461 92.0239 6.07676 102.32 1.18884C102.871 0.921237 103.579 0.672437 104.096 1.00757C104.14 1.02829 104.186 1.07052 104.231 1.11275C104.637 1.4713 104.67 2.09438 104.658 2.65373C104.61 5.04162 105.082 7.89363 103.986 10.1061Z" fill="white"/>
<path d="M103.986 10.1062C102.977 12.1451 100.7 14.163 99.3546 16.0573C95.8597 20.9134 91.3976 19.3618 89.2488 24.9258C88.5045 26.8742 87.872 28.8636 86.9485 30.7291C85.2946 34.0695 80.694 35.099 77.5048 37.0681C74.8655 38.7052 71.7944 39.7906 69.496 41.8519C67.8764 43.3208 66.7306 45.1901 65.4044 46.912C60.4907 53.2766 51.5178 57.5824 43.9509 54.5092C42.4734 53.9111 41.1251 53.0743 39.6258 52.4981C37.2311 51.5718 34.6043 51.3592 32.0446 51.167C23.4972 50.5193 14.9279 49.8935 6.38048 49.2458C4.9782 49.1411 3.50887 49.016 2.34024 48.2836C1.46386 47.7396 0.846343 46.7395 0.82959 45.7721C7.204 46.737 13.5455 48.3691 19.8879 47.4851C24.3676 46.8699 28.648 45.0108 33.1808 44.8893C38.2021 44.7379 43.0376 46.6971 48.0264 47.2344C53.0147 47.7501 59.0111 46.141 60.6882 41.5743C61.1337 40.3408 61.2439 39.0056 61.779 37.8136C63.341 34.3027 67.7907 33.2364 71.55 32.096C76.4593 30.6132 83.5068 29.6704 85.0701 24.9552C85.6833 23.1381 85.6939 21.181 86.1504 19.3021C87.3952 14.1624 92.9015 16.9647 96.7269 13.2211C100.224 9.80574 103.689 5.7458 104.186 1.09207C104.592 1.45063 104.625 2.0737 104.613 2.63305C104.61 5.04168 105.082 7.89369 103.986 10.1062Z" fill="#C0ECFF"/>
<path d="M56.4024 50.1517L54.3182 47.2918C53.9188 47.3325 53.4794 47.2918 53.0001 47.1287C49.3655 46.1502 45.5 42.8941 40.466 43.59C37.5 44 30.5 44.5 31.6136 45.4446L31 50.0487C31.8388 50.2933 32.7574 50.2933 33.6361 50.2525C36.6317 50.171 39.5873 53.0894 42.5828 53.0079C43.9009 52.9671 45.2988 52.9671 46.4172 53.6602C48.2544 54.761 48.6938 57.248 48.9334 59.4088C49.4527 64.0159 49.9719 68.6229 50.4911 73.1892C50.6109 74.1269 51.2899 74.9015 52.1686 74.9831C52.3683 75.0238 52.5281 74.9831 52.6879 74.9423C53.8062 74.6977 54.2456 73.0669 54.3254 71.803C54.645 67.1959 55.0044 62.5889 55.324 57.9819C55.4038 56.5957 56.1627 53.3318 57.361 52.6795C57.5607 52.5979 57.7204 52.5164 57.8802 52.4348C57.9201 52.4348 57.9601 52.3941 58 52.3941L56.4024 50.1517Z" fill="#C0ECFF"/>
<path d="M81.6045 33.7281C80.4042 35.0177 79.0232 36.1384 77.5054 37.0679C74.8662 38.705 71.7951 39.7904 69.4966 41.8517C67.8771 43.3206 66.7313 45.1899 65.4051 46.9117C64.8181 47.6746 64.1859 48.3952 63.4863 49.074C64.4153 46.2407 64.9195 43.2643 64.9571 40.2959C64.9644 39.4356 64.9706 38.5108 65.5146 37.8347C66.2761 36.8753 67.7206 36.8502 68.9647 36.8072C73.3649 36.731 77.7031 35.6451 81.6045 33.7281Z" fill="#CEE8FB"/>
<path d="M72.5 62C73.8807 62 75 60.433 75 58.5C75 56.567 73.8807 55 72.5 55C71.1193 55 70 56.567 70 58.5C70 60.433 71.1193 62 72.5 62Z" fill="#C0ECFF"/>
</g>
<defs>
<clipPath id="clip0_0_6998">
<rect width="106" height="76" fill="white"/>
</clipPath>
</defs>
</svg>
