<svg width="78" height="72" viewBox="0 0 78 72" fill="none" xmlns="http://www.w3.org/2000/svg">
<g clip-path="url(#clip0_0_6978)">
<path d="M65.1966 22.1982C63.5182 22.0137 63.0635 20.5512 62.9591 19.0424C62.9715 17.5182 63.3472 15.7938 63.0785 14.4082C62.632 11.9295 60.1098 10.7906 57.6914 9.79031C56.1339 9.08235 54.4943 8.436 52.4655 8.29776C50.506 8.2519 47.9584 8.79117 45.6361 10.3157C42.7862 12.1637 40.7326 15.0739 37.861 16.7217C35.3527 18.1693 32.831 18.4007 30.4477 18.8168C28.0645 19.2328 25.011 20.2957 23.1734 22.4668C20.7348 25.377 22.2282 28.225 20.0579 31.1506C18.2291 33.6758 14.6004 35.1698 12.1443 37.3718C10.0644 39.2196 8.867 41.56 8.51302 43.4846C8.15903 45.4091 8.43652 47.1488 8.79616 48.8269C9.08657 50.4126 9.49376 51.9829 10.5583 53.0605C11.6228 54.138 13.5089 54.5996 15.8488 53.7832C18.7855 52.7358 21.4793 49.9949 23.797 47.6082C26.2314 45.206 29.2973 42.619 32.0526 42.3568C36.3954 41.9866 35.3551 47.9604 39.5553 47.9135C41.3288 47.8824 43.742 46.6504 45.238 44.8796C46.6518 43.1704 47.0058 41.2459 46.0452 40.3069C45.3615 39.7373 44.3363 39.5681 43.5229 39.168C42.7096 38.7678 42.0864 37.9365 42.6786 36.8433C43.3183 35.6424 45.0179 34.6567 46.4452 34.1638C47.8725 33.6709 49.1917 33.5476 50.6795 32.7929C52.085 32.0999 53.6027 30.5292 53.2953 29.6055C53.4896 28.6664 53.0307 27.7119 53.995 26.7726C56.2304 24.4474 58.2473 27.4801 59.1087 29.1427C59.9701 30.8053 61.355 32.6526 64.2225 31.5128C66.0952 30.7581 67.7209 28.818 68.1183 27.2937C68.3038 26.0004 69.4965 22.7979 65.1966 22.1982Z" fill="#E3F2FD"/>
<path d="M8.82999 48.8732C8.47034 47.1951 8.14531 45.5632 8.54684 43.5308C8.90083 41.6063 10.0982 39.2659 12.1781 37.4181C14.7164 35.1545 18.2629 33.7221 20.0917 31.1968C22.3096 28.1635 20.7687 25.4233 23.2072 22.513C25.0448 20.3419 28.0161 19.3407 30.4816 18.863C32.8648 18.4469 35.3866 18.2156 37.8949 16.768C40.7665 15.1201 42.82 12.21 45.6698 10.362C47.9921 8.83743 50.5397 8.29816 52.6161 8.32861C54.3421 8.40531 55.7957 8.97472 57.2147 9.49795C56.9341 11.0068 56.887 12.4848 56.84 13.9628C56.8059 15.2869 56.8064 16.6571 56.7723 17.9812C56.7164 19.1051 56.7774 20.2136 57.5433 20.7215C58.123 21.1525 59.0443 21.1831 59.5074 21.6295C60.005 22.1221 59.8759 23.6617 58.8594 23.8466C56.5454 24.3551 55.58 22.5539 53.3265 22.8006C51.1075 23.0935 48.1322 24.6028 46.7271 26.6661C45.3696 28.6216 45.3272 30.9618 43.1346 32.317C41.1885 33.4874 38.6362 33.1645 37.5728 34.8274C36.5569 36.3825 38.8239 37.3521 37.319 38.7688C36.5667 39.4771 35.4464 39.5235 35.018 39.1233C34.5074 38.7846 34.3731 38.0919 33.7803 37.8148C32.8631 37.2761 31.1331 37.7075 29.481 38.5853C27.9111 39.4016 26.5014 40.6027 25.0225 41.7114C20.1273 45.4534 14.6998 48.6567 9.34983 50.9361C9.05115 50.3665 8.88218 49.6275 8.82999 48.8732Z" fill="white"/>
<path opacity="0.5" d="M62.9587 19.0432C62.9463 20.5674 63.5178 22.0145 65.1962 22.1989C69.5782 22.7371 68.3855 25.9396 67.9882 27.4639C67.5908 28.9881 65.9651 30.9283 64.0924 31.683C61.2595 32.8689 59.7579 31.0371 58.9786 29.3129C58.1994 27.5887 56.1003 24.6176 53.8649 26.9427C52.9828 27.8204 53.4416 28.7749 53.1652 29.7757C53.4726 30.6994 51.9549 32.27 50.5493 32.9631C49.1438 33.6561 47.7423 33.8411 46.3151 34.334C44.8878 34.8269 43.1536 35.7663 42.5485 37.0135C41.9563 38.1067 42.4973 38.9996 43.3928 39.3381C44.2062 39.7383 45.3136 39.8459 45.9151 40.477C46.9579 41.3544 46.6385 43.3251 45.1079 45.0497C43.694 46.7589 41.1986 48.0526 39.4252 48.0837C35.3072 48.0689 36.2653 42.1568 31.9225 42.527C29.2493 42.7276 26.1013 45.3762 23.6669 47.7783C21.2324 50.1805 18.6554 52.906 15.7187 53.9534C13.3788 54.7697 11.4927 54.3082 10.4282 53.2306C10.2897 53.0459 10.1512 52.8612 10.0127 52.6764C11.2193 52.0604 12.3784 51.5522 13.5375 51.0439C18.6668 48.6413 24.4058 45.8537 28.3709 41.727C29.1708 40.9109 30.2953 40.3564 31.3809 40.2639C32.4666 40.1713 33.2929 40.4175 34.037 40.7253C35.5382 41.1869 36.9918 41.7563 38.493 42.218C38.865 42.3719 39.5182 42.3872 39.9419 41.9252C40.4003 41.5095 40.1233 41.14 40.0324 40.8475C39.4697 39.7545 39.7632 38.0917 40.8613 36.4749C41.9594 34.8582 43.7453 33.3029 45.5488 32.4558C46.3099 32.1016 47.1403 31.8397 47.9837 31.4239C48.7449 31.0697 49.6011 30.4999 50.1199 29.8224C50.6388 29.1449 50.2104 28.7447 49.8988 28.329C49.3924 27.4823 51.6325 26.0193 52.7916 25.5111C53.9853 25.049 55.071 24.9565 56.0269 25.0333C58.1725 25.1561 60.1062 25.5099 61.8626 26.1408C62.2 26.2486 62.6889 26.387 63.1819 26.0175C63.9213 25.4631 63.4366 24.8165 62.9607 24.5241C60.6028 23.262 60.5108 20.229 60.4406 17.3962C60.4184 15.8258 60.4437 14.1477 61.6715 12.3616C61.6715 12.3616 61.6715 12.3616 61.7537 12.3C62.3552 12.9311 62.7577 13.6392 62.9959 14.4706C63.3814 15.8407 62.9711 17.519 62.9587 19.0432Z" fill="#BBDEFB"/>
<path d="M54.1157 14.7787C53.8888 14.9488 53.6274 14.9833 53.5317 14.8558C53.4361 14.7283 53.5426 14.487 53.7695 14.3169C53.9963 14.1468 54.2578 14.1123 54.3534 14.2398C54.449 14.3673 54.3426 14.6086 54.1157 14.7787Z" fill="#E3F2FD"/>
<path d="M15.0021 45.9768C14.0945 46.6572 13.0488 46.7952 12.6663 46.2851C12.2839 45.775 12.7096 44.8099 13.6172 44.1295C14.5247 43.4491 15.5705 43.3111 15.9529 43.8212C16.3353 44.3313 15.9096 45.2964 15.0021 45.9768Z" fill="#E3F2FD"/>
<path d="M29.9404 52.8222C29.0328 53.5025 27.7901 53.3778 27.1646 52.5435C26.5392 51.7093 26.7679 50.4814 27.6755 49.801C28.583 49.1207 29.8258 49.2454 30.4512 50.0797C31.0766 50.9139 30.8479 52.1418 29.9404 52.8222Z" fill="#E3F2FD"/>
<path d="M52.6059 50.6636C51.6983 51.344 50.4556 51.2192 49.8302 50.385C49.2047 49.5507 49.4334 48.3228 50.341 47.6425C51.2486 46.9621 52.4913 47.0868 53.1167 47.9211C53.7422 48.7553 53.5134 49.9832 52.6059 50.6636Z" fill="#CEE8FB"/>
</g>
<defs>
<clipPath id="clip0_0_6978">
<rect width="78" height="72" fill="white"/>
</clipPath>
</defs>
</svg>
