<svg width="85" height="81" viewBox="0 0 85 81" fill="none" xmlns="http://www.w3.org/2000/svg">
<g clip-path="url(#clip0_0_6987)">
<path d="M6.76895 59.6792C6.76527 59.65 6.76159 59.6208 6.80501 59.6154C7.03978 59.3781 8.17699 59.6499 9.95821 59.781C11.6997 59.9469 14.1389 59.6984 16.7731 59.2474C19.9682 58.696 24.6465 59.4107 24.6465 59.4107C25.0668 59.5949 25.5305 59.7737 26.1208 59.9068C26.7112 60.04 27.3846 60.133 28.0979 60.1913C29.5243 60.3079 31.1495 60.2511 32.6907 59.8787C33.4613 59.6925 34.2245 59.4479 34.8501 59.1613C35.5191 58.8693 36.0505 58.5353 36.4877 58.1539C37.4054 57.3855 38.0044 56.5388 38.2671 55.8235C38.4327 55.3874 38.5151 54.9914 38.5577 54.6301C37.7724 54.6995 37.0628 54.6704 36.4762 54.5665C35.484 54.3951 34.8282 54.0922 34.4439 53.8441C34.056 53.5668 33.9831 53.3387 34.1457 53.2292C34.4276 53.0157 35.3911 53.3093 36.8786 53.2106C37.6242 53.1759 38.4891 53.0371 39.3789 52.7469C40.2253 52.4621 41.093 51.9967 41.8084 51.3726C42.5237 50.7484 43.0543 50.0586 43.3678 49.3962C43.6813 48.7338 43.821 48.0933 43.9284 47.5458C43.9924 47.0039 44.0203 46.5258 44.0666 46.1937C43.8929 46.2156 43.759 46.2029 43.5853 46.2248C42.4849 46.245 41.6774 46.1393 41.1269 45.9714C40.58 45.8328 40.3371 45.6559 40.4092 45.5281C40.5063 45.2489 41.7406 45.2415 43.5063 44.9C44.3675 44.7321 45.3913 44.4546 46.4437 44.0548C47.4962 43.6551 48.5303 43.1094 49.4157 42.4341C50.301 41.7589 50.9508 40.965 51.3872 40.2278C51.8236 39.4906 52.0863 38.7752 52.1863 38.1694C52.2937 37.622 52.3216 37.1439 52.3679 36.8118C51.3655 36.9086 50.522 36.8668 50.0222 36.7519C49.7035 36.6734 49.4753 36.6132 49.3303 36.5129C49.1889 36.4418 49.1345 36.3596 49.1705 36.2958C49.3111 36.0111 50.5962 36.0566 52.3759 35.4761C53.2657 35.1859 54.224 34.7387 55.0733 34.1273C55.9226 33.5159 56.6556 32.6819 57.2001 31.7531C58.2818 29.837 58.2595 27.9119 58.2601 26.5178C58.2483 26.0744 58.2438 25.6894 58.243 25.3336C58.0693 25.3555 57.8919 25.3482 57.758 25.3354C56.8276 25.3045 56.0997 25.1294 55.6794 24.9452C55.2591 24.7609 55.1427 24.5383 55.2185 24.4398C55.4062 24.1788 56.391 24.2919 57.7225 24.0052C58.3665 23.8646 59.1334 23.6492 59.8385 23.2933C60.5436 22.9374 61.2302 22.4355 61.7719 21.8333C62.3172 21.2603 62.6815 20.6508 62.9589 20.0522C63.066 17.7549 62.2613 15.5726 59.8108 13.9836C57.1211 12.2467 52.7226 12.0009 49.4827 13.5961C46.303 12.8703 42.4176 13.8944 39.9675 15.8052C36.5564 18.4898 36.1115 21.9568 36.1693 25.2121C33.7927 25.9569 32.1817 27.5245 31.5593 29.2343C30.847 31.2818 31.6694 33.2542 32.6942 35.0825C29.3255 35.6558 26.2593 37.2291 24.3636 39.3369C22.2007 41.775 21.805 44.5833 22.5671 47.1269C17.9493 47.5909 13.6533 49.5566 11.1835 52.3597C11.1799 52.3305 4.65251 56.8913 6.76895 59.6792Z" fill="white"/>
<path d="M59.7879 23.2405C59.0828 23.5964 57.4372 23.9227 56.7932 24.0633C55.4617 24.3499 54.524 24.2606 54.2893 24.4978C54.2171 24.6256 54.3298 24.819 54.7501 25.0032C55.1704 25.1875 55.8549 25.3681 56.8287 25.3935C57.0061 25.4008 57.1364 25.3843 57.3137 25.3916C57.3108 25.7182 58.1976 26.0216 58.2095 26.465C58.2126 27.8883 58.2349 29.8134 57.1495 31.7003C56.6086 32.6583 55.872 33.4631 55.0226 34.0745C54.1733 34.6859 52.293 35.2494 51.4466 35.5341C49.6669 36.1146 48.3818 36.0692 48.2413 36.3538C48.2052 36.4177 48.2597 36.4998 48.401 36.5709C48.5423 36.6421 48.7742 36.7315 49.0929 36.8099C49.6361 36.9193 50.4399 36.9959 51.4387 36.8698C51.396 37.2311 52.2431 37.5692 52.1357 38.1166C52.0357 38.7224 51.773 39.4377 51.3366 40.175C50.9002 40.9122 50.2467 41.6769 49.365 42.3813C48.4797 43.0566 47.4456 43.6023 46.3931 44.002C45.3406 44.4018 43.4816 44.7846 42.5771 44.9581C40.8114 45.2995 39.5807 45.3362 39.4799 45.5862C39.4078 45.7139 39.6507 45.8909 40.1976 46.0295C40.7445 46.1681 41.599 46.2976 42.656 46.2828C42.7899 46.2956 42.9636 46.2737 43.1373 46.2518C43.091 46.5839 43.9418 46.9511 43.8778 47.493C43.7704 48.0405 43.6306 48.681 43.3172 49.3434C43.0037 50.0058 42.4731 50.6956 41.7578 51.3197C41.0387 51.9147 39.296 52.5202 38.4496 52.8049C37.6032 53.0897 36.4754 52.4608 35.7298 52.4956C34.2386 52.5651 33.4947 53.0445 33.2165 53.2873C33.0972 53.3913 33.1701 53.6194 33.5146 53.9022C33.8591 54.185 34.5584 54.4823 35.5469 54.6245C36.1336 54.7285 36.8431 54.7576 37.6284 54.6881C37.5821 55.0202 38.3821 55.3345 38.2165 55.7707C37.9538 56.486 37.3548 57.3327 36.4371 58.1011C35.9565 58.488 35.4251 58.8219 34.7995 59.1085C34.1305 59.4005 33.4107 59.6397 32.6401 59.8259C31.0554 60.2038 29.4303 60.2605 28.0472 60.1384C27.334 60.0801 26.6605 59.9872 26.0702 59.854C25.4799 59.7209 24.9728 59.5476 24.5959 59.3579C24.5959 59.3579 19.9176 58.6431 16.7225 59.1946C14.1317 59.6401 11.7073 58.7643 9.92237 58.6039C8.13746 58.4436 7.0326 59.3198 6.75441 59.5625C6.71467 59.5972 6.71835 59.6264 6.71835 59.6264C7.09232 60.1428 7.76659 60.5916 8.82431 60.9327C8.91853 60.9801 9.05249 60.9929 9.14671 61.0403C10.6571 61.4726 12.2065 61.5144 14.5891 61.8662C14.6325 61.8608 14.6325 61.8608 14.6759 61.8553C16.0442 61.8606 17.1601 62.313 18.4276 62.5683C20.1912 62.9093 22.0805 62.8489 23.9552 62.6717C27.0929 62.3647 30.4403 61.972 33.4609 61.0867C36.9518 60.0826 39.0405 58.4547 40.3275 56.0678C41.2937 54.285 42.2709 52.5897 44.632 51.3723C46.1216 50.5911 47.8652 50.0745 49.6125 49.5871C49.8575 49.0817 49.7876 48.5269 49.7176 47.9722C49.4773 45.7187 51.4086 44.9412 53.8925 43.649C57.2479 41.9205 58.2191 39.1286 58.6442 36.5539C59.1694 33.3733 59.5869 28.9902 63.4405 26.6651C63.4368 26.6359 63.4368 26.6359 63.4766 26.6012C63.5052 26.479 63.5339 26.3567 63.5589 26.2052C63.5553 26.176 63.5516 26.1468 63.5913 26.1122C63.62 25.9899 63.6487 25.8677 63.634 25.7509C63.6303 25.7217 63.6266 25.6925 63.6229 25.6633C63.6516 25.541 63.6369 25.4242 63.6619 25.2728C63.6582 25.2436 63.6545 25.2144 63.6508 25.1852C63.6361 25.0684 63.6611 24.917 63.6464 24.8002C63.6427 24.771 63.6427 24.771 63.639 24.7418C63.6206 24.5958 63.6022 24.4498 63.5874 24.3331C63.5285 23.8659 63.3827 23.4098 63.1971 22.9883C62.815 22.0577 62.6935 21.0943 62.7419 20.0797C62.7382 20.0505 62.7346 20.0213 62.7309 19.9921C62.4535 20.5907 62.0892 21.2002 61.5439 21.7732C61.1362 22.3882 60.4495 22.8901 59.7879 23.2405Z" fill="#C0ECFF"/>
<path d="M39.7966 54.8344C38.5095 57.2213 36.9448 59.7994 33.4576 60.8326C30.437 61.718 27.0896 62.1107 23.9519 62.4176C22.0773 62.5949 20.1879 62.6553 18.4243 62.3143C21.7343 63.0237 21.0487 65.6313 22.1169 67.4541C23.2394 67.6091 24.3192 68.1253 25.4261 67.8077C26.2762 67.5521 26.7671 66.897 27.3669 66.4061C28.4075 65.5629 30.0246 65.092 31.5842 64.8655C32.3224 64.7724 33.0643 64.7084 33.7452 64.8598C35.3748 65.188 35.3548 66.7054 35.1981 67.9116C34.9981 69.1232 34.4682 69.9415 34.2682 71.1532C34.2108 71.3977 34.2747 72.254 34.4345 72.4712C34.7613 72.9638 35.1526 73.1856 35.4794 73.6783C35.7518 74.0888 35.7956 74.0861 35.5903 74.5569C35.385 75.0277 36.0135 76.0812 36.6907 76.2034C37.3679 76.3256 37.9853 75.388 38.1472 74.9226C38.6181 73.4099 36.1397 72.2989 36.1689 70.7826C36.1563 69.9833 36.8967 69.2077 37.1483 68.4048C37.745 66.4906 35.7714 64.4855 37.1358 62.7117C37.8217 61.854 39.0766 61.31 40.0451 60.5946C40.3667 60.3464 40.6449 60.1037 40.9194 59.8318C40.9629 59.8263 41.0063 59.8208 41.0534 59.8446C41.5892 59.8956 41.3917 60.751 41.483 61.1251C41.5743 61.4991 41.2862 62.0397 41.3776 62.4137C41.4689 62.7878 42.4964 62.5395 43.0396 62.6489C43.6262 62.7529 44.335 62.4262 44.6345 62.0028C44.934 61.5794 44.9222 61.136 44.8669 60.6981C44.6532 59.0048 43.9656 57.4009 43.8859 55.7203C43.8667 55.2185 43.8909 54.7113 44.1396 54.235C44.3883 53.7587 44.8579 53.2842 45.5343 53.0506C45.9972 52.8735 46.4749 52.8132 46.996 52.7475C48.2516 52.5594 49.6081 52.1213 50.2145 51.3329C50.478 50.9734 50.4985 50.437 49.995 50.2929C49.8103 50.2272 49.6784 50.0466 49.4576 50.0448C49.1934 50.0485 49.441 50.0731 49.1804 50.106C49.2239 50.1005 49.0979 50.163 49.1377 50.1283C49.6764 49.8527 49.6058 49.43 49.7861 49.1107C48.0388 49.5981 46.2162 50.4137 44.7266 51.1949C42.2279 52.3703 40.7628 53.0515 39.7966 54.8344Z" fill="#C0ECFF"/>
<path d="M52.7724 19.723L37.9627 36.7666L29.2051 62.8656L35.0827 63.463L42.6538 56.2591L51.8673 44.3849L60.744 26.3046L59.2556 21.5829L52.7724 19.723Z" fill="#C0ECFF"/>
<path d="M63.3939 26.4166C59.5837 28.7363 59.1228 33.1248 58.5976 36.3054C58.1725 38.8801 57.2013 41.6721 53.8459 43.4005C51.3185 44.6982 49.4344 45.4995 49.6709 47.7238C49.7409 48.2785 49.8109 48.8332 49.5659 49.3387C51.0166 48.948 52.4238 48.5628 53.7729 48.0663C53.7692 48.0371 53.7692 48.0371 53.7655 48.0079C53.7545 47.9204 53.7037 47.8674 53.6926 47.7799C53.689 47.7507 53.6853 47.7215 53.6816 47.6923C53.6705 47.6047 53.6595 47.5171 53.6521 47.4587C53.6484 47.4295 53.6447 47.4003 53.6411 47.3711C53.6263 47.2543 53.6153 47.1668 53.6005 47.05C53.5858 46.9332 53.6182 46.8401 53.6034 46.7233C53.5998 46.6942 53.5998 46.6942 53.5961 46.665C53.6284 46.5719 53.6211 46.5135 53.6535 46.4204C53.6498 46.3912 53.6895 46.3566 53.6895 46.3566C53.7219 46.2635 53.7543 46.1704 53.8264 46.0427C54.7712 44.4405 57.9524 44.1281 59.8284 42.9126C61.4585 41.8467 61.8676 40.1935 61.6436 38.7684C61.4631 37.3378 60.8013 35.9384 60.751 34.4914C60.7326 34.3454 60.7539 34.1647 60.7355 34.0187C60.7877 33.0334 61.0606 32.0498 61.4675 31.079C61.4638 31.0498 61.5036 31.0152 61.4962 30.9568C61.4925 30.9276 61.5286 30.8637 61.5683 30.829C61.7089 30.5443 61.8023 30.236 61.9428 29.9513C62.505 28.8126 63.0635 27.6447 63.3939 26.4166C63.3976 26.4458 63.3976 26.4458 63.3939 26.4166Z" fill="#C0ECFF"/>
<path d="M53.8957 51.1355C53.892 51.1063 53.9355 51.1008 53.9318 51.0716C54.0076 50.973 54.0436 50.9092 54.076 50.8161C54.076 50.8161 54.0723 50.7869 54.1158 50.7814C54.1481 50.6884 54.1842 50.6245 54.2166 50.5314C54.2129 50.5022 54.2129 50.5022 54.2092 50.473C54.2416 50.38 54.2305 50.2924 54.2629 50.1993C54.2592 50.1701 54.2592 50.1701 54.2555 50.1409C54.2445 50.0534 54.2768 49.9603 54.2621 49.8435C54.2474 49.7267 54.2363 49.6391 54.2216 49.5224L54.2179 49.4932C54.1266 49.1191 53.9882 48.7213 53.8968 48.3473L53.8932 48.3181C53.8858 48.2597 53.7099 47.9148 53.7026 47.8564C52.3535 48.3529 50.8991 48.7144 49.4955 49.1288C49.3587 49.4426 49.1658 50.012 48.6234 50.2584C48.6234 50.2584 48.5837 50.2931 48.5402 50.2985C48.8008 50.2657 49.0179 50.2383 49.2821 50.2346C49.4993 50.2072 49.7201 50.209 49.9048 50.2747C50.4083 50.4188 50.3878 50.9552 50.1243 51.3147C49.5179 52.1031 48.1578 52.512 46.9058 52.7293C46.4281 52.7896 45.907 52.8553 45.4441 53.0324C44.7677 53.266 44.2981 53.7405 44.0494 54.2168C43.8007 54.6931 43.7765 55.2003 43.7957 55.7021C43.8754 57.3827 44.5667 59.0157 44.7767 60.6799C44.832 61.1178 44.8438 61.5612 44.5443 61.9846C44.2448 62.408 43.5794 62.7292 42.9494 62.6307C42.4098 62.5505 42.1375 62.14 42.0461 61.7659C41.9548 61.3919 42.0372 60.9959 41.9459 60.6218C41.8546 60.2478 41.499 59.8774 40.9632 59.8264C40.9198 59.8318 40.8763 59.8373 40.8292 59.8136C40.5981 60.08 40.2802 60.3574 39.9549 60.5764C38.9864 61.2918 37.7315 61.8358 37.0456 62.6935C35.6378 64.4727 37.6548 66.4724 37.0581 68.3866C36.8065 69.1895 36.1096 69.9596 36.0787 70.7644C36.0495 72.2807 38.5279 73.3917 38.057 74.9044C37.8988 75.3989 37.2556 75.8953 36.5784 75.7732C35.9012 75.651 35.8673 75.0324 36.0726 74.5616C36.2779 74.0908 36.6098 73.5744 36.3374 73.1638C36.0105 72.6712 35.022 72.529 34.6952 72.0364C34.5788 71.8137 34.5928 71.5747 34.6067 71.3357C34.8068 70.124 35.5427 68.9634 35.7427 67.7518C35.9428 66.5401 35.3317 65.1935 33.655 64.8416C32.9741 64.6902 32.2322 64.7542 31.494 64.8473C29.9344 65.0738 28.3608 65.5392 27.2767 66.3879C26.6769 66.8788 26.0698 66.3919 25.2197 66.6474C24.1127 66.9651 23.0646 67.2456 21.9385 67.0614C21.9939 67.5008 23.0683 68.6985 24.26 69.0523C24.5316 69.107 24.8069 69.1909 25.0748 69.2165C25.1183 69.211 25.1654 69.2347 25.2088 69.2292C25.7049 69.3149 26.1936 69.3422 26.6602 69.1944C26.7434 69.1542 26.8303 69.1433 26.9134 69.1031C28.3273 68.4205 27.3606 66.7035 29.2198 66.0537C29.3464 66.0081 29.473 65.9625 29.6467 65.9405C31.1481 65.6028 32.6622 66.0643 33.3483 66.9565C34.2921 68.1424 33.9117 69.6734 33.8714 71.1022C33.8466 73.0036 34.4806 74.8811 35.7041 76.536C36.0707 76.994 36.7442 77.087 37.3882 76.9464C37.9888 76.8113 38.5091 76.3897 38.4862 75.8587L37.7033 65.4578C37.6509 64.6933 38.2176 63.9396 39.2229 63.5162C39.3061 63.476 39.4327 63.4304 39.5195 63.4194C41.0497 62.9594 42.1377 63.8899 43.5207 64.012C44.0131 64.0685 44.5342 64.0027 45.0008 63.8549C46.4007 63.4113 47.4914 62.2652 47.6628 61.1759C47.9239 59.7489 47.1354 58.395 46.8246 56.9809C46.5175 55.596 46.9192 53.8843 48.7054 53.0064C48.8718 52.9261 49.0815 52.8403 49.295 52.7837C50.2245 52.4588 51.2668 52.3273 52.1566 52.0371C52.6666 51.8837 53.1259 51.6775 53.4401 51.3709C53.7404 51.3034 53.8162 51.2048 53.8957 51.1355Z" fill="#C0ECFF"/>
<path d="M51.0916 38.2343C45.1777 53.6198 35.0235 59.4536 29.7516 60.1188L28.1523 54.5184L30.3961 47.5404L37.5751 33.6913L44.8608 17.1507L57.7121 16.4218L61.6702 19.4929C51.6807 25.2166 52.8448 34.4425 51.0916 38.2343Z" fill="white"/>
<path d="M70.8176 9.46015C73.5929 7.63462 74.9938 4.86406 73.9466 3.27194C72.8993 1.67983 69.8005 1.86905 67.0252 3.69458C64.2498 5.52011 62.849 8.29067 63.8962 9.88279C64.9435 11.4749 68.0423 11.2857 70.8176 9.46015Z" fill="white"/>
<path d="M15.0359 63.7608C19.2977 63.5801 21.1338 64.9255 21.519 65.6207L22.6666 60.5664L10.0882 59.9219L6.95752 59.8706C7.87451 61.2426 10.774 63.9415 15.0359 63.7608Z" fill="#C0ECFF"/>
</g>
<defs>
<clipPath id="clip0_0_6987">
<rect width="85" height="81" fill="white"/>
</clipPath>
</defs>
</svg>
