<svg width="202" height="84" viewBox="0 0 202 84" fill="none" xmlns="http://www.w3.org/2000/svg">
<g clip-path="url(#clip0_0_6954)">
<path d="M191.963 53.8829C196.707 48.8704 200.139 43.3931 195.746 38.2851C193.31 35.527 189.341 33.5117 184.655 31.9611C180.625 30.619 176.059 29.6375 171.589 28.7471C170.632 26.0628 168.669 23.5696 165.984 21.3979C158.597 15.3779 145.508 11.6861 130.579 12.0078C115.814 4.08544 91.1557 3.47782 73.1305 10.5061C57.3304 9.95908 42.2072 13.9772 33.2065 20.6751C33.0292 20.8271 32.8496 20.9314 32.6723 21.0834C15.8539 24.3675 3.95299 32.1601 1.61356 41.2251C0.00276256 55.9542 24.7096 51.7231 24.7096 51.7231C26.0587 50.989 27.3157 50.2592 28.1955 49.3558C30.7474 46.7452 29.1976 43.227 33.1572 41.1246C34.9574 40.1777 37.7029 39.7129 39.4066 38.6747C41.6512 37.3716 42.1917 35.1434 45.3929 34.5613C47.3122 34.1833 49.3642 34.6611 50.5093 35.469C51.6522 36.2291 52.162 37.2585 52.4855 38.2488C53.465 41.4109 53.0684 44.7337 53.5899 47.9653C53.9563 49.8635 59.3822 49.5115 59.2 47.6047C59.1932 47.4614 59.1842 47.2703 59.1774 47.1269C58.8557 44.2211 58.5363 41.363 58.2146 38.4572C58.0707 37.3626 58.0188 36.2637 58.6135 35.1821C59.2104 34.1483 60.73 33.1189 62.7459 32.8322C66.5038 32.3196 69.9188 34.3132 73.6812 33.8961C79.3698 33.2445 80.2261 27.9366 85.935 27.715C88.0519 27.6151 89.9334 28.3882 90.9011 29.3481C91.8689 30.308 92.0151 31.4504 92.2511 32.5406C92.64 34.9165 93.0311 37.3402 93.4201 39.7161C93.5572 40.6674 93.7887 41.662 94.7474 42.4308C95.7062 43.1996 97.8479 43.6252 99.4867 43.1648C100.488 42.8781 101.105 42.2743 101.449 41.7314C102.66 40.0461 102.483 38.2348 102.489 36.4148C102.498 34.6427 102.594 32.7706 104.365 31.2025C106.135 29.6345 109.862 28.453 113.027 29.0697C115.728 29.6126 116.909 31.1849 118.263 32.5097C119.617 33.8344 122.08 35.2026 125.012 34.7769C126.478 34.564 127.739 33.9298 129.21 33.8125C132.059 33.5823 133.801 35.3197 134.423 36.7747C137.541 44.1935 134.977 52.4072 140.198 59.4393C140.69 60.0865 141.462 60.8162 142.85 60.8944C145.068 60.9812 146.1 59.4001 146.23 58.2447C146.723 55.0131 146.938 51.7468 146.968 48.4891C146.977 46.7169 146.889 44.8535 148.382 43.2507C148.994 42.5514 150.343 41.8173 151.737 42.0388C152.297 42.1561 152.768 42.3732 153.15 42.6425C155.346 44.2149 156.635 46.1173 156.821 48.1197C157.024 50.4565 155.954 53.1887 158.893 54.8696C160.79 55.9771 164.038 56.3984 165.208 57.7318C164.93 57.6971 182.424 62.8569 191.963 53.8829Z" fill="white"/>
<path d="M165.984 21.3978C162.978 22.2102 159.492 22.6142 156.167 22.5317C150.075 22.4363 144.107 21.0899 139.226 19.3091C142.071 18.9833 144.609 18.0494 145.835 16.6507C140.375 18.2493 133.569 18.6664 128.156 17.3417C128.749 18.1756 130.347 18.8185 132.101 18.8315C123.476 21.7766 111.3 21.7768 103.325 18.945C106.358 18.706 109.072 17.5723 109.644 16.0129C100.907 18.5324 90.0599 19.3318 80.9496 17.8465C81.6345 18.6761 83.7808 19.1973 85.5341 19.2103C82.0437 21.482 76.4698 22.6071 71.0348 22.7679C65.6941 22.9722 59.6754 22.4901 54.5725 21.8691C56.8442 21.1394 58.6422 20.1446 59.6903 18.898C54.1817 21.4087 46.6794 22.7206 39.7425 22.3298C37.3381 22.2039 34.8282 21.7957 33.49 20.8054C33.3957 20.7619 33.2991 20.6707 33.2969 20.6229C42.2976 13.925 57.4208 9.90689 73.2209 10.4539C91.3382 3.42129 115.905 4.03326 130.669 11.9556C145.414 11.6426 158.597 15.3778 165.984 21.3978Z" fill="white"/>
<path d="M72.006 18.0779C74.8666 17.9428 77.1381 16.8296 77.0796 15.5915C77.0212 14.3534 74.6549 13.4591 71.7944 13.5942C68.9338 13.7292 66.6623 14.8424 66.7208 16.0805C66.7792 17.3187 69.1455 18.2129 72.006 18.0779Z" fill="#E3F2FD"/>
<path d="M166.451 38.0097C170.11 37.837 173.015 36.4132 172.941 34.8295C172.866 33.2458 169.839 32.102 166.18 32.2748C162.522 32.4475 159.616 33.8713 159.691 35.455C159.766 37.0387 162.792 38.1825 166.451 38.0097Z" fill="#E3F2FD"/>
<path d="M183.084 58.0313C186.742 57.8586 189.606 55.543 189.479 52.8593C189.352 50.1756 186.284 48.14 182.625 48.3127C178.966 48.4855 176.103 50.8011 176.229 53.4848C176.356 56.1685 179.425 58.2041 183.084 58.0313Z" fill="#E3F2FD"/>
<path d="M29.8876 27.5559C32.7481 27.4208 35.0275 26.4749 34.9788 25.4431C34.9301 24.4113 32.5717 23.6844 29.7112 23.8194C26.8506 23.9545 24.5712 24.9004 24.6199 25.9322C24.6686 26.964 27.027 27.6909 29.8876 27.5559Z" fill="#E3F2FD"/>
<path d="M194.559 56.1067C195.72 57.249 196.605 58.4044 197.216 59.6206C196.605 58.4044 195.718 57.2012 194.559 56.1067Z" fill="white"/>
<path d="M24.7096 51.7229C24.53 51.8271 24.2584 51.9357 24.0811 52.0877C24.3527 51.9792 24.53 51.8271 24.7096 51.7229Z" fill="white"/>
<path d="M23.1836 52.6091C23.2734 52.557 23.453 52.4527 23.5428 52.4006C23.453 52.4527 23.2712 52.5092 23.1836 52.6091Z" fill="white"/>
<path d="M169.123 58.6004C169.087 57.8359 168.867 57.0802 168.279 56.3418C166.514 54.1266 162.199 52.6064 161.163 50.2131C159.813 47.0207 164.704 43.1504 161.35 40.4836C159.147 38.7679 154.612 38.4552 150.544 38.2642C146.476 38.0732 141.84 37.5738 140.091 35.693C138.537 34.0425 139.713 31.5927 136.983 30.4287C133.498 28.9172 127.604 31.063 123.322 30.2596C118.204 29.3041 118.178 24.8519 112.799 24.2439C106.122 23.5056 101.252 29.7692 94.5734 28.9831C90.3999 28.5097 89.1511 25.504 85.1504 24.7831C82.5462 24.3314 79.6257 24.996 77.2687 25.8734C74.9117 26.7509 72.8398 27.8064 70.1932 28.4102C61.7976 30.3389 51.3734 26.4256 43.849 29.223C38.6816 31.1429 38.3166 35.1347 34.0068 37.6367C31.0439 39.3568 26.3814 40.2473 24.633 42.2931C22.7051 44.4432 24.8541 46.9755 23.3909 49.1994C22.7064 50.3331 21.1823 51.267 19.4741 52.2096C22.4195 52.0705 24.6149 51.6796 24.6149 51.6796C25.964 50.9455 27.221 50.2157 28.1008 49.3123C30.3026 47.1014 29.5252 44.3128 31.5474 42.2061C31.8975 41.8065 32.4317 41.3982 33.0625 41.0811C34.8627 40.1342 37.6082 39.6694 39.3119 38.6312C41.5565 37.3281 42.097 35.0999 45.2982 34.5178C47.2175 34.1398 49.2695 34.6176 50.4146 35.4255C51.5575 36.1856 52.0673 37.215 52.3908 38.2053C53.3703 41.3674 52.9737 44.6902 53.493 47.8741C53.8593 49.7722 59.2853 49.4203 59.103 47.5134C59.0962 47.3701 59.0872 47.179 59.0805 47.0356C58.7588 44.1298 58.4393 41.2717 58.1177 38.3659C57.9737 37.2713 57.9219 36.1724 58.5165 35.0909C59.1135 34.0571 60.633 33.0276 62.6489 32.7409C66.4069 32.2283 69.8218 34.2219 73.5843 33.8049C79.2728 33.1532 80.1292 27.8454 85.838 27.6237C87.955 27.5238 89.8364 28.2969 90.8042 29.2568C91.772 30.2167 91.9182 31.3591 92.1541 32.4493C92.543 34.8252 92.9342 37.2489 93.3231 39.6249C93.4603 40.5761 93.6917 41.5708 94.6505 42.3396C95.6092 43.1083 97.751 43.534 99.3897 43.0735C100.391 42.7868 101.008 42.1831 101.352 41.6401C102.563 39.9548 102.386 38.1435 102.392 36.3236C102.401 34.5514 102.497 32.6793 104.268 31.1113C106.039 29.5432 109.765 28.3617 112.93 28.9784C115.631 29.5213 116.812 31.0936 118.166 32.4184C119.52 33.7432 121.983 35.1113 124.915 34.6856C126.381 34.4727 127.643 33.8386 129.113 33.7213C131.962 33.491 133.704 35.2284 134.326 36.6835C137.444 44.1022 134.88 52.3159 140.101 59.3481C140.593 59.9953 141.365 60.725 142.753 60.8031C144.971 60.8899 146.003 59.3089 146.133 58.1535C146.626 54.9219 146.841 51.6555 146.871 48.3978C146.88 46.6256 146.792 44.7623 148.285 43.1594C148.897 42.4601 150.246 41.726 151.641 41.9475C152.2 42.0648 152.671 42.282 153.053 42.5513C155.249 44.1236 156.538 46.026 156.724 48.0284C156.758 48.7451 156.7 49.4661 156.736 50.2306C156.631 51.9116 156.71 53.5838 158.796 54.7783C160.693 55.8858 163.942 56.3071 165.111 57.6406C164.93 57.697 166.611 58.1444 169.123 58.6004Z" fill="#E3F2FD"/>
<path opacity="0.35" d="M22.3778 53.1259C22.1085 53.2823 21.8414 53.4864 21.6641 53.6384C21.8391 53.4386 22.1085 53.2823 22.3778 53.1259Z" fill="#61BFEE"/>
<path opacity="0.35" d="M164.955 60.1858C164.95 60.0902 165.042 60.038 165.038 59.9425C165.04 59.9902 164.95 60.0902 164.955 60.1858Z" fill="#61BFEE"/>
<path d="M165.036 59.9427C165.114 59.6516 165.285 59.3563 165.271 59.0696C165.285 59.3563 165.206 59.6473 165.036 59.9427Z" fill="white"/>
<path d="M191.962 53.8828C196.707 48.8703 200.138 43.393 195.746 38.285C193.31 35.5269 189.34 33.5116 184.655 31.961C188.086 34.2891 189.797 37.3209 188.646 40.2962C187.345 43.997 182.436 47.4849 183.07 51.1422C183.353 53.2358 185.468 55.0514 187.401 56.9234C189.027 56.1763 190.548 55.1946 191.962 53.8828Z" fill="#E3F2FD"/>
<path d="M157.753 46.3518C157.724 47.6939 157.325 49.0057 156.647 50.2827C156.706 49.5617 156.761 48.7929 156.636 48.0805C156.449 46.0781 155.16 44.1757 152.964 42.6034C152.582 42.3341 152.201 42.0648 151.552 41.9996C150.158 41.7781 148.809 42.5122 148.196 43.2115C146.706 44.8621 146.791 46.6777 146.783 48.4499C146.844 51.7032 146.535 54.9262 146.044 58.2056C145.914 59.361 144.79 60.9464 142.664 60.8552C141.276 60.7771 140.504 60.0474 140.012 59.4002C134.791 52.368 137.447 44.15 134.238 36.7356C133.615 35.2805 131.967 33.5865 129.024 33.7734C127.554 33.8907 126.292 34.5249 124.826 34.7377C121.895 35.1634 119.432 33.7953 118.078 32.4705C116.724 31.1457 115.542 29.5734 112.842 29.0305C109.676 28.4138 105.95 29.5953 104.179 31.1634C102.408 32.7314 102.312 34.6035 102.303 36.3757C102.295 38.1478 102.472 39.9591 101.263 41.6922C100.827 42.2395 100.302 42.8389 99.3008 43.1256C97.6643 43.6339 95.6124 43.1561 94.5615 42.3917C93.6028 41.6229 93.3713 40.6282 93.2342 39.677C92.8453 37.301 92.4541 34.8773 92.0652 32.5014C91.9213 31.4068 91.6831 30.2688 90.7153 29.3089C89.7475 28.349 87.866 27.5759 85.7491 27.6758C80.0403 27.8975 79.1839 33.2053 73.4954 33.857C69.7329 34.274 66.3157 32.2326 62.56 32.793C60.5441 33.0797 59.0245 34.1092 58.4276 35.143C57.8329 36.2245 57.9769 37.3191 58.0287 38.418C58.3504 41.3238 58.6698 44.1819 58.9915 47.0877C58.9983 47.2311 59.0073 47.4222 59.0141 47.5655C59.1964 49.4724 53.6784 49.8286 53.4041 47.9262C52.8848 44.7423 53.1871 41.3761 52.3019 38.2574C51.9784 37.2671 51.5606 36.2333 50.3257 35.4776C49.1828 34.7175 47.0388 34.2441 45.2093 34.5699C42.1002 35.1476 41.4676 37.3802 39.2229 38.6833C37.5193 39.7215 34.8636 40.1342 32.9736 41.1332C32.3451 41.4981 31.8086 41.8586 31.4585 42.2582C31.611 41.5806 32.226 40.9291 33.0295 40.3644C34.5491 39.335 36.5402 38.5227 37.9678 37.4976C39.3078 36.5724 40.0865 35.4821 41.3322 34.5135C42.578 33.5448 44.3827 32.6935 46.4974 32.5457C48.6144 32.4458 50.5833 33.119 51.6409 34.0268C52.6985 34.9346 53.1185 36.0161 53.3545 37.1063C53.8354 39.4779 53.8562 41.8712 53.2304 44.2472C53.0756 44.877 53.3923 45.724 54.5844 45.5719C54.9503 45.5068 55.3117 45.346 55.5788 45.1419C57.4462 43.665 57.2662 41.806 56.7271 40.1555C56.1879 38.5049 55.1863 36.8283 55.7516 35.1256C56.317 33.4229 58.9095 31.6724 62.1377 31.6637C64.5353 31.6463 66.5133 32.5106 68.9109 32.4932C71.3085 32.4758 73.4769 31.5114 75.1828 30.5211C76.7967 29.5351 78.3118 28.41 80.4937 27.7324C85.0416 26.3684 90.917 27.7192 93.2365 29.9561C95.5583 32.2407 95.2311 35.0814 94.3405 37.7093C94.1005 38.4868 93.7684 39.2687 93.9886 40.0244C94.2087 40.7802 95.2573 41.4969 96.7367 41.5707C98.6786 41.6705 100.472 40.5803 100.699 39.5161C101.02 38.4954 100.326 37.4746 99.9077 36.4409C98.971 34.1866 99.6798 31.6152 102.733 29.8429C105.785 28.0707 111.476 27.4668 114.682 28.9436C117.04 30.0294 117.687 32.0101 120.581 32.7354C123.847 33.5389 128.213 32.2314 131.66 32.9307C134.082 33.4388 135.348 34.8635 135.874 36.2273C136.308 37.5956 136.283 39.0333 137.177 40.3798C137.972 41.5873 139.591 42.6601 140.296 43.9197C142.012 47.047 137.559 50.4177 137.717 53.7623C137.759 54.6701 138.361 55.6951 139.942 55.9557C142.173 56.3292 144.326 55.0305 144.914 53.8056C145.76 52.1854 145.223 50.5826 144.686 48.9799C144.241 47.3728 143.794 45.7179 144.826 44.1368C145.859 42.5557 148.835 41.1223 151.888 41.3133C153.922 41.4089 155.62 42.1907 156.495 43.1549C157.649 44.1539 157.793 45.2485 157.753 46.3518Z" fill="#CEE8FB"/>
<path d="M118 47C119.657 47 121 45.6569 121 44C121 42.3431 119.657 41 118 41C116.343 41 115 42.3431 115 44C115 45.6569 116.343 47 118 47Z" fill="#CEE8FB"/>
<path d="M198.5 74C199.881 74 201 72.2091 201 70C201 67.7909 199.881 66 198.5 66C197.119 66 196 67.7909 196 70C196 72.2091 197.119 74 198.5 74Z" fill="#CEE8FB"/>
</g>
<defs>
<clipPath id="clip0_0_6954">
<rect width="202" height="84" fill="white"/>
</clipPath>
</defs>
</svg>
