<svg width="20" height="21" viewBox="0 0 20 21" fill="none" xmlns="http://www.w3.org/2000/svg">
<g clip-path="url(#clip0_0_182)">
<path d="M4.54521 19.6281C4.54512 19.6279 4.54495 19.6277 4.54471 19.6273M12.818 6.99942L12.9543 7.28843L13.2702 7.33658L19.1468 8.23248C19.1939 8.24056 19.2317 8.24968 19.2616 8.25856C19.2401 8.28999 19.2083 8.33007 19.1623 8.37854L14.9117 12.7248L14.6994 12.9418L14.7486 13.2413L15.7545 19.3732C15.7567 19.3924 15.7596 19.4346 15.7601 19.5078C15.7476 19.5013 15.734 19.4938 15.7193 19.485L15.7102 19.4795L15.7008 19.4743L10.4396 16.5747L10.15 16.415L9.86045 16.5747L4.5996 19.4743L4.59114 19.4791C4.56826 19.4922 4.54785 19.5028 4.52981 19.5113C4.53024 19.5058 4.53082 19.499 4.53157 19.4911C4.53432 19.4622 4.53875 19.4241 4.54527 19.3757L5.55156 13.2413L5.60079 12.9413L5.38788 12.7242L1.13465 8.38718C1.08961 8.33527 1.05835 8.29255 1.03711 8.25896C1.06718 8.24992 1.1054 8.24072 1.15316 8.23248L7.03003 7.33658L7.34591 7.28843L7.48222 6.99943L10.1187 1.40947L10.1218 1.40283L10.1247 1.39611C10.1335 1.37625 10.142 1.35836 10.1502 1.34229C10.1583 1.35831 10.1668 1.37615 10.1755 1.39594L10.1786 1.40274L10.1817 1.40946L12.818 6.99942Z" stroke="#4D5B97" stroke-width="1.19982"/>
</g>
<defs>
<clipPath id="clip0_0_182">
<rect width="20" height="20.7969" fill="white"/>
</clipPath>
</defs>
</svg>
