<svg width="20" height="20" viewBox="0 0 20 20" fill="none" xmlns="http://www.w3.org/2000/svg">
<g clip-path="url(#clip0_0_165)">
<path d="M18.8847 5.77143C17.4341 9.04666 15.9837 12.2752 14.3518 15.5504C14.0176 16.4232 13.4369 17.172 12.6852 17.6997C11.9334 18.2274 11.0454 18.5096 10.1363 18.5096C9.22706 18.5096 8.33875 18.2274 7.58703 17.6997C6.83524 17.172 6.25452 16.4232 5.92036 15.5504L1.11548 5.77143L10.0001 0.740356L18.8847 5.77143Z" stroke="#4D5B97" stroke-width="1.11058" stroke-linecap="round" stroke-linejoin="round"/>
<path d="M15.0217 7.21414C14.2019 9.32382 13.382 11.4034 12.4596 13.513C12.2708 14.0752 11.9426 14.5575 11.5177 14.8974C11.0927 15.2373 10.5908 15.4191 10.0769 15.4191C9.56311 15.4191 9.06098 15.2373 8.63607 14.8974C8.21117 14.5575 7.88296 14.0752 7.69408 13.513L4.97827 7.21414L10.0769 3.83044L15.0217 7.21414Z" stroke="#4D5B97" stroke-width="1.11058" stroke-linecap="round" stroke-linejoin="round"/>
</g>
<defs>
<clipPath id="clip0_0_165">
<rect width="20" height="19.25" fill="white"/>
</clipPath>
</defs>
</svg>
