<svg width="20" height="21" viewBox="0 0 20 21" fill="none" xmlns="http://www.w3.org/2000/svg">
<g clip-path="url(#clip0_0_169)">
<path d="M17.9186 12.1434C17.9186 13.7634 17.3624 15.3171 16.3724 16.4626C15.3824 17.6081 14.0395 18.2516 12.6394 18.2516" stroke="#4D5B97" stroke-width="1.19982" stroke-miterlimit="10"/>
<path d="M2.08105 7.78071C2.08105 6.86338 2.28606 5.95505 2.68432 5.10764C3.08258 4.26023 3.66629 3.49038 4.4021 2.84206C5.1379 2.19374 6.01137 1.67969 6.97257 1.32928C7.93376 0.978888 8.96383 0.799003 10.0038 0.79993C12.103 0.79993 14.1162 1.53541 15.6005 2.84457C17.0848 4.15372 17.9187 5.92929 17.9187 7.78071" stroke="#4D5B97" stroke-width="1.19982" stroke-miterlimit="10"/>
<path d="M5.13131 6.0354C5.48917 6.0354 5.83237 6.16029 6.08542 6.3826C6.33847 6.60491 6.48063 6.90642 6.48063 7.22082V12.7034C6.48063 13.0178 6.33847 13.3193 6.08542 13.5416C5.83237 13.7639 5.48917 13.8888 5.13131 13.8888C4.61523 13.8888 4.1042 13.7994 3.62741 13.6259C3.15061 13.4524 2.71738 13.1982 2.35245 12.8776C1.98753 12.557 1.69805 12.1763 1.50056 11.7575C1.30306 11.3386 1.20142 10.8896 1.20142 10.4363V9.48792C1.20142 8.57229 1.61546 7.6941 2.35245 7.04662C3.08945 6.39915 4.08903 6.0354 5.13131 6.0354Z" stroke="#4D5B97" stroke-width="1.19982" stroke-miterlimit="10"/>
<path d="M14.8689 13.8889C14.5111 13.8889 14.1678 13.764 13.9148 13.5417C13.6618 13.3194 13.5195 13.0178 13.5195 12.7035V7.22096C13.5195 6.90657 13.6618 6.60503 13.9148 6.38272C14.1678 6.16041 14.5111 6.03552 14.8689 6.03552C15.9112 6.03552 16.9108 6.3993 17.6477 7.04677C18.3847 7.69424 18.7987 8.57243 18.7987 9.48806V10.4512C18.7943 11.3643 18.3783 12.2387 17.6418 12.8829C16.9053 13.5272 15.9083 13.8889 14.8689 13.8889Z" stroke="#4D5B97" stroke-width="1.19982" stroke-miterlimit="10"/>
<path d="M11.3104 17.3792H10.4494C9.71531 17.3792 9.12012 17.9651 9.12012 18.688C9.12012 19.4109 9.71531 19.9969 10.4494 19.9969H11.3104C12.0445 19.9969 12.6396 19.4109 12.6396 18.688C12.6396 17.9651 12.0445 17.3792 11.3104 17.3792Z" stroke="#4D5B97" stroke-width="1.19982" stroke-miterlimit="10"/>
</g>
<defs>
<clipPath id="clip0_0_169">
<rect width="20" height="20.7969" fill="white"/>
</clipPath>
</defs>
</svg>
