<svg width="202" height="45" viewBox="0 0 202 45" fill="none" xmlns="http://www.w3.org/2000/svg">
<g clip-path="url(#clip0_0_7130)">
<path d="M0.0818193 11.9179C0.0818193 11.9179 1.10876 -1.49822 19.4011 3.29712C29.0286 5.82949 38.592 8.36186 48.733 6.69157C59.195 4.9674 68.8867 0.926392 79.7337 0.926392C88.0134 0.926392 98.0261 2.38116 103.097 8.5235C107.589 13.9654 105.279 21.1315 103.61 27.0044C103.417 27.7587 101.941 33.47 99.9516 31.7997C95.9722 28.4592 98.9246 21.1315 95.2662 18.0603C92.3137 15.5818 91.2226 17.5754 90.2598 20.0539C88.912 23.3944 85.5102 25.1725 83.9057 20.431C82.622 16.6055 79.477 14.6658 74.7274 14.4503C66.8328 14.127 68.1165 19.7306 66.9612 24.3104C66.4477 26.3039 64.7789 29.3751 61.8907 29.2674C57.2053 29.1057 60.607 22.0474 59.5801 19.8922C58.2964 17.2521 54.4454 18.8146 52.1348 19.4073C48.4763 20.3233 44.5611 20.4849 40.8384 19.8922C38.0785 19.4612 33.714 17.306 31.2751 19.515C30.2481 20.431 29.863 21.778 29.6705 23.0173C29.3496 25.1725 29.2854 27.3277 29.2212 29.4829C29.0928 33.5239 22.9954 33.8472 22.4177 29.7523C21.7117 25.1725 23.2521 14.8814 14.0739 16.0128C10.5438 16.4439 7.52712 19.7306 3.86865 18.8685C0.338554 18.0064 -0.110732 14.3964 0.0818193 11.9179Z" fill="white"/>
<path d="M59.5154 14.2332C58.2317 11.5931 54.3807 13.1556 52.0701 13.7483C48.4116 14.6643 44.4964 14.8259 40.7738 14.2332C38.0139 13.8022 33.6494 11.647 31.2104 13.8561C30.1835 14.772 29.7984 16.1191 29.6058 17.3583C29.2849 19.5135 29.2207 21.6687 29.1565 23.8239C29.0282 27.8649 22.9307 28.1882 22.3531 24.0933C21.6471 19.5135 23.1875 9.22236 14.0092 10.3539C10.4791 10.7849 7.46247 14.0716 3.804 13.2095C1.94267 12.7785 0.979918 11.5392 0.530633 10.0845C0.209714 11.1621 0.145531 11.9164 0.145531 11.9164C-0.0470203 14.3949 0.402265 18.0049 3.804 18.8131C7.46247 19.6751 10.5433 16.3885 14.0092 15.9574C23.1875 14.8259 21.6471 25.117 22.3531 29.6969C22.9949 33.7379 29.0282 33.4685 29.1565 29.4275C29.2207 27.2184 29.3491 25.117 29.6058 22.9618C29.7984 21.6687 30.1835 20.3756 31.2104 19.4596C33.6494 17.2505 38.0139 19.4057 40.7738 19.8368C44.4964 20.4295 48.4116 20.2678 52.0701 19.3519C54.2523 18.8131 57.8466 17.3583 59.3229 19.5135C59.4512 17.5199 60.0289 15.3108 59.5154 14.2332Z" fill="#D9F1FF"/>
<path d="M103.61 21.3996C103.417 22.1539 101.941 27.8652 99.9513 26.1949C95.9719 22.8544 98.9244 15.5267 95.2659 12.4555C92.3134 9.97701 91.2223 11.9706 90.2596 14.4491C88.9117 17.7896 85.51 19.5677 83.9054 14.8262C82.6217 11.0007 79.4767 9.06104 74.7271 8.84552C66.8325 8.52224 68.1162 14.1258 66.9609 18.7056C66.4474 20.6992 64.7787 23.7703 61.8904 23.6626C60.7351 23.6087 60.0291 23.1238 59.7081 22.4233C59.3872 25.3329 58.4887 29.1583 61.8904 29.2661C64.8428 29.3739 66.4474 26.3027 66.9609 24.3091C68.1804 19.7293 66.8325 14.1258 74.7271 14.4491C79.5409 14.6646 82.6217 16.5504 83.9054 20.4298C85.51 25.1712 88.9117 23.3393 90.2596 20.0526C91.2865 17.628 92.3134 15.6344 95.2659 18.059C98.9244 21.1302 95.9719 28.4579 99.9513 31.7985C101.941 33.4688 103.417 27.8113 103.61 27.0031C104.765 22.8544 106.241 18.059 105.471 13.6947C105.086 16.3349 104.316 18.975 103.61 21.3996Z" fill="#D9F1FF"/>
<path d="M59.7083 20.4841C59.7725 19.6759 59.7725 18.9216 59.5157 18.4367C58.2321 15.7965 54.381 17.3591 52.0704 17.9517C48.412 18.8677 44.4968 19.0294 40.7741 18.4367C38.0142 18.0056 33.6497 15.8504 31.2107 18.0595C30.1838 18.9755 29.7987 20.3225 29.6062 21.5617C29.2852 23.7169 29.221 25.8721 29.1569 28.0273C29.0285 32.0684 22.9311 32.3916 22.3534 28.2967C21.6474 23.7169 23.1878 13.4258 14.0095 14.5573C10.4794 14.9883 7.39861 18.275 3.74014 17.4129C1.04443 16.7664 0.14586 14.3418 0.0174928 12.1327C-0.110875 14.6112 0.402595 18.0056 3.74014 18.8138C7.39861 19.6759 10.4794 16.3892 13.9453 15.9582C23.1236 14.8267 21.5832 25.1178 22.2892 29.6976C22.9311 33.7386 28.9643 33.4692 29.0927 29.4282C29.1569 27.2191 29.2852 25.1178 29.542 22.9626C29.7345 21.6695 30.1196 20.3764 31.1466 19.4604C33.5855 17.2513 37.95 19.4065 40.7099 19.8376C44.4326 20.4302 48.3478 20.2686 52.0062 19.3526C54.3169 18.7599 58.1679 17.1974 59.4515 19.8376C59.5799 20.0531 59.6441 20.2686 59.7083 20.4841Z" fill="#B4DCFF"/>
<path d="M103.609 25.603C103.417 26.3573 101.94 32.0686 99.9506 30.3983C95.9712 27.0577 98.9236 19.73 95.2652 16.6589C92.3127 14.1804 91.2216 16.1739 90.2588 18.6524C88.911 21.993 85.5092 23.771 83.9046 19.0296C82.621 15.2041 79.476 13.2644 74.7264 13.0489C66.8318 12.7256 68.1155 18.3291 66.9602 22.909C66.4467 24.9025 64.7779 27.9737 61.8897 27.8659C60.0925 27.8121 59.5149 26.7345 59.3865 25.2797C59.2581 27.3271 59.579 29.1591 61.8897 29.2668C64.8421 29.3746 66.4467 26.3034 66.9602 24.3098C68.1797 19.73 66.8318 14.1265 74.7264 14.4498C79.5402 14.6653 82.621 16.5511 83.9046 20.4305C85.5092 25.1719 88.911 23.34 90.2588 20.0533C91.2858 17.6287 92.3127 15.6351 95.2652 18.0597C98.9236 21.1309 95.9712 28.4586 99.9506 31.7992C101.94 33.4695 103.417 27.8121 103.609 27.0039C104.572 23.4478 105.856 19.4606 105.663 15.6351C105.535 19.0296 104.508 22.4779 103.609 25.603Z" fill="#B4DCFF"/>
<path d="M93.7893 5.02135C93.5968 5.77567 91.0936 5.99119 88.2696 5.45239C85.4455 4.91359 83.3274 3.83598 83.52 3.08166C83.7125 2.32734 86.2157 2.11182 89.0398 2.65062C91.8638 3.18942 93.9819 4.26702 93.7893 5.02135Z" fill="#D9F1FF"/>
<path d="M82.1077 2.97399C82.1077 3.51279 80.5031 4.05159 78.4493 4.05159C76.3954 4.10547 74.7266 3.67443 74.7266 3.13563C74.7266 2.59683 76.3312 2.05802 78.3851 2.05802C80.439 2.00414 82.1077 2.43518 82.1077 2.97399Z" fill="#D9F1FF"/>
<path d="M15.3569 3.99681C15.3569 4.53562 13.7523 5.07442 11.6985 5.07442C9.64458 5.07442 7.91162 4.75114 7.91162 4.15845C7.91162 3.61965 9.51621 3.08085 11.5701 3.08085C13.624 3.02697 15.3569 3.45801 15.3569 3.99681Z" fill="#D9F1FF"/>
<path fill-rule="evenodd" clip-rule="evenodd" d="M119.719 12.6184C119.719 12.9956 119.334 13.3189 118.885 13.3189C118.436 13.3189 118.051 12.9956 118.051 12.6184C118.051 12.2413 118.436 11.918 118.885 11.918C119.334 11.918 119.719 12.2413 119.719 12.6184Z" fill="white"/>
<path fill-rule="evenodd" clip-rule="evenodd" d="M21.1336 44.2994C21.1336 44.6766 20.7485 44.9999 20.2992 44.9999C19.8499 44.9999 19.4648 44.6766 19.4648 44.2994C19.4648 43.9223 19.8499 43.599 20.2992 43.599C20.7485 43.599 21.1336 43.9223 21.1336 44.2994Z" fill="white"/>
<path d="M201.49 11.918C201.49 11.918 200.463 -1.49816 182.171 3.29718C172.543 5.82954 162.98 8.36191 152.839 6.69163C142.377 4.96746 132.685 0.926448 121.838 0.926448C113.559 0.926448 60.3073 -0.608501 79.8936 3.2971C101.62 8.70867 96.293 21.1315 97.9618 27.0044C98.1543 27.7588 99.6306 33.4701 101.62 31.7998C105.6 28.4592 102.647 21.1315 106.306 18.0603C109.258 15.5819 110.349 17.5754 111.312 20.0539C112.66 23.3945 116.062 25.1725 117.666 20.4311C118.95 16.6056 122.095 14.6659 126.845 14.4504C134.739 14.1271 133.456 19.7306 134.611 24.3104C135.124 26.304 136.793 29.3752 139.681 29.2674C144.367 29.1058 140.965 22.0475 141.992 19.8923C143.276 17.2521 147.127 18.8147 149.437 19.4073C153.096 20.3233 157.011 20.4849 160.734 19.8923C163.493 19.4612 167.858 17.306 170.297 19.5151C171.324 20.4311 171.709 21.7781 171.902 23.0173C172.222 25.1725 172.287 27.3277 172.351 29.4829C172.479 33.5239 178.577 33.8472 179.154 29.7523C179.86 25.1725 178.32 14.8814 187.498 16.0129C191.028 16.4439 194.045 19.7306 197.703 18.8685C201.233 18.0065 201.683 14.3965 201.49 11.918Z" fill="white"/>
<path d="M83.4138 2.97411C83.4138 3.51291 81.8092 4.05171 79.7553 4.05171C77.7014 4.10559 76.0327 3.67455 76.0327 3.13575C76.0327 2.59695 77.6373 2.05815 79.6911 2.05815C81.745 2.00427 83.4138 2.43531 83.4138 2.97411Z" fill="#D9F1FF"/>
<path d="M142.057 14.2332C143.341 11.5931 147.192 13.1556 149.502 13.7483C153.161 14.6643 157.076 14.8259 160.798 14.2332C163.558 13.8022 167.923 11.647 170.362 13.8561C171.389 14.772 171.774 16.1191 171.966 17.3583C172.287 19.5135 172.352 21.6687 172.416 23.8239C172.544 27.8649 178.642 28.1882 179.219 24.0933C179.925 19.5135 178.385 9.22236 187.563 10.3539C191.093 10.7849 194.11 14.0716 197.768 13.2095C199.63 12.7785 200.592 11.5392 201.042 10.0845C201.363 11.1621 201.427 11.9164 201.427 11.9164C201.619 14.3949 201.17 18.0049 197.768 18.8131C194.11 19.6751 191.029 16.3885 187.563 15.9574C178.385 14.8259 179.925 25.117 179.219 29.6969C178.577 33.7379 172.544 33.4685 172.416 29.4275C172.352 27.2184 172.223 25.117 171.966 22.9618C171.774 21.6687 171.389 20.3756 170.362 19.4596C167.923 17.2505 163.558 19.4057 160.798 19.8368C157.076 20.4295 153.161 20.2678 149.502 19.3519C147.32 18.8131 143.726 17.3583 142.249 19.5135C142.121 17.5199 141.543 15.3108 142.057 14.2332Z" fill="#D9F1FF"/>
<path d="M97.9624 21.3996C98.155 22.1539 99.6312 27.8652 101.621 26.1949C105.6 22.8544 102.648 15.5267 106.306 12.4555C109.259 9.97701 110.35 11.9706 111.313 14.4491C112.66 17.7896 116.062 19.5677 117.667 14.8262C118.95 11.0007 122.095 9.06104 126.845 8.84552C134.74 8.52224 133.456 14.1258 134.611 18.7056C135.125 20.6992 136.793 23.7703 139.682 23.6626C140.837 23.6087 141.543 23.1238 141.864 22.4233C142.185 25.3329 143.083 29.1583 139.682 29.2661C136.729 29.3739 135.125 26.3027 134.611 24.3091C133.392 19.7293 134.74 14.1258 126.845 14.4491C122.031 14.6646 118.95 16.5504 117.667 20.4298C116.062 25.1712 112.66 23.3393 111.313 20.0526C110.286 17.628 109.259 15.6344 106.306 18.059C102.648 21.1302 105.6 28.4579 101.621 31.7985C99.6312 33.4688 98.155 27.8113 97.9624 27.0031C96.8071 22.8544 95.3309 18.059 96.1011 13.6947C96.4862 16.3349 97.2564 18.975 97.9624 21.3996Z" fill="#D9F1FF"/>
<path d="M141.864 20.4842C141.8 19.676 141.8 18.9217 142.056 18.4368C143.34 15.7967 147.191 17.3592 149.502 17.9519C153.16 18.8678 157.075 19.0295 160.798 18.4368C163.558 18.0058 167.922 15.8505 170.361 18.0596C171.388 18.9756 171.773 20.3226 171.966 21.5618C172.287 23.717 172.351 25.8723 172.415 28.0275C172.544 32.0685 178.641 32.3918 179.219 28.2969C179.925 23.717 178.384 13.4259 187.562 14.5574C191.093 14.9885 194.173 18.2752 197.832 17.4131C200.528 16.7665 201.426 14.3419 201.555 12.1328C201.683 14.6113 201.169 18.0057 197.832 18.814C194.173 19.676 191.093 16.3893 187.627 15.9583C178.448 14.8268 179.989 25.1179 179.283 29.6977C178.641 33.7388 172.608 33.4694 172.479 29.4283C172.415 27.2193 172.287 25.1179 172.03 22.9627C171.838 21.6696 171.452 20.3765 170.425 19.4605C167.986 17.2514 163.622 19.4066 160.862 19.8377C157.139 20.4304 153.224 20.2687 149.566 19.3528C147.255 18.7601 143.404 17.1975 142.12 19.8377C141.992 20.0532 141.928 20.2687 141.864 20.4842Z" fill="#B4DCFF"/>
<path d="M97.9629 25.6031C98.1554 26.3574 99.6317 32.0687 101.621 30.3984C105.601 27.0579 102.648 19.7302 106.307 16.659C109.259 14.1805 110.35 16.1741 111.313 18.6526C112.661 21.9931 116.063 23.7712 117.667 19.0297C118.951 15.2042 122.096 13.2645 126.845 13.049C134.74 12.7257 133.456 18.3293 134.612 22.9091C135.125 24.9027 136.794 27.9738 139.682 27.8661C141.479 27.8122 142.057 26.7346 142.185 25.2798C142.314 27.3273 141.993 29.1592 139.682 29.2669C136.73 29.3747 135.125 26.3035 134.612 24.31C133.392 19.7302 134.74 14.1266 126.845 14.4499C122.032 14.6654 118.951 16.5512 117.667 20.4306C116.063 25.1721 112.661 23.3401 111.313 20.0534C110.579 18.5739 110.267 16.2279 107.315 18.6526C103.656 21.7237 105.601 28.4587 101.621 31.7993C99.6317 33.4696 98.1554 27.8122 97.9629 27.004C97.0001 23.4479 95.7165 19.4608 95.909 15.6353C96.0374 19.0297 97.0643 22.478 97.9629 25.6031Z" fill="#B4DCFF"/>
<path d="M101.333 6.29093C101.379 7.06141 103.808 7.61086 106.699 7.4589C109.589 7.30695 111.886 6.52818 111.84 5.7577C111.793 4.98723 109.364 4.43778 106.473 4.58973C103.583 4.74169 101.287 5.52046 101.333 6.29093Z" fill="#D9F1FF"/>
<path d="M119.464 2.97411C119.464 3.51291 121.069 4.05171 123.123 4.05171C125.176 4.10559 126.845 3.67455 126.845 3.13575C126.845 2.59695 125.241 2.05815 123.187 2.05815C121.133 2.00427 119.464 2.43531 119.464 2.97411Z" fill="#D9F1FF"/>
<path d="M186.215 3.99681C186.215 4.53562 187.82 5.07442 189.874 5.07442C191.927 5.07442 193.66 4.75114 193.66 4.15845C193.66 3.61965 192.056 3.08085 190.002 3.08085C187.948 3.02697 186.215 3.45801 186.215 3.99681Z" fill="#D9F1FF"/>
<path fill-rule="evenodd" clip-rule="evenodd" d="M155.086 24.7949C155.086 25.5493 155.856 26.1958 156.755 26.1958C157.653 26.1958 158.423 25.5493 158.423 24.7949C158.423 24.0406 157.653 23.394 156.755 23.394C155.856 23.394 155.086 23.9867 155.086 24.7949Z" fill="white"/>
<path fill-rule="evenodd" clip-rule="evenodd" d="M191.735 30.9379C191.735 31.315 192.12 31.6383 192.569 31.6383C193.018 31.6383 193.404 31.315 193.404 30.9379C193.404 30.5607 193.018 30.2374 192.569 30.2374C192.12 30.2374 191.735 30.5607 191.735 30.9379Z" fill="white"/>
<path fill-rule="evenodd" clip-rule="evenodd" d="M180.439 44.2996C180.439 44.6767 180.824 45 181.273 45C181.722 45 182.107 44.6767 182.107 44.2996C182.107 43.9224 181.722 43.5991 181.273 43.5991C180.824 43.5991 180.439 43.9224 180.439 44.2996Z" fill="white"/>
</g>
<defs>
<clipPath id="clip0_0_7130">
<rect width="202" height="45" fill="white"/>
</clipPath>
</defs>
</svg>
