<svg width="102" height="39" viewBox="0 0 102 39" fill="none" xmlns="http://www.w3.org/2000/svg">
<g clip-path="url(#clip0_0_7154)">
<path d="M6.62262 11.8227C6.62262 11.8227 7.5499 -2.60795 24.0669 2.55C32.7601 5.27386 41.3954 7.99773 50.5522 6.20114C59.9988 4.28864 68.6919 0 78.5442 0C86.0204 0 95.0613 1.56477 99.6397 8.17159C103.697 14.025 101.61 21.733 100.103 28.05C99.9295 28.8614 98.5965 35.0046 96.7999 33.208C93.2067 29.6148 95.8726 21.733 92.5692 18.4295C89.9033 15.7636 88.9181 17.908 88.0488 20.5739C86.8317 24.167 83.7601 26.0795 82.3113 20.9795C81.1522 16.8648 78.3124 14.7784 74.0238 14.5466C66.8954 14.1989 68.0544 20.2261 67.0113 25.1523C66.5476 27.2966 65.0408 30.6 62.4329 30.4841C58.2022 30.3102 61.2738 22.7182 60.3465 20.4C59.1874 17.5602 55.7101 19.2409 53.6238 19.8784C50.3204 20.8636 46.7851 21.0375 43.4238 20.4C40.9317 19.9364 36.9908 17.6182 34.7885 19.9943C33.8613 20.9795 33.5135 22.4284 33.3397 23.7614C33.0499 26.0795 32.9919 28.3977 32.934 30.7159C32.8181 35.0625 27.3124 35.4102 26.7908 31.0057C26.1533 26.0795 27.5442 15.0102 19.2567 16.2273C16.0692 16.6909 13.3454 20.2261 10.0419 19.2989C6.85444 18.3716 6.44876 14.4886 6.62262 11.8227Z" fill="white"/>
<path d="M60.2878 14.316C59.1287 11.4762 55.6515 13.1569 53.5651 13.7944C50.2617 14.7797 46.7265 14.9535 43.3651 14.316C40.873 13.8524 36.9321 11.5342 34.7299 13.9103C33.8026 14.8956 33.4549 16.3444 33.281 17.6774C32.9912 19.9956 32.9333 22.3137 32.8753 24.6319C32.7594 28.9785 27.2537 29.3262 26.7321 24.9217C26.0946 19.9956 27.4855 8.92624 19.198 10.1433C16.0105 10.6069 13.2867 14.1422 9.98323 13.2149C8.30255 12.7512 7.43323 11.4183 6.96959 9.85352C6.67982 11.0126 6.62186 11.824 6.62186 11.824C6.448 14.4899 6.85368 18.3728 9.92527 19.2422C13.2287 20.1694 16.0105 16.6342 19.1401 16.1706C27.4276 14.9535 26.0367 26.0228 26.6742 30.949C27.2537 35.2956 32.7015 35.0058 32.8174 30.6592C32.8753 28.2831 32.9912 26.0228 33.223 23.7047C33.3969 22.3137 33.7446 20.9228 34.6719 19.9376C36.8742 17.5615 40.8151 19.8797 43.3071 20.3433C46.6685 20.9808 50.2037 20.8069 53.5071 19.8217C55.4776 19.2422 58.7231 17.6774 60.056 19.9956C60.2299 17.8512 60.7515 15.4751 60.2878 14.316Z" fill="#D9F1FF"/>
<path d="M100.103 22.0243C99.9293 22.8356 98.5963 28.9788 96.7997 27.1822C93.2065 23.589 95.8724 15.7072 92.569 12.4038C89.9031 9.7379 88.9179 11.8822 88.0486 14.5481C86.8315 18.1413 83.7599 20.0538 82.3111 14.9538C81.152 10.839 78.3122 8.75267 74.0236 8.52085C66.8952 8.17312 68.0542 14.2004 67.0111 19.1265C66.5474 21.2709 65.0406 24.5743 62.4327 24.4584C61.3895 24.4004 60.752 23.8788 60.4622 23.1254C60.1724 26.2549 59.3611 30.3697 62.4327 30.4856C65.0986 30.6015 66.5474 27.2981 67.0111 25.1538C68.1122 20.2277 66.8952 14.2004 74.0236 14.5481C78.3702 14.7799 81.152 16.8084 82.3111 20.9811C83.7599 26.0811 86.8315 24.1106 88.0486 20.5754C88.9758 17.9674 89.9031 15.8231 92.569 18.4311C95.8724 21.7345 93.2065 29.6163 96.7997 33.2095C98.5963 35.0061 99.9293 28.9209 100.103 28.0515C101.146 23.589 102.479 18.4311 101.784 13.7368C101.436 16.5765 100.741 19.4163 100.103 22.0243Z" fill="#D9F1FF"/>
<path d="M60.463 21.0378C60.5209 20.1685 60.521 19.3571 60.2891 18.8355C59.13 15.9957 55.6528 17.6764 53.5664 18.3139C50.263 19.2992 46.7278 19.473 43.3664 18.8355C40.8744 18.3719 36.9334 16.0537 34.7312 18.4298C33.8039 19.4151 33.4562 20.8639 33.2823 22.1969C32.9925 24.5151 32.9346 26.8332 32.8766 29.1514C32.7607 33.498 27.255 33.8457 26.7334 29.4412C26.0959 24.5151 27.4869 13.4457 19.1994 14.6628C16.0119 15.1264 13.288 18.6617 9.98458 17.7344C7.49254 17.0389 6.73913 14.4889 6.62322 12.1128C6.50731 14.7787 6.97094 18.4298 9.98458 19.2992C13.288 20.2264 16.0698 16.6912 19.1994 16.2276C27.4869 15.0105 26.0959 26.0798 26.7334 31.006C27.313 35.3526 32.7607 35.0628 32.8766 30.7162C32.9346 28.3401 33.0505 26.0798 33.2823 23.7617C33.4562 22.3707 33.8039 20.9798 34.7312 19.9946C36.9334 17.6185 40.8744 19.9367 43.3664 20.4003C46.7278 21.0378 50.263 20.8639 53.5664 19.8787C55.6528 19.2412 59.13 17.5605 60.2891 20.4003C60.3471 20.5742 60.405 20.806 60.463 21.0378Z" fill="#B4DCFF"/>
<path d="M100.104 26.5434C99.93 27.3548 98.5971 33.498 96.8005 31.7014C93.2073 28.1082 95.8732 20.2264 92.5698 16.923C89.9039 14.2571 88.9187 16.4014 88.0494 19.0673C86.8323 22.6605 83.7607 24.573 82.3118 19.473C81.1528 15.3582 78.313 13.2718 74.0244 13.04C66.8959 12.6923 68.055 18.7196 67.0119 23.6457C66.5482 25.79 65.0414 29.0934 62.4334 28.9775C60.8107 28.9196 60.2891 27.7605 60.1732 26.1957C60.0573 28.398 60.3471 30.3684 62.4334 30.4843C65.0994 30.6002 66.5482 27.2968 67.0119 25.1525C68.113 20.2264 66.8959 14.1991 74.0244 14.5468C78.3709 14.7787 81.1528 16.8071 82.3118 20.9798C83.7607 26.0798 86.8323 24.1093 88.0494 20.5741C88.9766 17.9662 89.9039 15.8218 92.5698 18.4298C95.8732 21.7332 93.2073 29.615 96.8005 33.2082C98.5971 35.0048 99.93 28.9196 100.104 28.0502C100.973 24.2252 102.133 19.9366 101.959 15.8218C101.843 19.473 100.915 23.1821 100.104 26.5434Z" fill="#B4DCFF"/>
<path d="M91.2363 4.40501C91.0625 5.21638 88.8022 5.4482 86.2522 4.86865C83.7022 4.28911 81.7897 3.13001 81.9636 2.31865C82.1375 1.50729 84.3977 1.27547 86.9477 1.85501C89.4977 2.43456 91.4102 3.59365 91.2363 4.40501Z" fill="#D9F1FF"/>
<path d="M80.6887 2.20314C80.6887 2.78269 79.2398 3.36223 77.3853 3.36223C75.5307 3.42019 74.0239 2.95655 74.0239 2.37701C74.0239 1.79746 75.4728 1.21791 77.3273 1.21791C79.1819 1.15996 80.6887 1.6236 80.6887 2.20314Z" fill="#D9F1FF"/>
<path d="M20.4161 3.30458C20.4161 3.88413 18.9672 4.46367 17.1127 4.46367C15.2581 4.46367 13.6934 4.11595 13.6934 3.47845C13.6934 2.8989 15.1422 2.31935 16.9968 2.31935C18.8513 2.2614 20.4161 2.72504 20.4161 3.30458Z" fill="#D9F1FF"/>
<path fill-rule="evenodd" clip-rule="evenodd" d="M48.5239 25.6733C48.5239 26.4847 47.8284 27.1801 47.0171 27.1801C46.2057 27.1801 45.5103 26.4847 45.5103 25.6733C45.5103 24.862 46.2057 24.1665 47.0171 24.1665C47.8284 24.1665 48.5239 24.804 48.5239 25.6733Z" fill="white"/>
<path fill-rule="evenodd" clip-rule="evenodd" d="M84.1083 36.6278C84.1083 37.4392 83.4129 38.1346 82.6015 38.1346C81.7901 38.1346 81.0947 37.4392 81.0947 36.6278C81.0947 35.8164 81.7901 35.121 82.6015 35.121C83.4129 35.121 84.1083 35.8164 84.1083 36.6278Z" fill="white"/>
<path fill-rule="evenodd" clip-rule="evenodd" d="M4 15.5C4 16.3077 3.07692 17 2 17C0.923077 17 0 16.3077 0 15.5C0 14.6923 0.923077 14 2 14C3.07692 14 4 14.6923 4 15.5Z" fill="white"/>
<path fill-rule="evenodd" clip-rule="evenodd" d="M92.2217 11.6484C92.2217 12.0541 91.8739 12.4018 91.4683 12.4018C91.0626 12.4018 90.7148 12.0541 90.7148 11.6484C90.7148 11.2427 91.0626 10.895 91.4683 10.895C91.8739 10.895 92.2217 11.2427 92.2217 11.6484Z" fill="white"/>
</g>
<defs>
<clipPath id="clip0_0_7154">
<rect width="102" height="39" fill="white"/>
</clipPath>
</defs>
</svg>
