<svg width="30" height="30" viewBox="0 0 30 30" fill="none" xmlns="http://www.w3.org/2000/svg">
<g clip-path="url(#clip0_0_7111)">
<path d="M19.7002 8.95813C18.9479 8.95813 18.2262 9.25703 17.6942 9.78905C17.1622 10.3211 16.8632 11.0427 16.8632 11.7951C16.8632 12.5475 17.1622 13.269 17.6942 13.8011C18.2262 14.3331 18.9479 14.632 19.7002 14.632C20.4526 14.632 21.1742 14.3331 21.7062 13.8011C22.2382 13.269 22.5371 12.5475 22.5371 11.7951C22.5371 11.0427 22.2382 10.3211 21.7062 9.78905C21.1742 9.25703 20.4526 8.95813 19.7002 8.95813ZM18.2817 16.0505C15.9242 16.0505 14.0264 17.9484 14.0264 20.3059V21.7244C14.0264 22.5101 14.659 23.1428 15.4449 23.1428H23.9556C24.7415 23.1428 25.3741 22.5101 25.3741 21.7244V20.3059C25.3741 17.9484 23.4762 16.0505 21.1187 16.0505H18.2817Z" fill="white"/>
<path d="M10.6739 6.25C9.92146 6.25 9.19989 6.54889 8.66785 7.08093C8.13582 7.61295 7.83694 8.33454 7.83694 9.08694C7.83694 9.83934 8.13582 10.5609 8.66785 11.0929C9.19989 11.625 9.92146 11.9239 10.6739 11.9239C11.4263 11.9239 12.1479 11.625 12.6799 11.0929C13.2119 10.5609 13.5108 9.83934 13.5108 9.08694C13.5108 8.33454 13.2119 7.61295 12.6799 7.08093C12.1479 6.54889 11.4263 6.25 10.6739 6.25ZM9.2554 13.3424C6.89791 13.3424 5 15.2403 5 17.5978V19.0163C5 19.802 5.63264 20.4346 6.41846 20.4346H12.0923C12.0923 18.0729 13.5903 16.1254 15.6626 15.2927C15.279 14.6941 14.7509 14.2016 14.127 13.8608C13.503 13.52 12.8034 13.3416 12.0923 13.3424H9.2554Z" fill="white"/>
</g>
<defs>
<clipPath id="clip0_0_7111">
<rect width="30" height="30" fill="white"/>
</clipPath>
</defs>
</svg>
