<svg width="32" height="19" viewBox="0 0 32 19" fill="none" xmlns="http://www.w3.org/2000/svg">
<g clip-path="url(#clip0_0_6848)">
<path d="M19.8405 10.2333L18.4302 10.2452C16.6965 9.29461 13.5361 8.65833 9.92431 8.65833C6.132 8.65833 2.83736 9.35984 1.16938 10.3901L0.00830078 10.3998V11.9153C0.00830078 11.9186 0.00830078 11.9219 0.00830078 11.9254C0.00830078 13.7292 4.44863 15.1916 9.92431 15.1916C15.4 15.1916 19.8405 13.7292 19.8405 11.9254C19.8405 11.9219 19.8405 11.9186 19.8405 11.9153V10.2333Z" fill="url(#paint0_linear_0_6848)"/>
<path d="M9.92431 13.5959C15.4008 13.5959 19.8403 12.1335 19.8403 10.3295C19.8403 8.52552 15.4008 7.06311 9.92431 7.06311C4.44784 7.06311 0.00830078 8.52552 0.00830078 10.3295C0.00830078 12.1335 4.44784 13.5959 9.92431 13.5959Z" fill="#FF922E"/>
<path d="M9.92403 12.3363C13.2888 12.3363 16.0165 11.4379 16.0165 10.3295C16.0165 9.2212 13.2888 8.32274 9.92403 8.32274C6.55925 8.32274 3.83154 9.2212 3.83154 10.3295C3.83154 11.4379 6.55925 12.3363 9.92403 12.3363Z" fill="white"/>
<path d="M9.93018 8.26692H9.64771C9.42789 8.27 9.21153 8.2769 8.99859 8.28757L9.06761 8.43978C9.35096 8.42594 9.64134 8.41891 9.93018 8.41891V8.26517V8.26692ZM8.08766 8.35763L8.06568 8.36005H8.05886H8.05469H8.05205H8.04809H8.04502H8.04128H8.0382H8.03425H8.03139H8.02743H8.01248H8.00984H7.97929H7.97665H7.96544H7.9628H7.95489H7.95247H7.94939H7.94346H7.94038H7.9373H7.93423H7.92785H7.92148H7.914H7.91071H7.90763H7.90433H7.8995H7.8962H7.89312H7.88982H7.88301H7.8762H7.86938H7.86279H7.85597C7.63675 8.40046 7.42409 8.43679 7.21806 8.46899L7.42073 8.6078C7.6799 8.56673 7.95049 8.5318 8.22505 8.50413L8.08788 8.35675L8.08766 8.35763ZM6.40869 8.62273C6.15963 8.67874 5.92355 8.74024 5.70197 8.807L5.6967 8.80876L5.69142 8.8103H5.689H5.6868H5.68439H5.68241H5.68021L5.99763 8.92319C6.20887 8.85884 6.43726 8.79932 6.67423 8.74595L6.41045 8.61856L6.40869 8.62273ZM5.04098 9.04004C4.85952 9.11344 4.68287 9.19815 4.51209 9.29371L4.91634 9.37103C5.07441 9.28273 5.23785 9.2043 5.40566 9.13624L5.04186 9.0396L5.04098 9.04004ZM4.10411 9.57045C4.01843 9.64034 3.94006 9.71871 3.87022 9.80436C3.86957 9.80513 3.86897 9.80592 3.86847 9.80678C3.868 9.80762 3.86741 9.80836 3.86671 9.80898L3.86495 9.81117L3.86341 9.81337L3.86165 9.81557L3.85989 9.81776L3.85813 9.81996V9.82106V9.82216V9.82325V9.82435V9.82567C3.85818 9.8262 3.85818 9.8267 3.85813 9.82721L3.8566 9.82962L3.85374 9.83358L4.3092 9.86828C4.38249 9.76681 4.4689 9.67544 4.56617 9.59659L4.13159 9.53993L4.10411 9.57045ZM3.68492 10.1683C3.67835 10.1959 3.67349 10.2238 3.67041 10.252C3.67041 10.252 3.67041 10.2535 3.67041 10.2544V10.2568V10.2592V10.2608V10.2621V10.2656V10.2689V10.2988V10.3012V10.3023V10.3034V10.3058V10.3095V10.3119V10.313V10.3141V10.3166V10.3177V10.3187V10.3212V10.3223V10.3234V10.3245V10.3278V10.3289V10.33V10.331V10.3321V10.3332V10.3354V10.3365V10.3387C3.67041 10.3387 3.67041 10.3412 3.67041 10.3423V10.3444C3.67173 10.3697 3.67437 10.3948 3.67832 10.4198C3.67819 10.4205 3.67819 10.4213 3.67832 10.422V10.4231V10.4251V10.4301V10.4323C3.67964 10.4393 3.68096 10.4461 3.6825 10.4532L4.14873 10.4424C4.12856 10.3482 4.12968 10.2506 4.15203 10.1569L3.68602 10.145L3.68492 10.1683ZM4.27249 10.7466L3.81615 10.7802C3.8617 10.8468 3.9132 10.909 3.97002 10.9662L3.97222 10.9684L3.97442 10.9706L3.97662 10.973H3.97772V10.9741L3.97882 10.9752H3.97991H3.98101L3.98211 10.9763V10.9774V10.9785H3.98321L3.98431 10.9796L3.98651 10.9816L3.98871 10.9836L3.99091 10.9858L3.9931 10.988C3.99482 10.9893 3.99642 10.9908 3.99794 10.9924C4.01728 11.0102 4.03729 11.0279 4.05795 11.0455L4.49407 10.99C4.41069 10.918 4.33628 10.8363 4.27249 10.7466ZM4.89458 11.2759L4.48879 11.3523L4.51429 11.3671L4.51803 11.369L4.52133 11.3708H4.52287H4.5244H4.52594H4.52726H4.52836H4.52968H4.531H4.53232H4.53386H4.53584L4.53913 11.3726L4.54243 11.3743C4.62932 11.4221 4.72158 11.4683 4.81918 11.5131L4.82336 11.5151L4.82731 11.5169H4.82973H4.83105H4.83325H4.83457H4.83655L4.84006 11.5184H4.8416H4.8427H4.84402H4.84512H4.84622H4.84754H4.84886H4.85018H4.85193H4.85347H4.85523H4.85677H4.85875L4.86271 11.5201L4.86688 11.5219L4.87128 11.5237C4.9088 11.5407 4.94718 11.5572 4.98646 11.5733L5.35334 11.478C5.18733 11.4095 5.02581 11.3307 4.86974 11.2419L4.89458 11.2759ZM5.96334 11.7218L5.64328 11.834L5.72637 11.8593L5.73165 11.8608L5.73692 11.8623H5.73934H5.74176H5.7444H5.74681H5.74923L5.75407 11.8637H5.75649H5.7589H5.7611H5.7633H5.76572H5.7677H5.7699H5.77209H5.77451H5.77671H5.77847H5.78067H5.78265H5.78484H5.78638H5.78858H5.79034H5.79232H5.79342H5.79496H5.79627H5.79781H5.79891H5.80089H5.80221H5.80331H5.80529H5.80639H5.8077H5.8088H5.81078H5.81188H5.8132H5.81452H5.81628H5.81782H5.81935H5.82067H5.82199H5.82331H5.82507H5.82617H5.82727H5.82925H5.83035H5.83166H5.83276H5.83474H5.83694H5.83892H5.84002H5.84156H5.84375H5.84529H5.84771H5.84903H5.85013H5.85233H5.85453H5.85672H5.85936H5.8609H5.86354H5.86508H5.86749H5.86903H5.87189L5.87651 11.865L5.88156 11.8663H5.88442H5.88596H5.88904H5.89058H5.89343L5.89827 11.8676L5.90333 11.8689H5.90618H5.90772H5.9108H5.91234H5.9152L5.92025 11.8705L5.92531 11.8718H5.92838H5.93014H5.93344H5.9352H5.93872L5.94399 11.8733L5.94927 11.8749L5.95454 11.8762L5.96356 11.8786L5.96883 11.8799L5.97411 11.8814L5.97938 11.8828L5.98839 11.8852L5.99367 11.8867L5.99895 11.888L6.00422 11.8894L6.01323 11.8918L6.01873 11.8933L6.02423 11.8946L6.0295 11.8962L6.035 11.8975H6.03851L6.04379 11.8988L6.04928 11.9001L6.05456 11.9014H6.05786H6.05962H6.06291H6.06467H6.06819L6.07346 11.9028L6.07852 11.9041H6.0816H6.08336H6.08621H6.08797H6.09127L6.09633 11.9054L6.10138 11.9067H6.10468H6.10732H6.10995H6.11149H6.11435H6.11721H6.12007L6.1249 11.908H6.12732H6.12886H6.13128H6.13282H6.13391H6.13611H6.18491H6.18623H6.18843H6.18953H6.19107H6.19283H6.19524H6.19744H6.19898H6.2014H6.2025H6.20382H6.20602H6.20843H6.20997H6.21173H6.21305H6.21415H6.21635H6.21767H6.21898H6.22096H6.22228H6.22888H6.23042H6.23217H6.23327H6.23503H6.23635H6.23789H6.23899H6.24141H6.24316H6.24536H6.24712H6.24932H6.25042H6.25218H6.25438H6.25547H6.25723H6.25921H6.26163H6.26361H6.26603H6.268H6.27042H6.2724H6.27482H6.27724H6.27987H6.28251H6.28493H6.28757H6.28999H6.29284H6.29548H6.29812L6.30361 11.9093H6.30625H6.30889H6.31153H6.31439H6.31702L6.32274 11.9107L6.32845 11.912L6.33417 11.9133L6.35219 11.9175L6.61817 11.7907C6.38187 11.7369 6.15546 11.6767 5.94575 11.6117L5.96334 11.7218ZM7.38072 12.0446L7.1741 12.1832C7.21718 12.1903 7.26048 12.1971 7.30401 12.2037H7.31038H7.31632H7.32203H7.32489H7.32863H7.33127H7.34204H7.34402H7.35347H7.35611H7.35808H7.36556H7.36841H7.37061H7.37347H7.37699H7.38007H7.38292H7.386L7.39216 12.2047H7.39853H7.4049C7.60918 12.234 7.81904 12.26 8.03446 12.2827L8.17515 12.1358C7.90126 12.1075 7.63154 12.0719 7.37325 12.0301L7.38072 12.0446ZM9.02387 12.2155L8.95133 12.3675H9.0032H9.01002H9.03486H9.05684C9.32678 12.3798 9.60265 12.3866 9.88248 12.3873L9.886 12.2335C9.59715 12.2335 9.30721 12.225 9.02409 12.2105L9.02387 12.2155ZM11.5924 12.1593C11.3172 12.1865 11.0332 12.2069 10.7483 12.2201L10.8143 12.3726L10.9033 12.3684H10.9103H10.9174H11.0902H11.097H11.1038H11.1106H11.1176C11.3241 12.3554 11.5267 12.339 11.7254 12.3194L11.5924 12.1593ZM13.1512 11.9177C12.912 11.9704 12.659 12.0176 12.3992 12.058L12.5986 12.1973C12.7518 12.1736 12.9015 12.1479 13.0474 12.1202L13.0694 12.1158L13.0753 12.1147L13.0813 12.1136L13.0872 12.1125H13.0909H13.0934H13.0969H13.0989H13.1024H13.1079L13.1134 12.1114H13.1164H13.1195H13.1224H13.1239H13.1312H13.1336H13.1362H13.1378H13.1411H13.1424H13.1446H13.1485H13.1507H13.1521H13.1534H13.1547H13.1569H13.1597H13.1611H13.1644H13.1661H13.1677H13.1694H13.1716H13.1736H13.176H13.1795H13.1822H13.1841H13.1866H13.1888H13.1914H13.1936H13.196H13.1987H13.2013H13.2039H13.2061H13.2088H13.211H13.2136H13.216H13.2187H13.2242H13.227H13.2299H13.2327H13.2356H13.2384H13.2413H13.2442L13.2501 12.1103L13.2558 12.1092L13.2617 12.1081L13.2677 12.1068C13.3108 12.0979 13.3534 12.0887 13.3956 12.0793L13.1532 11.9172L13.1512 11.9177ZM14.4261 11.5351C14.2446 11.6087 14.0445 11.6783 13.8326 11.742L14.1474 11.856C14.378 11.7868 14.5925 11.7121 14.7895 11.6324L14.4281 11.5346L14.4261 11.5351ZM15.3054 11.0464C15.1852 11.1424 15.0568 11.2278 14.9218 11.3016L15.3241 11.38C15.3478 11.3668 15.3711 11.3537 15.3938 11.3403L15.396 11.339H15.3971L15.3988 11.3379H15.4001H15.4012H15.4026H15.4039H15.4052H15.4065H15.4081H15.4094H15.4109H15.4122H15.4138H15.4151H15.4168H15.4184L15.4201 11.3368L15.4234 11.3346L15.4267 11.3326C15.4833 11.2982 15.537 11.2631 15.5879 11.2274L15.5909 11.2252L15.594 11.223L15.5971 11.2208L15.6 11.2188H15.6013H15.6028L15.6041 11.2177H15.6054H15.6065H15.6079H15.609H15.6103H15.6114H15.6127H15.614H15.6153L15.6178 11.2157L15.6204 11.2138L15.623 11.2118C15.6479 11.1931 15.6718 11.1744 15.6951 11.1556L15.2619 11.0976L15.3054 11.0464ZM15.7059 10.4945C15.6782 10.5959 15.6316 10.6912 15.5685 10.7754L16.0233 10.8112C16.0458 10.7803 16.0667 10.7483 16.0858 10.7152L16.0871 10.713V10.7117V10.7104V10.7093V10.7079V10.7068V10.7053V10.7042V10.7031V10.702V10.6998C16.087 10.6991 16.087 10.6984 16.0871 10.6976L16.0884 10.6954C16.0884 10.6954 16.0884 10.6939 16.0884 10.6932L16.0897 10.691C16.1149 10.6419 16.135 10.5904 16.1497 10.5373V10.5362V10.5349V10.5338V10.5327L15.6839 10.5197L15.7059 10.4945ZM16.0548 9.89442L15.5978 9.9267C15.6551 10.0122 15.6951 10.1081 15.7156 10.2089L16.1823 10.1997C16.1783 10.1777 16.1732 10.1575 16.1675 10.1367V10.1343V10.1318V10.1307V10.1296V10.1285V10.1274V10.1263V10.1253V10.1242V10.1217V10.0998V10.0987V10.0976V10.0963V10.0949V10.0934V10.0919V10.0903V10.0879C16.1676 10.0871 16.1676 10.0863 16.1675 10.0855V10.0831V10.0807C16.1674 10.0799 16.1674 10.0791 16.1675 10.0782V10.0758C16.1442 10.0166 16.1147 9.95991 16.0796 9.90671L16.0548 9.89442ZM15.3953 9.32117L14.9878 9.3965C15.1172 9.47122 15.2396 9.55761 15.3533 9.65457L15.791 9.59923L15.7602 9.57309L15.7587 9.57177L15.7571 9.57045L15.7556 9.56936L15.7543 9.56826V9.56716L15.7529 9.56606V9.56496L15.7516 9.56387H15.7503H15.749L15.7464 9.56189L15.7437 9.55969C15.6337 9.47158 15.5173 9.39185 15.3953 9.32117ZM14.2522 8.83666L13.9298 8.94779C14.1382 9.01368 14.3331 9.0844 14.5099 9.15908L14.8787 9.06464C14.7921 9.02796 14.7016 8.99216 14.6077 8.95745L14.6029 8.9557L14.5982 8.95416L14.5936 8.95262H14.5912H14.5892H14.5873H14.5857H14.5837H14.5822H14.5802H14.5782H14.5765H14.5745H14.5732H14.5714H14.5701H14.5683H14.5672H14.5657H14.5644H14.5624H14.5611H14.5589L14.5545 8.95109L14.5501 8.94955L14.5472 8.94845H14.5457H14.5428L14.5382 8.94691L14.5336 8.94516C14.4476 8.91485 14.3591 8.88557 14.2681 8.8573L14.2522 8.83666ZM12.7282 8.4837L12.5192 8.62141C12.7759 8.66358 13.0248 8.71278 13.2613 8.76725L13.5304 8.6403C13.4033 8.61103 13.2729 8.58313 13.1391 8.55662L13.1329 8.5553H13.1268L13.1048 8.55091H13.0984L13.0923 8.54959H13.0892L13.0767 8.54718H13.0703L13.0641 8.54586L13.0421 8.54169L13.036 8.54059L13.0298 8.53927L13.0235 8.53817L13.014 8.53642L13.0079 8.5351L12.9993 8.53049L12.9931 8.52939L12.987 8.52807L12.9775 8.52631L12.9711 8.52521L12.9648 8.52412L12.9586 8.52302H12.9525L12.9461 8.52192H12.943H12.9369H12.9307L12.9245 8.52082L12.9182 8.51972L12.9118 8.51863H12.9087L12.9023 8.51753L12.8962 8.51643L12.89 8.51533H12.8872H12.8841H12.8812H12.8784H12.8755H12.8727H12.8696L12.8637 8.51423H12.8579H12.8551H12.8524H12.8496H12.8472H12.8445H12.8423H12.8397H12.8373H12.8349H12.832H12.8296H12.8267H12.8245H12.8219H12.8199H12.8173H12.8162H12.8142H12.8118H12.8096H12.8052H12.803H12.7795H12.777H12.7729H12.7707H12.7663H12.7641H12.7614H12.7592H12.7551H12.7522H12.7504H12.7474H12.7456H12.7419L12.7359 8.51313H12.7311L12.7282 8.4837ZM10.9561 8.29438L10.8802 8.44637C11.164 8.46174 11.4465 8.48436 11.7197 8.51357L11.8639 8.36708C11.8037 8.36049 11.7432 8.35456 11.6821 8.34863H11.6755H11.6692H11.6661H11.6144H11.6111H11.6076H11.6008H11.594H11.5872C11.3811 8.33018 11.1712 8.31511 10.9574 8.30338L10.9561 8.29438Z" fill="#FF922E"/>
<path d="M9.92416 8.0102C10.8409 8.00788 11.7567 8.0688 12.6651 8.1925C13.5035 8.30935 14.2566 8.47649 14.9033 8.68953C15.55 8.90258 16.0575 9.15077 16.4123 9.42685C16.7794 9.71237 16.9656 10.0166 16.9656 10.3295C16.9656 10.6425 16.7803 10.9465 16.4123 11.232C16.0575 11.5081 15.55 11.7563 14.9033 11.9691C14.2566 12.1819 13.5035 12.3495 12.6651 12.4664C11.7567 12.5899 10.8409 12.6507 9.92416 12.6484C9.00749 12.6507 8.09175 12.5899 7.18346 12.4664C6.34507 12.3495 5.59198 12.1822 4.94527 11.9691C4.29856 11.7561 3.79078 11.5085 3.43732 11.232C3.07022 10.9465 2.88403 10.6423 2.88403 10.3291C2.88403 10.0159 3.07022 9.71237 3.43732 9.42641C3.79188 9.15011 4.29966 8.90214 4.94637 8.68909C5.59307 8.47605 6.34617 8.30891 7.18456 8.19206C8.09283 8.06836 9.00857 8.00746 9.92526 8.00976M9.92526 7.97133C5.97204 7.97133 2.76709 9.02689 2.76709 10.3291C2.76709 11.6313 5.97094 12.6875 9.92416 12.6875C13.8774 12.6875 17.0825 11.6318 17.0825 10.3295C17.0825 9.02733 13.8787 7.97177 9.92416 7.97177L9.92526 7.97133Z" fill="#F7FAF6"/>
<path d="M9.9242 8.15208C10.7849 8.14991 11.6446 8.20708 12.4974 8.32318C13.2846 8.43299 13.9922 8.58981 14.5986 8.7899C15.2051 8.98999 15.6826 9.2228 16.0154 9.48197C16.3603 9.75036 16.535 10.0357 16.535 10.3295C16.535 10.6234 16.3592 10.9087 16.0154 11.1771C15.6826 11.4365 15.2058 11.6693 14.5986 11.8694C13.9915 12.0695 13.2852 12.2263 12.4974 12.3361C11.6446 12.4522 10.7849 12.5094 9.9242 12.5072C9.06398 12.5093 8.20467 12.4521 7.35232 12.3361C6.56515 12.2263 5.85756 12.0692 5.25086 11.8694C4.64416 11.6695 4.16605 11.4365 3.83303 11.1771C3.48835 10.9087 3.3136 10.6236 3.3136 10.3295C3.3136 10.0354 3.48835 9.75036 3.83303 9.48197C4.16605 9.2228 4.64262 8.98977 5.24976 8.7899C5.8569 8.59003 6.56405 8.43277 7.35122 8.32318C8.20392 8.20708 9.06363 8.14991 9.9242 8.15208ZM9.9242 8.11364C6.20927 8.11364 3.19775 9.10573 3.19775 10.3295C3.19775 11.5533 6.20927 12.5456 9.9253 12.5456C13.6413 12.5456 16.6531 11.5536 16.6531 10.3295C16.6531 9.10551 13.6398 8.1132 9.9242 8.1132V8.11364Z" fill="#F7FAF6"/>
<path d="M13.2087 11.1643C13.1388 11.1551 13.0676 11.1675 13.0049 11.1999H11.9986L11.8564 11.3306C11.825 11.3594 11.7419 11.3787 11.6489 11.3787L11.8434 11.201H11.6961L11.5544 11.3304C11.5227 11.3592 11.4396 11.3785 11.3466 11.3785L11.541 11.201H11.3948L11.2532 11.3302C11.2216 11.3589 11.1385 11.3783 11.0455 11.3783L11.2396 11.2012H10.1543H9.41201C9.43927 11.167 9.53335 11.143 9.64085 11.143H10.2031L11.065 10.1433H9.54566C9.14999 10.5588 8.75432 11.028 8.35864 11.4543C8.2927 11.5263 8.45383 11.6148 8.68222 11.6155C10.0831 11.6207 11.4838 11.6104 12.8847 11.6155C12.9647 11.6155 13.0353 11.5983 13.0562 11.5729L13.3309 11.2397C13.3571 11.2081 13.3046 11.174 13.2087 11.1643Z" fill="#FF922E"/>
<path d="M12.0104 9.04402V9.04292H10.4556C10.3101 9.04292 10.1918 9.08183 10.1918 9.13085H10.9651C10.9291 9.16294 10.8376 9.18471 10.7337 9.18558L10.4371 9.18866C10.3035 9.33168 10.17 9.47493 10.0366 9.61841H11.518L11.9376 9.13041H11.9785C12.0462 9.13041 12.1062 9.11414 12.1137 9.09194C12.1212 9.06974 12.0746 9.04864 12.0104 9.04402Z" fill="url(#paint1_linear_0_6848)"/>
<path d="M13.253 9.78243C13.253 9.77804 13.251 9.77387 13.2497 9.76947C13.1677 9.46792 12.3891 9.23862 11.4692 9.23862H8.8087C8.58756 9.23862 8.39104 9.2843 8.31454 9.35261L8.10528 9.51953H7.87315C7.7129 9.51953 7.56167 9.54413 7.46407 9.58542H8.78144L9.12545 9.58718C9.29669 9.58828 9.41869 9.63945 9.39275 9.6926L9.08193 9.97351H8.93553L9.23185 9.70292H9.13886L8.84255 9.97483H8.65526L8.95202 9.70424C8.46226 9.70117 8.06571 9.69787 7.57617 9.6948C7.45813 9.6948 7.34888 9.71544 7.29415 9.74971C7.27417 9.76133 7.25691 9.77714 7.24359 9.79605C7.22732 9.82131 7.29151 9.84503 7.36932 9.84173H7.37196C7.45681 9.83756 7.4933 9.81296 7.49594 9.8112H8.3484C8.3484 9.83317 8.29278 9.85206 8.22442 9.85206H7.77885C7.1616 10.4563 6.72921 10.8916 6.54962 11.0262C6.37003 11.1609 6.52324 11.2164 6.65382 11.2375C6.71389 11.2468 6.77461 11.2513 6.83539 11.2509H7.95998L8.70736 10.5309H8.48754C8.36774 10.5309 8.27058 10.4991 8.27058 10.4596H9.52618C10.0584 10.7062 10.5905 10.9555 11.1227 11.2024C11.6342 11.2024 12.1455 11.1997 12.6571 11.1997L10.8818 10.4134L11.4685 10.4187C12.3478 10.4187 13.1044 10.209 13.2363 9.92278C13.2572 9.87912 13.2631 9.82976 13.253 9.78243ZM8.73659 10.0715H8.56448L8.64845 9.99504H8.82013L8.73659 10.0715ZM8.97532 10.0715H8.84475L8.92806 9.99548H9.05863L8.97532 10.0715ZM9.74468 10.0715C9.57718 10.0715 9.37275 10.0715 9.13139 10.0715L9.21514 9.99592H9.82799L9.74468 10.0715ZM9.23778 9.97505L9.52618 9.71259C9.77502 9.71369 9.98143 9.71413 10.1338 9.71435L9.848 9.97483L9.23778 9.97505ZM10.0384 10.0721H9.89921L9.98297 9.99592H10.1223L10.0384 10.0721ZM10.0054 9.97505L10.2912 9.71457H10.4305L10.1448 9.97483L10.0054 9.97505ZM10.8128 10.026C10.608 10.0578 10.401 10.0732 10.1938 10.0719L10.2775 9.99548C10.434 9.99811 10.5681 9.99723 10.6732 9.99548C10.8693 9.99196 10.959 9.98537 11.0451 9.96978C11.0803 9.96378 11.115 9.95594 11.1493 9.94628C11.039 9.98129 10.9262 10.0079 10.8119 10.0258L10.8128 10.026ZM11.2467 9.87797C11.2113 9.9219 11.0728 9.94386 10.9987 9.95463C10.8992 9.96978 10.8121 9.97176 10.6422 9.97505C10.5081 9.97769 10.3918 9.97681 10.2997 9.97505L10.5842 9.71544C10.6226 9.71325 10.9291 9.69787 11.1227 9.76574C11.148 9.77452 11.2889 9.82394 11.2458 9.87775L11.2467 9.87797Z" fill="#FF922E"/>
<path d="M10.135 9.71433C9.98271 9.71433 9.7763 9.71433 9.52747 9.71257L9.2373 9.97503H9.84994L10.135 9.71433ZM9.33754 9.95173L9.57626 9.73587L10.0355 9.73719L9.80048 9.95173H9.33754Z" fill="white"/>
<path d="M8.8457 10.0713L8.97562 10.0711L9.05959 9.99524H8.92879L8.8457 10.0713Z" fill="white"/>
<path d="M8.56445 10.0717H8.73657L8.8201 9.99547H8.64842L8.56445 10.0717ZM8.69766 10.0183H8.71964L8.68667 10.0484H8.66469L8.69766 10.0183Z" fill="white"/>
<path d="M13.3232 9.78241C13.3224 9.77789 13.3213 9.77343 13.3199 9.76901C13.2788 9.61768 13.066 9.47778 12.7211 9.37543C12.3762 9.27308 11.9333 9.21707 11.4701 9.21707H8.80902C8.55997 9.21707 8.33531 9.26891 8.24958 9.34578L8.14539 9.4288L8.05878 9.49689H7.87347C7.69278 9.49689 7.51891 9.525 7.40878 9.57222L7.32085 9.60934H8.78066L9.12314 9.6111C9.17546 9.6102 9.22755 9.61843 9.27701 9.63547C9.30955 9.64821 9.32647 9.66425 9.32537 9.6805H9.08995L9.07324 9.69587L8.79363 9.95153H8.7556L8.86397 9.85269L9.01785 9.71191L9.05104 9.6816H8.95322L8.26233 9.67699L7.57782 9.67259H7.57012C7.4279 9.67259 7.29821 9.69829 7.23204 9.74002C7.20923 9.75307 7.18955 9.77099 7.17445 9.79251C7.1628 9.81074 7.17643 9.82941 7.21204 9.84391C7.25759 9.85974 7.30562 9.86717 7.35382 9.86587C7.36174 9.86587 7.37009 9.86587 7.378 9.86587H7.38218C7.43399 9.86475 7.48519 9.85449 7.53341 9.83556H7.724L7.71345 9.84588C7.59386 9.96304 7.48132 10.0736 7.3758 10.1775C6.94276 10.6032 6.62996 10.9107 6.48664 11.0183C6.27759 11.1749 6.48312 11.2368 6.62403 11.2599C6.69437 11.2706 6.76543 11.2758 6.83659 11.2755H8.00976L8.02603 11.2599L8.77341 10.5399L8.80506 10.5094H8.48721C8.44287 10.5115 8.39866 10.5029 8.35839 10.4841H9.48958C9.74874 10.6045 10.0119 10.7271 10.2664 10.8457C10.517 10.9625 10.7755 11.0829 11.0305 11.2012H11.1165C10.5863 10.9553 10.056 10.7069 9.52563 10.4611H8.27025C8.27025 10.5006 8.36741 10.5325 8.48721 10.5325H8.70702L7.95964 11.2524H6.83571C6.77493 11.2528 6.71422 11.2483 6.65414 11.239C6.52357 11.2171 6.36838 11.1637 6.54995 11.0277C6.73152 10.8918 7.16192 10.4578 7.77917 9.85357H8.22386C8.29223 9.85357 8.34784 9.83512 8.34784 9.81272H7.49539C7.49275 9.81448 7.45626 9.83908 7.37141 9.84325H7.35404C7.28304 9.84325 7.22809 9.82129 7.24413 9.79735C7.25745 9.77846 7.27471 9.76264 7.29469 9.751C7.34855 9.71718 7.45494 9.69609 7.57056 9.69609H7.57672C8.06625 9.69917 8.46281 9.70246 8.95256 9.70554L8.65581 9.97613H8.84309L9.13941 9.70554H9.23239L8.93608 9.97613H9.08247L9.39308 9.69456C9.41902 9.64141 9.29702 9.59023 9.12578 9.58913L8.78176 9.58738H7.46439C7.56199 9.54564 7.71323 9.52149 7.87347 9.52149H8.1056L8.31487 9.35456C8.39049 9.28626 8.58788 9.24057 8.80902 9.24057H11.4701C12.3894 9.24057 13.168 9.46987 13.2507 9.77143C13.252 9.77582 13.2531 9.77999 13.254 9.78439C13.2636 9.83163 13.2574 9.8807 13.2364 9.92407C13.1045 10.2096 12.3477 10.42 11.4686 10.42L10.8819 10.4147L12.6572 11.201H12.7451L12.7141 11.1874L11.6809 10.7299L11.0246 10.4391L11.4668 10.4431H11.4686C11.9115 10.4431 12.3411 10.3912 12.6776 10.297C13.0141 10.2028 13.2392 10.071 13.3054 9.92737C13.3271 9.88232 13.3333 9.83139 13.3232 9.78241ZM9.32471 9.68885L9.29328 9.71652L9.29812 9.71191L9.32471 9.68775V9.68885Z" fill="white"/>
<path d="M9.13086 10.0709H9.32364H9.74415L9.82746 9.9948H9.21461L9.13086 10.0709ZM9.26275 10.0183H9.72657L9.69403 10.048H9.23022L9.26275 10.0183Z" fill="white"/>
<path d="M11.1484 9.94606C11.1141 9.95573 11.0794 9.96358 11.0442 9.96958C10.9563 9.98519 10.8684 9.99156 10.6723 9.9953C10.6149 9.9953 10.5488 9.99684 10.4745 9.99684C10.4131 9.99684 10.3467 9.99684 10.2766 9.9953L10.1929 10.0718C10.4001 10.0731 10.6071 10.0577 10.8119 10.0259C10.9259 10.0078 11.0384 9.98114 11.1484 9.94606ZM10.2955 10.0472L10.3261 10.019C10.3762 10.019 10.4265 10.0201 10.4762 10.0201C10.5422 10.0201 10.6107 10.0201 10.6771 10.0184H10.6967C10.5636 10.0355 10.4297 10.0451 10.2955 10.0472Z" fill="white"/>
<path d="M10.6413 9.97503C10.8112 9.97173 10.8983 9.96975 10.9979 9.95459C11.0719 9.94316 11.2104 9.92205 11.2458 9.87787C11.2898 9.82401 11.148 9.77456 11.1218 9.76554C10.9939 9.72158 10.8165 9.71213 10.6998 9.71213C10.6402 9.71213 10.5962 9.71433 10.5833 9.7152L10.2988 9.97503C10.3492 9.97503 10.4065 9.97657 10.4701 9.97657C10.523 9.97657 10.5813 9.97613 10.6413 9.97503ZM10.6347 9.73631C10.6525 9.73631 10.6747 9.73631 10.7007 9.73631C10.8106 9.73631 10.9629 9.74444 11.0715 9.78247C11.1137 9.7972 11.2087 9.83567 11.1788 9.87303C11.1519 9.90689 11.0376 9.92425 10.9693 9.93458C10.8831 9.94777 10.8099 9.94953 10.638 9.95305C10.5826 9.95415 10.5263 9.95459 10.4709 9.95459H10.3982L10.6347 9.73631Z" fill="white"/>
<path d="M10.429 9.71457H10.2897L10.0039 9.97527H10.1433L10.429 9.71457Z" fill="white"/>
<path d="M10.0376 10.072L10.1216 9.99524H9.98219L9.89844 10.0715H10.0376V10.072Z" fill="white"/>
<path d="M6.89988 8.00418C7.90684 7.86655 8.92212 7.79884 9.93843 7.8015V7.06335H9.92436C8.5395 7.06335 7.22257 7.15678 6.02588 7.32582L6.89988 8.00418Z" fill="#F7FAF6"/>
<path d="M14.7399 7.47383L13.7085 8.08639C14.6262 8.25419 15.4211 8.47756 16.0707 8.75013L17.74 8.31898C16.9242 7.97548 15.904 7.68732 14.7399 7.47383Z" fill="white"/>
<path d="M0.273926 11.1712V12.6783C0.585628 13.1129 1.16111 13.5142 1.94257 13.8626V12.2592L0.315911 11.1134C0.301843 11.1325 0.287774 11.1518 0.273926 11.1712Z" fill="#EDE8E8"/>
<path d="M5.59521 14.8641C6.76025 15.0506 8.053 15.1644 9.41874 15.1868V13.5918L5.59521 13.2689V14.8641Z" fill="#EDE8E8"/>
<path d="M14.3564 14.8472C15.5705 14.6469 16.6426 14.3671 17.5091 14.0284V12.5421L14.3564 13.3229V14.8472Z" fill="#EDE8E8"/>
<path d="M19.8407 11.9247C19.8407 11.9212 19.8407 11.9179 19.8407 11.9146V10.2333L19.7118 10.2344L19.5767 11.0809V12.6759C19.7481 12.4347 19.8407 12.1833 19.8407 11.9247Z" fill="#EDE8E8"/>
<path d="M17.7255 10.3315C17.7255 10.5312 17.656 10.7297 17.519 10.9217L19.5768 11.0811C19.7491 10.8395 19.8405 10.5883 19.8405 10.3298C19.8385 10.1387 19.7905 9.95104 19.7007 9.78242L17.6155 9.89861C17.6864 10.032 17.7241 10.1805 17.7255 10.3315Z" fill="white"/>
<path d="M17.5089 12.5421L15.9295 12.0791C15.2291 12.3381 14.394 12.5448 13.4473 12.6928L14.3562 13.3229C15.5613 13.1338 16.6318 12.867 17.5089 12.5421Z" fill="white"/>
<path d="M5.59521 13.2694C6.76025 13.4563 8.05366 13.5699 9.42006 13.5926L9.52996 12.8931C8.525 12.8791 7.52232 12.7937 6.52944 12.6377L5.59521 13.2694Z" fill="white"/>
<path d="M0.273926 11.0831C0.58343 11.5149 1.1532 11.9133 1.92498 12.2599L3.60967 11.861C2.99616 11.5799 2.56883 11.2667 2.34022 10.9304L0.273926 11.0831Z" fill="white"/>
<path d="M0.348633 9.47909L2.43977 9.67259C2.72179 9.34094 3.19858 9.03565 3.85649 8.76484L2.13202 8.30954C1.31517 8.65085 0.701222 9.04729 0.348633 9.47909Z" fill="white"/>
<path d="M6.89988 8.00418C7.90684 7.86655 8.92212 7.79884 9.93843 7.8015V7.06335H9.92436C8.5395 7.06335 7.22257 7.15678 6.02588 7.32582L6.89988 8.00418Z" fill="white"/>
<path d="M20.6098 7.66997L19.1997 7.68183C17.466 6.73103 14.3054 6.09497 10.6927 6.09497C6.90017 6.09497 3.60553 6.79648 1.93755 7.82679L0.777344 7.83645V9.35193C0.777344 9.35522 0.777344 9.35852 0.777344 9.36203C0.777344 11.1661 5.21768 12.6276 10.6938 12.6276C16.1699 12.6276 20.6098 11.1661 20.6098 9.36137C20.6098 9.35786 20.6098 9.35457 20.6098 9.35127V7.66997Z" fill="url(#paint2_linear_0_6848)"/>
<path d="M10.6938 11.0326C16.1703 11.0326 20.6098 9.57015 20.6098 7.76616C20.6098 5.96217 16.1703 4.49976 10.6938 4.49976C5.21737 4.49976 0.777832 5.96217 0.777832 7.76616C0.777832 9.57015 5.21737 11.0326 10.6938 11.0326Z" fill="#FF922E"/>
<path d="M10.694 9.77298C14.0588 9.77298 16.7865 8.8745 16.7865 7.76618C16.7865 6.65784 14.0588 5.75938 10.694 5.75938C7.32927 5.75938 4.60156 6.65784 4.60156 7.76618C4.60156 8.8745 7.32927 9.77298 10.694 9.77298Z" fill="white"/>
<path d="M10.7 5.7027H10.4175C10.1977 5.70577 9.98127 5.71267 9.7682 5.72335L9.83722 5.87555C10.1208 5.86172 10.411 5.85469 10.7 5.85469V5.70094V5.7027ZM8.85727 5.79341L8.83529 5.79583H8.8287H8.8243H8.82166H8.81771H8.80782H8.80408H8.80078H8.79704H8.79595H8.79199H8.78188H8.77924H8.74802H8.74561H8.73484H8.73198H8.72428H8.72165H8.71285H8.70978H8.7067H8.70274H8.69659H8.69021H8.68648H8.68318H8.67988H8.6768H8.67351H8.66889H8.66537H8.66208H8.65878H8.65196H8.64515H8.63834H8.63152H8.62471C8.4068 5.82086 8.19474 5.85016 7.98855 5.88368L8.19122 6.02249C8.45039 5.98142 8.72121 5.94649 8.99576 5.91882L8.85837 5.77145L8.85727 5.79341ZM7.1783 6.05939C6.92925 6.11539 6.69316 6.17689 6.47159 6.24366L6.46631 6.24542L6.46125 6.24695H6.45862H6.45642H6.454H6.45202H6.44982L6.76724 6.35985C6.97871 6.29549 7.20688 6.23597 7.44384 6.1826L7.18006 6.05521L7.1783 6.05939ZM5.81059 6.47669C5.62922 6.54974 5.45264 6.63419 5.28193 6.72949L5.68595 6.8068C5.84403 6.71851 6.00746 6.64008 6.17527 6.57201L5.81125 6.47625L5.81059 6.47669ZM4.87373 7.00711C4.788 7.07726 4.70963 7.15593 4.63984 7.2419L4.63808 7.24431L4.63632 7.24651L4.63456 7.24871L4.6328 7.2509L4.63127 7.2531L4.62951 7.2553L4.62775 7.25727V7.25837V7.25947V7.26079V7.26232L4.62621 7.26474L4.62335 7.26869L5.07882 7.3034C5.15217 7.20197 5.23856 7.11062 5.33578 7.03171L4.9012 6.97504L4.87373 7.00711ZM4.45453 7.60495C4.44796 7.63252 4.4431 7.66048 4.44002 7.68863C4.43991 7.68945 4.43991 7.69026 4.44002 7.69105V7.69347V7.69566V7.6972V7.69852V7.69984V7.70313V7.7341V7.73981V7.74223V7.74332V7.74442V7.74684V7.74794V7.74903V7.75013V7.76177V7.76419V7.76529V7.76639V7.76858V7.76968V7.77078V7.77188V7.77297V7.77407V7.77627V7.77846C4.44013 7.77965 4.44013 7.78082 4.44002 7.78198V7.78418C4.44117 7.80941 4.44374 7.83458 4.44772 7.85951V7.86061C4.44772 7.86061 4.44772 7.86215 4.44772 7.8628V7.8639V7.86588V7.87093V7.87313C4.44904 7.88016 4.45036 7.88696 4.45189 7.89399L4.91835 7.88323C4.90872 7.83878 4.90386 7.79342 4.90384 7.74794C4.90393 7.69751 4.90982 7.64723 4.92143 7.59815L4.45541 7.58628L4.45453 7.60495ZM5.04189 8.18325L4.58554 8.21686C4.63109 8.2834 4.68259 8.34567 4.73942 8.40289L4.74161 8.40508L4.74381 8.40728L4.74601 8.40969V8.41079V8.41189L4.74711 8.41299L4.74821 8.41409V8.41518L4.74931 8.41628L4.75041 8.41738H4.75151V8.41848L4.75349 8.42046L4.75568 8.42243L4.75788 8.42463L4.76008 8.42683L4.7647 8.43144C4.78404 8.44923 4.80404 8.46702 4.82493 8.48459L5.26083 8.42902C5.1654 8.34993 5.0811 8.25832 5.01023 8.15668L5.04189 8.18325ZM5.66397 8.71257L5.25819 8.789L5.28391 8.80372L5.28742 8.80569L5.29094 8.80745H5.2927H5.29424H5.29578H5.2971H5.29863H5.30017H5.30127H5.30237H5.30369H5.30501L5.30721 8.80855L5.3105 8.81031L5.3138 8.81206C5.40056 8.85951 5.4928 8.90578 5.59055 8.95087L5.59473 8.95285L5.59869 8.95461L5.6011 8.95571H5.6022L5.60462 8.9568H5.60572H5.6077L5.61122 8.95834H5.61297H5.61429H5.61561H5.61693H5.61825H5.61935H5.62111H5.62243H5.62441H5.62594H5.6277L5.63166 8.9601L5.63584 8.96186L5.64001 8.96361C5.67782 8.9803 5.71607 8.997 5.7552 9.01325L6.14757 8.9478C5.98159 8.87932 5.82007 8.80045 5.66397 8.71169V8.71257ZM6.73273 9.15843L6.41267 9.27066L6.49577 9.29592L6.50104 9.29746L6.50632 9.29899H6.50895H6.51159H6.51423H6.51665H6.51907L6.5239 9.30031H6.52632H6.52874H6.53116H6.53335H6.53577H6.53775H6.54017H6.54237H6.54479H6.54698H6.54896H6.55116H6.55292H6.5549H6.55666H6.55863H6.56039H6.56237H6.56347H6.56501H6.56633H6.56787H6.56897H6.57094H6.57248H6.57358H6.57556H6.5771H6.5793H6.58062H6.58215H6.58369H6.58479H6.58633H6.58765H6.58919H6.59029H6.59183H6.59336H6.59446H6.59578H6.59754H6.59886H6.59996H6.60128H6.60304H6.60436H6.60546H6.60743H6.60875H6.60985H6.61183H6.61315H6.61535H6.61689H6.61908H6.62128H6.62238H6.6237H6.62612H6.62766H6.63007H6.63161H6.63403H6.63557H6.63843L6.64326 9.30163L6.64832 9.30295H6.65118H6.65294H6.65601H6.65755H6.66063L6.66569 9.30427L6.67052 9.30558H6.67338H6.67514H6.67799H6.67975H6.68261L6.68745 9.3069L6.6925 9.30822H6.69558H6.69712H6.70064H6.7024H6.70569L6.71097 9.30976L6.71602 9.31107L6.7213 9.31239L6.73031 9.31481L6.73559 9.31634L6.74086 9.31788L6.74614 9.3192L6.75537 9.32162L6.76087 9.32315L6.76614 9.32447L6.77142 9.32579L6.78043 9.32821L6.78571 9.32952L6.79098 9.33084L6.79626 9.33238L6.80153 9.3337H6.80527L6.81077 9.33501L6.81604 9.33633L6.82132 9.33765H6.82461H6.82637H6.82967H6.83143H6.83473L6.84 9.33897L6.84506 9.34029H6.84813H6.85077H6.85363H6.85539H6.85869L6.86374 9.34138L6.8688 9.3427H6.87187H6.87451H6.87715H6.87869H6.88155H6.8844H6.88704L6.89188 9.34402H6.89452H6.89605H6.89869H6.90001H6.90221H6.95431H6.95563H6.95694H6.95914H6.96156H6.96332H6.96596H6.96794H6.96925H6.97057H6.97299H6.97409H6.97541H6.97673H6.97871H6.98112H6.98266H6.98442H6.98574H6.98706H6.98904H6.99036H6.99168H6.99365H6.99497H6.99827H6.99981H7.00157H7.00267H7.00443H7.00574H7.0075H7.0097H7.01168H7.01388H7.01498H7.01652H7.02025H7.02245H7.02421H7.02663H7.02839H7.0297H7.03146H7.03388H7.03564H7.03806H7.03982H7.04223H7.04443H7.04685H7.04949H7.05191H7.05432H7.05674H7.05938L7.02663 9.35414L7.06444 9.34402L7.03806 9.35414L7.04949 9.36513L7.05432 9.37611H7.04443L7.04685 9.38709H7.08334L7.39043 9.22673C7.15412 9.17292 7.03718 9.18098 6.82637 9.11597L6.73273 9.15843ZM8.15056 9.48173L7.94481 9.61988C7.98774 9.62691 8.03098 9.63372 8.0745 9.64031H8.08088H8.08681H8.09253H8.09538H8.09912H8.10176H8.11275H8.11451H8.12396H8.1266H8.1288H8.13165H8.13539H8.13825H8.14067H8.14352H8.14726H8.15012H8.15298H8.15627L8.16243 9.6414H8.16858H8.17496C8.37939 9.6707 8.58925 9.69669 8.80452 9.71937L8.94542 9.57244C8.67153 9.54411 8.40159 9.50853 8.1433 9.46679L8.15056 9.48173ZM9.7937 9.65261L9.72116 9.80459H9.77326H9.77985H9.79722H9.80447L9.82645 9.80569C10.0967 9.81799 10.372 9.82458 10.6523 9.82546L10.6558 9.67171C10.3668 9.67171 10.0768 9.66315 9.7937 9.64865V9.65261ZM12.3632 9.59594C12.0879 9.62317 11.8042 9.6436 11.5191 9.65678L11.585 9.8092L11.6729 9.80503H11.6802H11.6872H11.7024H11.7068H11.8417H11.8602H11.867H11.8738H11.8807H11.8877C12.0939 9.79216 12.2964 9.77582 12.4953 9.75605L12.3614 9.60846L12.3632 9.59594ZM13.9219 9.35434C13.6827 9.40705 13.4297 9.45428 13.1699 9.49469L13.3693 9.63394C13.5224 9.61022 13.672 9.58452 13.8181 9.55684L13.8401 9.55245L13.8461 9.55135H13.852H13.8577H13.8614H13.8636H13.8672H13.8689H13.8724H13.8779H13.8834H13.8865H13.8898H13.8927H13.8942H13.9006H13.9028H13.9054H13.9069H13.9102H13.9116H13.9138H13.9177H13.9199H13.9212H13.9228H13.9252H13.9278H13.9294H13.9313H13.9342H13.9357H13.9386H13.9408H13.9428H13.9452H13.9472H13.9496H13.9516H13.954H13.9562H13.9586H13.961H13.9634H13.9661H13.9685H13.9711H13.9733H13.976H13.9782H13.9808H13.9832H13.9859L13.9914 9.55026H13.9942H13.9971H14.0001H14.003H14.0059H14.0087H14.0118L14.0177 9.54894L14.0234 9.54784L14.0294 9.54674L14.0355 9.54542C14.0786 9.53651 14.1213 9.52728 14.1637 9.51775L13.9226 9.3539L13.9219 9.35434ZM15.1968 8.97174C15.015 9.04532 14.815 9.11494 14.6033 9.17863L14.9181 9.2924C15.1485 9.22344 15.363 9.14876 15.5602 9.06904L15.1975 8.9713L15.1968 8.97174ZM16.075 8.48305C15.9548 8.57914 15.8265 8.66454 15.6914 8.73827L16.0937 8.81668C16.1174 8.8035 16.1407 8.79032 16.1636 8.77692L16.1658 8.7756H16.1669L16.1689 8.77451H16.1702H16.1715H16.1728H16.1744H16.1757H16.1772H16.1788H16.1803H16.1818H16.1834H16.1849H16.1865L16.1882 8.77341L16.2087 8.75013L16.2122 8.74815C16.2689 8.7136 16.3226 8.67853 16.3733 8.64295L16.3764 8.64075L16.3792 8.63855L16.3821 8.63636L16.385 8.63416L16.3865 8.63306H16.3878H16.3891H16.3905L16.3918 8.63196H16.3931H16.3944H16.3955H16.3968H16.3981H16.3992H16.4006H16.4017L16.4041 8.62999L16.4067 8.62801L16.4094 8.62603C16.4342 8.60737 16.4584 8.5887 16.4815 8.56981L16.0482 8.51182L16.075 8.48305ZM16.4755 7.93111C16.4478 8.03252 16.4013 8.12779 16.3384 8.21202L16.7929 8.24782C16.8155 8.21701 16.8364 8.18496 16.8554 8.15184L16.8567 8.14965V8.14833V8.14701V8.14591V8.14438V8.14328V8.14218V8.13998C16.8568 8.13935 16.8568 8.13867 16.8567 8.13801V8.13581V8.13361L16.8578 8.13142C16.883 8.08196 16.9032 8.03008 16.918 7.97657V7.97548V7.97416V7.97306V7.97174V7.97064V7.96955L16.4522 7.95659L16.4755 7.93111ZM16.8242 7.33107L16.3669 7.36336C16.4243 7.44886 16.4643 7.54473 16.4848 7.64559L16.9512 7.63592C16.9473 7.61396 16.9424 7.59375 16.9365 7.57289V7.57047V7.56806V7.56696V7.56586V7.56476V7.56366V7.55466V7.54302V7.54192V7.5406V7.53928V7.53775V7.53621V7.53467V7.53225C16.9364 7.53146 16.9364 7.53065 16.9365 7.52984V7.52742V7.52501C16.9365 7.52501 16.9365 7.52347 16.9365 7.52259C16.9364 7.5218 16.9364 7.52099 16.9365 7.52017C16.9129 7.46101 16.8835 7.40434 16.8486 7.35106L16.8242 7.33107ZM16.1647 6.75716L15.7572 6.8325C15.8867 6.90715 16.009 6.99356 16.1227 7.09057L16.5604 7.03698L16.5296 7.01084L16.5281 7.00952L16.5263 7.00821L16.525 7.00711H16.5239H16.5228H16.5215L16.5204 7.00601H16.519H16.5179H16.5166L16.5153 7.00491L16.5127 7.00294L16.5098 7.00074C16.4072 6.92011 16.2991 6.84673 16.1862 6.7811L16.1647 6.75716ZM15.0216 6.27265L14.6989 6.38401C14.9073 6.4499 15.1025 6.52062 15.279 6.59529L15.6481 6.50085C15.5614 6.46411 15.471 6.42837 15.3769 6.39367L15.372 6.39191L15.3676 6.39038L15.3632 6.38884H15.361H15.3591H15.3569H15.3551H15.3529H15.3514H15.3494H15.3476H15.3459H15.3441H15.3426H15.3406H15.3388H15.3377H15.3362H15.3349H15.3329H15.3316H15.3294L15.3252 6.3873L15.3208 6.38576H15.3177H15.3162H15.3131L15.3085 6.38423L15.3039 6.38247C15.218 6.35216 15.1295 6.32288 15.0383 6.29461L15.0216 6.27265ZM13.4976 5.91948L13.2886 6.05741C13.5456 6.09958 13.7953 6.14878 14.0307 6.20325L14.2998 6.0774C14.1727 6.04812 14.0423 6.02023 13.9085 5.99372L13.9023 5.9924L13.8962 5.9913L13.8742 5.98691L13.868 5.98581L13.8617 5.98449H13.8586L13.8458 5.98207L13.8397 5.98098L13.8335 5.97966L13.8115 5.97549H13.8052L13.7988 5.97417L13.7924 5.97307L13.783 5.97131L13.7766 5.97L13.7702 5.9689H13.7638H13.7575L13.7478 5.96714H13.7416L13.7355 5.96604L13.7293 5.96494L13.723 5.96385H13.7166H13.7135L13.7073 5.96275L13.7014 5.96165H13.6953L13.6889 5.96055H13.6827H13.6797L13.6735 5.95945L13.6671 5.95835H13.661H13.6579H13.655H13.652H13.6489H13.646H13.6432H13.6403L13.6346 5.95726H13.6287H13.6256H13.6229H13.6201H13.6177H13.6148H13.6124H13.6095H13.6073H13.6047H13.6021H13.5996H13.597H13.5948H13.5922H13.5902H13.5875H13.5853H13.5827H13.5816H13.5796H13.5752H13.573H13.5686H13.5662H13.5623H13.5598H13.5555H13.5533H13.5506H13.5484H13.5269H13.5238H13.5205H13.5174H13.5154H13.5117L13.5058 5.95616H13.5009L13.4976 5.91948ZM11.7257 5.73037L11.6496 5.88236C11.9334 5.89774 12.2159 5.92036 12.4891 5.94957L12.6333 5.80307C12.5731 5.79648 12.5126 5.79033 12.4517 5.78462H12.4454H12.4392H12.4361H12.3838H12.3807H12.377H12.3702H12.3634H12.3563C12.1512 5.76617 11.9413 5.75111 11.7268 5.73938L11.7257 5.73037Z" fill="#FF922E"/>
<path d="M10.694 5.44682C11.6107 5.44452 12.5265 5.50542 13.4347 5.62912C14.2731 5.74596 15.0262 5.91311 15.6729 6.12615C16.3196 6.3392 16.8274 6.58738 17.182 6.86346C17.5491 7.14899 17.7353 7.45318 17.7353 7.76616C17.7353 8.07914 17.5491 8.38311 17.182 8.66908C16.8274 8.94516 16.3196 9.19335 15.6729 9.40617C15.0262 9.619 14.2731 9.78658 13.4347 9.90342C12.5264 10.0269 11.6107 10.0878 10.694 10.0855C9.7773 10.0878 8.86149 10.0269 7.95311 9.90342C7.11473 9.78658 6.36163 9.61922 5.71492 9.40617C5.06822 9.19313 4.56066 8.94494 4.20587 8.66908C3.83877 8.38355 3.65259 8.07936 3.65259 7.76616C3.65259 7.45296 3.83877 7.14943 4.20587 6.86346C4.56066 6.58716 5.06822 6.3392 5.71492 6.12615C6.36163 5.91311 7.11473 5.74596 7.95311 5.62912C8.86147 5.50542 9.77728 5.44452 10.694 5.44682ZM10.694 5.40839C6.7406 5.40839 3.53564 6.46395 3.53564 7.76616C3.53564 9.06837 6.7406 10.1242 10.694 10.1242C14.6475 10.1242 17.8522 9.06837 17.8522 7.76616C17.8522 6.46395 14.6481 5.40839 10.694 5.40839Z" fill="#F7FAF6"/>
<path d="M10.6938 5.5887C11.554 5.58662 12.4133 5.64377 13.2657 5.7598C14.0528 5.86962 14.7604 6.02644 15.3671 6.22652C15.9738 6.42661 16.4508 6.65942 16.7839 6.91859C17.1285 7.18698 17.3033 7.47229 17.3033 7.76616C17.3033 8.06003 17.1274 8.34534 16.7839 8.61373C16.4508 8.87312 15.9743 9.10593 15.3671 9.30602C14.76 9.5061 14.0528 9.66292 13.2657 9.77274C12.4133 9.88866 11.554 9.94583 10.6938 9.94384C9.83315 9.94588 8.97339 9.88871 8.12061 9.77274C7.33344 9.66292 6.62584 9.50588 6.01936 9.30602C5.41288 9.10615 4.93544 8.87312 4.60219 8.61373C4.25752 8.34534 4.08276 8.06025 4.08276 7.76616C4.08276 7.47207 4.25862 7.18698 4.60219 6.91859C4.93522 6.65942 5.41201 6.42639 6.01914 6.22652C6.62628 6.02666 7.33322 5.8694 8.12039 5.7598C8.97315 5.64372 9.83293 5.58655 10.6936 5.5887M10.6936 5.55005C6.97865 5.55005 3.96582 6.54236 3.96582 7.76616C3.96582 8.98996 6.97733 9.98227 10.6936 9.98227C14.4098 9.98227 17.42 8.99018 17.42 7.76616C17.42 6.54214 14.4085 5.55005 10.6936 5.55005Z" fill="#F7FAF6"/>
<path d="M13.9787 8.60099C13.9088 8.59172 13.8376 8.60415 13.775 8.63657H12.7684L12.626 8.76725C12.5943 8.79603 12.5112 8.81535 12.4182 8.81535L12.613 8.63767H12.4655L12.3237 8.76703C12.2921 8.79581 12.2092 8.81513 12.116 8.81513L12.3103 8.63767H12.1644L12.0228 8.76681C11.9911 8.79559 11.9083 8.81491 11.8153 8.81491L12.0092 8.63767L10.9239 8.63877H10.1818C10.2093 8.60451 10.3032 8.58056 10.4106 8.58056H10.9732L11.8346 7.57991H10.3157C9.92001 7.99546 9.52434 8.46438 9.12867 8.89091C9.06272 8.96295 9.22385 9.05146 9.45202 9.05212C10.8529 9.05739 12.2538 9.04707 13.6547 9.05212C13.7345 9.05212 13.8051 9.03499 13.826 9.00951L14.1007 8.67633C14.1269 8.6447 14.0744 8.61066 13.9787 8.60099Z" fill="#FF922E"/>
<path d="M12.7794 6.48064H11.2231C11.0776 6.48064 10.9593 6.51954 10.9593 6.56856H11.7324C11.6962 6.60066 11.6047 6.62242 11.501 6.6233L11.2042 6.62638C11.0709 6.76957 10.9374 6.91273 10.8037 7.0559H12.2851L12.7047 6.56812H12.7456C12.8133 6.56812 12.8733 6.55164 12.8808 6.52944C12.8882 6.50723 12.8438 6.48525 12.7794 6.48064Z" fill="url(#paint3_linear_0_6848)"/>
<path d="M14.0225 7.21993C14.0225 7.21554 14.0205 7.21137 14.0194 7.20697C13.9372 6.90542 13.1586 6.67612 12.2389 6.67612H9.57845C9.35731 6.67612 9.15969 6.7218 9.08429 6.79011L8.87481 6.95703H8.6429C8.48265 6.95703 8.33142 6.98141 8.2336 7.02292H9.55097L9.89498 7.02468C10.0662 7.02468 10.1882 7.07695 10.1623 7.1301L9.85146 7.41145H9.70506L10.0014 7.14086H9.90839L9.61208 7.41145H9.42501L9.72155 7.14086C9.23201 7.13779 8.83524 7.13449 8.3457 7.13142C8.22766 7.13142 8.11841 7.15207 8.06368 7.18633C8.04359 7.1979 8.02624 7.21372 8.0129 7.23267C7.99685 7.25793 8.06082 7.28165 8.13864 7.27835H8.14127C8.22612 7.27418 8.26261 7.24958 8.26525 7.24783H9.11771C9.11771 7.26979 9.06231 7.28868 8.99373 7.28868H8.54838C7.93113 7.89355 7.49874 8.32843 7.31915 8.46306C7.13956 8.5977 7.29277 8.65327 7.42335 8.67435C7.48342 8.68362 7.54414 8.6881 7.60492 8.68775H8.72951L9.47689 7.96779H9.25707C9.13727 7.96779 9.04011 7.93594 9.04011 7.89641H10.2955C10.8277 8.14306 11.3596 8.39234 11.8918 8.63921C12.4033 8.63921 12.9148 8.63657 13.4261 8.63657L11.6507 7.84962L12.2374 7.8549C13.1166 7.8549 13.8733 7.64514 14.0051 7.35896C14.026 7.31576 14.0321 7.26693 14.0225 7.21993ZM9.50613 7.50809H9.33401L9.41798 7.43166H9.58966L9.50613 7.50809ZM9.74485 7.50809H9.61406L9.69737 7.4321H9.82794L9.74485 7.50809ZM10.5142 7.50809C10.3469 7.50809 10.1424 7.50809 9.90092 7.50809L9.98467 7.43254H10.5966L10.5142 7.50809ZM10.0073 7.41167L10.2975 7.14943C10.5465 7.14943 10.7527 7.15097 10.9053 7.15119L10.6195 7.41167H10.0073ZM10.8079 7.50875H10.6687L10.7525 7.43254H10.8921L10.8079 7.50875ZM10.7749 7.41167L11.0607 7.15119H11.2L10.9143 7.41145L10.7749 7.41167ZM11.5823 7.46263C11.3775 7.49445 11.1705 7.50981 10.9633 7.50853L11.0471 7.4321C11.2036 7.43473 11.3377 7.43386 11.4427 7.4321C11.6388 7.42858 11.7285 7.422 11.8149 7.4064C11.85 7.40036 11.8848 7.39252 11.9191 7.3829C11.8087 7.41778 11.6958 7.44435 11.5814 7.46241L11.5823 7.46263ZM12.0162 7.31459C11.9808 7.35852 11.8424 7.38048 11.7683 7.39125C11.6687 7.40618 11.5819 7.40816 11.4117 7.41167C11.2776 7.41431 11.1614 7.41343 11.0695 7.41167L11.3537 7.15207C11.3922 7.14987 11.6988 7.13449 11.8923 7.20236C11.9175 7.21115 12.0584 7.26056 12.0154 7.31437L12.0162 7.31459Z" fill="#FF922E"/>
<path d="M10.9048 7.15097C10.7522 7.15097 10.5461 7.15097 10.297 7.14922L10.0068 7.41168H10.6195L10.9048 7.15097ZM10.1071 7.3886L10.3458 7.17274L10.805 7.17406L10.5702 7.3886H10.1071Z" fill="white"/>
<path d="M9.61523 7.50794L9.74515 7.50772L9.82912 7.43188H9.69855L9.61523 7.50794Z" fill="white"/>
<path d="M9.33398 7.50841H9.5061L9.58963 7.43213H9.41795L9.33398 7.50841ZM9.46719 7.45499H9.48918L9.45598 7.48511H9.434L9.46719 7.45499Z" fill="white"/>
<path d="M14.0926 7.2184C14.0926 7.21379 14.0906 7.20939 14.0895 7.205C14.0482 7.05367 13.8354 6.91377 13.4905 6.81142C13.1456 6.70907 12.7027 6.65306 12.2397 6.65306H9.57863C9.32935 6.65306 9.1047 6.70489 9.01897 6.78177L8.91499 6.86479L8.82816 6.93397H8.64308C8.46217 6.93397 8.28851 6.96209 8.17816 7.00931L8.09133 7.04643H9.55115L9.89384 7.04818C9.94616 7.04717 9.99826 7.05543 10.0477 7.07256C10.08 7.0853 10.097 7.10133 10.0959 7.11649H9.85933L9.84263 7.13186L9.56302 7.3884H9.52499L9.63358 7.28956L9.78745 7.14878L9.82065 7.11847H9.72283L9.03194 7.11385L8.34698 7.10924H8.33929C8.19685 7.10924 8.06715 7.13494 8.00099 7.17645C7.97824 7.18969 7.95859 7.20768 7.9434 7.22916C7.93175 7.24739 7.94559 7.26606 7.9812 7.28056C8.02666 7.29637 8.07463 7.30382 8.12277 7.30252C8.1309 7.30252 8.13903 7.30252 8.14695 7.30252H8.15112C8.203 7.30142 8.25428 7.29116 8.30258 7.27221H8.49316L8.48261 7.28253C8.36288 7.39966 8.25026 7.51023 8.14475 7.61418C7.71193 8.03983 7.39891 8.34732 7.25558 8.45494C7.04676 8.61154 7.25207 8.67326 7.39297 8.69654C7.46331 8.70721 7.53438 8.71244 7.60554 8.71213H8.78046L8.79651 8.69654L9.54389 7.97658L9.57555 7.94605H9.25681C9.21239 7.94809 9.16814 7.93944 9.12778 7.92079H10.259C10.5181 8.04093 10.7813 8.16371 11.036 8.28231C11.2864 8.39915 11.5449 8.51951 11.7999 8.6379H11.8861C11.3556 8.39191 10.8254 8.1435 10.2952 7.89773H9.03985C9.03985 7.93726 9.13701 7.96911 9.25681 7.96911H9.47663L8.72925 8.68907H7.6051C7.54432 8.68942 7.4836 8.68494 7.42353 8.67567C7.29295 8.65371 7.13776 8.60034 7.31933 8.46439C7.5009 8.32843 7.93131 7.89334 8.54856 7.29022H8.99325C9.06183 7.29022 9.11723 7.27177 9.11723 7.24937H8.26477C8.26213 7.25113 8.22564 7.27572 8.14079 7.2799H8.12343C8.05265 7.2799 7.99747 7.25793 8.01352 7.23399C8.02686 7.21504 8.0442 7.19923 8.0643 7.18765C8.11815 7.15383 8.22454 7.13274 8.34039 7.13274H8.34632C8.83586 7.13582 9.23263 7.13911 9.72217 7.14219L9.42519 7.41146H9.61226L9.90857 7.14087H10.0016L9.70524 7.41146H9.85164L10.1625 7.13055C10.1884 7.07739 10.0664 7.02622 9.89516 7.02512L9.55115 7.02336H8.23378C8.3316 6.98141 8.48283 6.95747 8.64308 6.95747H8.87499L9.08447 6.79055C9.15987 6.72225 9.35749 6.67656 9.57863 6.67656H12.2397C13.1588 6.67656 13.9374 6.90586 14.0203 7.20742C14.0214 7.21181 14.0225 7.21598 14.0234 7.22038C14.033 7.26758 14.027 7.31666 14.006 7.36006C13.8741 7.64559 13.117 7.856 12.2382 7.856L11.6509 7.84963L13.4259 8.63592H13.5138L13.483 8.62274L12.4499 8.16546L11.7933 7.87467L12.2356 7.87862H12.2375C12.6803 7.87862 13.1098 7.82679 13.4465 7.73256C13.7833 7.63834 14.008 7.50656 14.0741 7.36292C14.096 7.31809 14.1025 7.26729 14.0926 7.2184ZM10.0941 7.12484L10.0627 7.15317L10.0677 7.14856L10.0943 7.1244L10.0941 7.12484Z" fill="white"/>
<path d="M9.8999 7.50752H10.0927H10.5132L10.5967 7.43234H9.98387L9.8999 7.50752ZM10.0329 7.45498H10.4967L10.464 7.48466H10.0001L10.0329 7.45498Z" fill="white"/>
<path d="M11.9182 7.38271C11.8839 7.39233 11.8491 7.40018 11.814 7.40623C11.7261 7.42183 11.6381 7.42821 11.4418 7.43195C11.3845 7.43195 11.3183 7.43348 11.244 7.43348C11.1829 7.43348 11.1165 7.43348 11.0462 7.43195L10.9624 7.50844C11.1696 7.50972 11.3766 7.49435 11.5814 7.4625C11.6955 7.44432 11.8081 7.41766 11.9182 7.38271ZM11.0648 7.48382L11.0954 7.45569C11.1455 7.45569 11.1958 7.45679 11.2455 7.45679C11.3115 7.45679 11.3801 7.45678 11.4464 7.45503H11.4662C11.3331 7.47215 11.1991 7.48176 11.0648 7.48382Z" fill="white"/>
<path d="M11.4111 7.41168C11.5812 7.40816 11.6681 7.40618 11.7677 7.39123C11.8417 7.3798 11.9802 7.3587 12.0156 7.31452C12.0596 7.26066 11.9178 7.2112 11.8916 7.20219C11.7637 7.15823 11.5863 7.14877 11.4698 7.14877C11.41 7.14877 11.3663 7.15097 11.3531 7.15185L11.0688 7.41168C11.119 7.41168 11.1763 7.41322 11.2399 7.41322C11.2928 7.41322 11.3509 7.41278 11.4111 7.41168ZM11.4045 7.17295C11.4223 7.17295 11.4445 7.17185 11.4705 7.17185C11.5804 7.17185 11.7325 7.17999 11.8413 7.21802C11.8835 7.23274 11.9785 7.27121 11.9486 7.30858C11.9215 7.34243 11.8072 7.3598 11.7389 7.37013C11.6529 7.38332 11.5797 7.38508 11.4076 7.3886C11.3522 7.3886 11.2961 7.39013 11.2405 7.39013H11.1678L11.4045 7.17295Z" fill="white"/>
<path d="M11.1986 7.15121H11.0592L10.7734 7.41192H10.913L11.1986 7.15121Z" fill="white"/>
<path d="M10.8071 7.50862L10.8913 7.43234H10.7517L10.668 7.50862H10.8071Z" fill="white"/>
<path d="M7.66919 5.44126C8.67622 5.30363 9.69156 5.23591 10.708 5.23859V4.5H10.6939C9.30903 4.5 7.9921 4.59342 6.79541 4.76246L7.66919 5.44126Z" fill="#F7FAF6"/>
<path d="M15.5096 4.91048L14.478 5.52304C15.3958 5.69062 16.1906 5.91421 16.8402 6.18699L18.5095 5.75585C17.6937 5.41168 16.6736 5.12396 15.5096 4.91048Z" fill="white"/>
<path d="M1.04346 8.6078V10.1149C1.35516 10.5496 1.93064 10.9509 2.71188 11.2992V9.69587L1.08676 8.54938C1.07137 8.56914 1.05731 8.58847 1.04346 8.6078Z" fill="#EDE8E8"/>
<path d="M6.36475 12.3008C7.52978 12.4872 8.82276 12.6008 10.1883 12.6234V11.0284L6.36475 10.7049V12.3008Z" fill="#EDE8E8"/>
<path d="M15.126 12.2838C16.34 12.0835 17.4121 11.8037 18.2786 11.465V9.97876L15.126 10.7596V12.2838Z" fill="#EDE8E8"/>
<path d="M20.6102 9.36137C20.6102 9.35786 20.6102 9.35456 20.6102 9.35127V7.66997L20.4816 7.67107L20.3462 8.51754V10.1119C20.5185 9.87136 20.6102 9.61988 20.6102 9.36137Z" fill="#EDE8E8"/>
<path d="M18.495 7.76794C18.495 7.96759 18.4255 8.16614 18.2886 8.3581L20.3463 8.51756C20.5186 8.27596 20.6101 8.0247 20.6101 7.76619C20.6082 7.57521 20.5604 7.38751 20.4707 7.21886L18.3851 7.33526C18.4559 7.4686 18.4936 7.61699 18.495 7.76794Z" fill="white"/>
<path d="M18.2789 9.97876L16.6995 9.51555C15.9991 9.77472 15.164 9.98139 14.2173 10.1294L15.1262 10.7596C16.3313 10.5705 17.402 10.3036 18.2789 9.97876Z" fill="white"/>
<path d="M6.36475 10.7054C7.52978 10.8923 8.82319 11.0059 10.1896 11.0286L10.2995 10.3291C9.29493 10.3152 8.2926 10.2301 7.30007 10.0743L6.36475 10.7054Z" fill="white"/>
<path d="M1.04346 8.51973C1.35296 8.95131 1.92273 9.34994 2.69451 9.69653L4.3792 9.29767C3.76569 9.01654 3.33858 8.70334 3.10975 8.36708L1.04346 8.51973Z" fill="white"/>
<path d="M1.11816 6.91574L3.20929 7.1088C3.49154 6.77693 3.96811 6.47186 4.62602 6.20105L2.90155 5.74619C2.08471 6.0875 1.47075 6.48394 1.11816 6.91574Z" fill="white"/>
<path d="M7.66919 5.44126C8.67622 5.30363 9.69156 5.23591 10.708 5.23859V4.5H10.6939C9.30903 4.5 7.9921 4.59342 6.79541 4.76246L7.66919 5.44126Z" fill="white"/>
<path d="M28.0043 14.6071C28.0228 14.5834 28.0412 14.5595 28.0593 14.5353L29.0911 13.185L28.8236 13.0194C29.7437 9.97284 27.6392 6.25882 23.8058 4.42026C20.7022 2.9318 17.3473 3.09564 15.2252 4.60387L15.0783 4.51316L14.2962 5.44419C14.2616 5.48404 14.2277 5.52429 14.1944 5.56499L14.181 5.58103C13.941 5.87716 13.7362 6.20013 13.5708 6.54346C12.0541 9.69983 14.1782 13.8665 18.3141 15.85C22.0178 17.6264 26.0789 17.0492 27.9762 14.642L28.0043 14.6071Z" fill="url(#paint4_linear_0_6848)"/>
<path d="M29.24 12.898C30.7563 9.74161 28.6326 5.57494 24.4967 3.59145C20.3607 1.60795 15.7787 2.55875 14.2625 5.71509C12.7463 8.87146 14.8699 13.0381 19.0058 15.0216C23.1418 17.0051 27.7239 16.0543 29.24 12.898Z" fill="#FF922E"/>
<path d="M26.3523 11.513C27.2839 9.57384 25.9791 7.01389 23.4382 5.79525C20.8971 4.57663 18.082 5.16079 17.1504 7.09999C16.2188 9.03921 17.5236 11.5992 20.0646 12.8178C22.6057 14.0364 25.4207 13.4523 26.3523 11.513Z" fill="white"/>
<path d="M17.0223 7.03456V7.03654V7.0383V7.04027V7.04181V7.04357V7.04532V7.0473V7.04884V7.05082V7.05257V7.05433V7.05609V7.05784V7.0596V7.06114V7.0629V7.06443V7.06619V7.06751V7.06948V7.07102V7.073V7.07432V7.07607V7.07739V7.07915V7.08069V7.08222V7.08354V7.08464V7.0864V7.08771V7.08947V7.09057V7.09211V7.09364V7.09474V7.0965V7.09782V7.09914V7.10023V7.10155V7.10287V7.10397V7.10528V7.10682V7.10858V7.11012V7.11121V7.11297V7.11407V7.11627V7.11758L17.0212 7.12V7.12132L17.0197 7.12527L17.0179 7.12923L17.0164 7.13318V7.1345L17.0153 7.13713V7.13845L17.0139 7.14109V7.1424L17.0122 7.1468L17.0104 7.15119C17.0104 7.15251 17.0104 7.15382 17.0087 7.15536C16.9559 7.28451 16.9119 7.41701 16.8768 7.55202L17.2452 7.67985C17.2919 7.50071 17.3557 7.32648 17.4358 7.15953L17.0223 7.03456ZM16.7203 8.19643C16.7203 8.20148 16.7203 8.20675 16.7203 8.2118V8.21642C16.7203 8.21751 16.7203 8.21839 16.7203 8.21949V8.22103V8.22388V8.22542V8.23003V8.23443V8.24058V8.29417V8.299V8.31108V8.31327V8.31547V8.31767V8.31986V8.32228V8.32448V8.32689V8.32909V8.3315V8.33634V8.34117C16.7203 8.34292 16.7203 8.34446 16.7203 8.346V8.35478C16.7204 8.35639 16.7204 8.35801 16.7203 8.35962C16.7176 8.51367 16.7249 8.66774 16.7422 8.82085L17.1159 8.85665C17.0936 8.66486 17.0885 8.47148 17.1008 8.27879L16.7253 8.19621L16.7203 8.19643ZM16.8651 9.45647C16.9257 9.66504 17.0014 9.8689 17.0918 10.0664L17.0937 10.0712L17.0959 10.0758L17.097 10.078V10.08V10.0822V10.084V10.0859L17.4441 10.0273C17.3561 9.8382 17.2826 9.64266 17.2243 9.44241L16.8596 9.45406L16.8651 9.45647ZM17.4417 10.7029C17.5738 10.9068 17.7192 11.1017 17.8769 11.2865L18.1664 11.1389C18.0205 10.9678 17.8859 10.7874 17.7635 10.5988L17.4417 10.7029ZM18.3984 11.8261C18.5478 11.9627 18.7058 12.0938 18.8723 12.2193L18.8771 12.2228L18.8817 12.2263L18.8864 12.2298L18.891 12.2333L18.8956 12.2366L18.9 12.2399L18.9044 12.2432L18.9066 12.245L18.9086 12.2465L18.9105 12.248L18.9123 12.2493L18.9143 12.2507L18.9158 12.2518L18.9178 12.2533L18.9193 12.2544C18.9198 12.255 18.9204 12.2555 18.9211 12.2559L18.9224 12.257L18.9242 12.2583H18.9255L18.9272 12.2597H18.9283L18.9303 12.261H18.9316L18.9332 12.2621L18.9347 12.2632H18.936L18.938 12.2645H18.9393L18.9415 12.266H18.9428L18.9453 12.2676V12.2687L18.9475 12.2704H18.9488L18.9514 12.2724C18.9518 12.2729 18.9524 12.2733 18.953 12.2735L18.956 12.2755L18.9609 12.279L18.9692 12.2851L19.1748 12.0607C18.9917 11.9298 18.8161 11.7886 18.649 11.6379L18.3986 11.8261H18.3984ZM19.654 12.7255C19.7155 12.7598 19.778 12.7932 19.8415 12.8259L19.8467 12.8287L19.8522 12.8314L19.8577 12.834L19.861 12.8358H19.8628L19.8656 12.8371H19.8674L19.8703 12.8384H19.8718L19.8744 12.8397H19.876L19.8784 12.841H19.8799H19.8813H19.8832H19.8846H19.8865H19.8878L19.89 12.8421H19.8911H19.8925H19.8942H19.8958H19.8969H19.8984H19.8999H19.9015H19.9026H19.9041H19.9057H19.9072H19.909H19.9103H19.9118L19.9138 12.8432H19.9151H19.9166L19.9188 12.8443H19.9206L19.9228 12.8454H19.9243L19.9265 12.8465H19.9283H19.9305H19.9323H19.9344L19.9366 12.8476H19.9391L19.9413 12.8487L19.9437 12.8498L19.9459 12.8509L19.9481 12.852L19.9505 12.8531L19.9527 12.8542L19.9551 12.8553L19.9573 12.8564L19.9599 12.8577L19.9621 12.8588L19.9646 12.8601L19.9665 12.8612L19.969 12.8626L19.9712 12.8637L19.9738 12.8648L19.9762 12.8659L19.9786 12.8672L19.9811 12.8685L19.9837 12.8698L19.9861 12.8711L19.9885 12.8722L19.9905 12.8733L19.9929 12.8744H19.9949H19.9969L19.9993 12.8755H20.0013L20.0035 12.8766H20.0055H20.0074H20.0098L20.0118 12.8777L20.014 12.8788L20.0164 12.8801H20.0184L20.0206 12.8812H20.023H20.0252L20.0277 12.8823H20.0301L20.0351 12.8847L20.0375 12.8861L20.0426 12.8885L20.0503 12.8922L20.0556 12.8946C20.1142 12.9217 20.1724 12.9478 20.2303 12.9728H20.233L20.2382 12.975H20.2404L20.2429 12.9761H20.2448H20.2468H20.2488H20.2503H20.2521H20.2538H20.2552L20.2602 12.9783L20.3092 12.9987L20.4137 12.7183C20.3086 12.6743 20.2028 12.6273 20.0995 12.5777C19.9852 12.5228 19.8711 12.4639 19.761 12.402L19.654 12.7255ZM21.1432 13.0236L21.0938 13.3234C21.2504 13.3683 21.4069 13.407 21.5633 13.4393L21.569 13.4406H21.5747L21.5804 13.442H21.5835H21.5862H21.589H21.5917H21.5943H21.5967H21.5994H21.6018H21.6044H21.6066H21.6092H21.6112H21.6136H21.6158H21.618H21.6202H21.6227H21.6266H21.6284H21.6385H21.6398H21.6442H21.6457H21.6499H21.6517H21.6552H21.6576H21.6611H21.6635H21.6651H21.6682L21.6734 13.4431L21.6787 13.4442L21.684 13.4453H21.6895L21.7009 13.4472C21.7472 13.4557 21.7935 13.4638 21.8396 13.4714L21.8363 13.1782C21.6022 13.1403 21.3705 13.0885 21.1426 13.0231L21.1432 13.0236ZM22.5281 13.2471L22.591 13.565C22.6044 13.565 22.618 13.565 22.6314 13.5663H22.6973C22.8303 13.5688 22.9622 13.5665 23.093 13.5595H23.0985H23.104H23.119H23.1236H23.1651H23.1706H23.1761C23.2247 13.5561 23.2733 13.5521 23.3216 13.5476L23.2042 13.2313C22.98 13.2524 22.7545 13.2588 22.5294 13.2507L22.5281 13.2471ZM23.8846 13.2087L24.0158 13.429C24.0429 13.4226 24.0697 13.4158 24.0967 13.409L24.1018 13.4077L24.1066 13.4064H24.1092H24.1117H24.1141H24.1165H24.1189L24.1235 13.4051H24.1257H24.1281H24.1303H24.1323H24.1347H24.1365H24.1387H24.1409H24.1431H24.1451H24.1468H24.149H24.1508H24.1528H24.1541H24.1561H24.1576H24.1596H24.1611H24.1624H24.1638H24.1655H24.1668H24.1686H24.1708H24.1725H24.1736H24.175H24.1765H24.1778H24.1791H24.1805H24.1818H24.1833H24.1851H24.1862H24.1879H24.1901H24.1919H24.193H24.195H24.1978H24.2H24.2013H24.2024H24.2044H24.2064H24.2075H24.2088H24.211H24.2139H24.2161H24.2174H24.2196H24.2209H24.2235L24.2279 13.4037L24.2326 13.4024H24.2354H24.237H24.2396H24.2411H24.2438L24.2482 13.4011L24.2526 13.3998H24.2552H24.2565H24.2592H24.2607H24.2633L24.2677 13.3985L24.2723 13.3969H24.2752H24.2767H24.2798H24.2814H24.2844L24.2891 13.3956L24.2937 13.3943L24.2983 13.3928L24.3064 13.3903L24.3113 13.389L24.3159 13.3877L24.3205 13.3862L24.3286 13.3835L24.3335 13.382L24.3381 13.3805L24.3427 13.3791L24.3506 13.3767L24.3554 13.3752L24.3601 13.3737L24.3647 13.3719L24.3693 13.3704L24.3724 13.3693L24.377 13.3677L24.3816 13.366L24.3862 13.3644H24.3891H24.3906H24.3935H24.395L24.3981 13.3633L24.4027 13.3618L24.4071 13.3603H24.4097H24.4111H24.4135H24.415H24.4179L24.4223 13.3587L24.4267 13.3572H24.4293H24.4306H24.4328H24.4341H24.4366H24.4379H24.4403L24.4445 13.3556H24.4467H24.448H24.4502H24.4515H24.4533H24.4546H24.4563H24.4577H24.4592H24.4609H24.462H24.4634H24.4653H24.4664H24.4682H24.4693H24.4706H24.4722H24.4739H24.4752H24.477H24.4783H24.4796H24.4812H24.4825H24.4845H24.486H24.488H24.4893H24.4911H24.4926H24.4946H24.4961H24.4974H24.4994H24.501H24.5029H24.5045H24.5065H24.508H24.5102H24.5122H24.5144H24.5166H24.5185H24.5207H24.5227H24.5249H24.5269H24.5291L24.5337 13.3539H24.5359H24.5381H24.5403H24.5425H24.5447L24.5493 13.3521L24.5539 13.3502L24.5585 13.3482L24.5731 13.3422L24.3565 13.0497C24.1627 13.1283 24.0881 13.1602 23.8846 13.2087ZM24.9806 12.6603L25.2404 12.9311C25.2683 12.914 25.296 12.8965 25.3231 12.8786L25.327 12.876L25.3308 12.8735L25.3343 12.8711L25.336 12.8698L25.3376 12.8687L25.3389 12.8676L25.3404 12.8665H25.3418H25.3433H25.3446L25.3464 12.8654H25.3479H25.3495H25.3508L25.3525 12.8643H25.3541H25.356L25.3578 12.8632L25.3596 12.8619L25.3635 12.8593L25.3673 12.8566L25.3712 12.854C25.495 12.7695 25.613 12.677 25.7245 12.577L25.4268 12.3354C25.2875 12.4558 25.1384 12.5643 24.9808 12.6596L24.9806 12.6603ZM25.8273 11.9012L26.1571 12.1103L26.1584 12.1086L26.1597 12.1068V12.1057V12.1042L26.161 12.1024V12.1013L26.1623 12.0996V12.0985L26.165 12.0952L26.1676 12.0916L26.1703 12.0881L26.1729 12.0846V12.0835L26.1747 12.0811V12.0798L26.1775 12.0761L26.1859 12.0646C26.2901 11.9214 26.3817 11.7694 26.46 11.6104L26.1083 11.4391C26.0263 11.6052 25.9287 11.763 25.8166 11.9104L25.8273 11.9012ZM26.4085 10.3572C26.3947 10.5442 26.363 10.7294 26.3142 10.9105L26.6818 11.0405C26.6868 11.0218 26.6919 11.0031 26.6965 10.9845V10.9801L26.6978 10.9757V10.9728V10.9715C26.6978 10.9702 26.6978 10.9687 26.6978 10.9673V10.9645V10.9632V10.9605V10.9592V10.9568V10.9546V10.9524V10.9465V10.9447V10.9419V10.9401V10.9372V10.9355V10.9309V10.926V10.9214V10.9201V10.9184V10.9155V10.9137V10.9109V10.9091V10.9025V10.901V10.899V10.8975V10.8955V10.8938V10.8918V10.89V10.888V10.8806V10.8784V10.8764V10.8742V10.87V10.8659V10.8615V10.8571V10.8527V10.8481C26.7251 10.7147 26.7435 10.5797 26.7537 10.4439L26.4085 10.3572ZM26.285 9.19313C26.3391 9.38557 26.3771 9.58215 26.3986 9.78087L26.7723 9.81909C26.7603 9.70472 26.7427 9.59016 26.7196 9.47536C26.7196 9.46943 26.7174 9.4635 26.7161 9.45779C26.7161 9.45625 26.7161 9.45471 26.7161 9.45318C26.7161 9.45164 26.7161 9.4501 26.7161 9.44856C26.7161 9.44703 26.7161 9.44549 26.7161 9.44395V9.44088V9.43934V9.43648V9.43517V9.43231V9.42792V9.42353V9.42089V9.41847V9.41628V9.41496V9.4132V9.41101V9.40991V9.40618V9.40442V9.40134V9.39959V9.39629V9.39453V9.38707V9.38553V9.38311V9.3807V9.37894V9.37587V9.37389V9.37103V9.36906V9.3673V9.3651V9.36335V9.36137V9.35961V9.35764V9.35566V9.35368V9.35171V9.34995V9.34775V9.34599V9.34402V9.34226V9.34007V9.33567C26.7161 9.33488 26.7161 9.33407 26.7161 9.33326V9.33106V9.32886V9.32667V9.32447V9.32205V9.31964C26.7161 9.3181 26.7161 9.31656 26.7161 9.31503C26.7161 9.31349 26.7161 9.31195 26.7161 9.31041L26.7147 9.30558C26.7147 9.30383 26.7147 9.30229 26.7147 9.30053C26.706 9.26583 26.6967 9.23113 26.6871 9.19642L26.3217 9.20587L26.285 9.19313ZM25.761 8.03741C25.8775 8.2203 25.981 8.41112 26.0707 8.60846L26.4189 8.55224C26.3219 8.33967 26.21 8.13418 26.0843 7.93726L25.761 8.03917V8.03741ZM24.8848 6.99305C25.0545 7.15024 25.2143 7.31778 25.3633 7.4947L25.6546 7.34908C25.6308 7.32097 25.6069 7.29301 25.5827 7.26518L25.5805 7.26232V7.26101L25.5785 7.25881L25.5774 7.25771L25.5759 7.25617V7.25508L25.5746 7.25376L25.5732 7.25222V7.25112L25.5719 7.24958V7.24849L25.5704 7.24673L25.5691 7.24519L25.5677 7.24344L25.5662 7.24146L25.5647 7.23992L25.5629 7.23816L25.5614 7.23663L25.5596 7.23465L25.5581 7.23289L25.5563 7.23113L25.5548 7.22938L25.553 7.2274L25.5493 7.22323L25.5453 7.21906C25.482 7.14862 25.4165 7.07915 25.349 7.01062L25.3448 7.00667L25.3409 7.00272L25.3367 6.99876L25.3328 6.99481L25.331 6.99283L25.329 6.99086L25.327 6.98888L25.3253 6.98712L25.3233 6.98514L25.3215 6.98339L25.3198 6.98163L25.318 6.98009L25.3163 6.97834L25.3147 6.97658L25.3132 6.97482L25.3116 6.97306L25.3103 6.97175L25.3088 6.96999L25.3075 6.96867L25.3059 6.96691L25.3046 6.9656L25.3031 6.96406L25.3015 6.96274V6.96164L25.3002 6.96033L25.2987 6.95879L25.2971 6.95725V6.95615L25.2956 6.95462L25.2921 6.9511L25.2883 6.94759C25.2872 6.94623 25.2859 6.945 25.2846 6.94385C25.2488 6.909 25.2123 6.87452 25.1747 6.84041L24.8848 6.99305ZM23.7298 6.15515C23.9393 6.27289 24.1418 6.40254 24.3363 6.54346L24.544 6.32075C24.4777 6.27243 24.41 6.22521 24.3411 6.17909L24.3363 6.17579L24.3332 6.1736H24.3317L24.3286 6.17162H24.3273L24.3249 6.17008H24.3233L24.3207 6.16832H24.3194H24.3181L24.3163 6.16701H24.3152L24.3134 6.16569H24.3124L24.3106 6.16459H24.3091L24.3071 6.16327H24.3055L24.3036 6.16195H24.302L24.2998 6.16064L24.2983 6.15954L24.2961 6.158L24.2941 6.1569L24.2763 6.13648L24.2741 6.13494L24.2695 6.13186L24.2647 6.12879L24.2598 6.12572L24.255 6.12264L24.2499 6.11935C24.1402 6.04834 24.0275 5.9801 23.9118 5.91465L23.9092 5.91311L23.9066 5.91157L23.9041 5.91003L23.9017 5.9085L23.8995 5.90718L23.8971 5.90586L23.8951 5.90454L23.8929 5.90323L23.734 6.15712L23.7298 6.15515ZM22.4518 5.29528L22.3993 5.5942C22.6301 5.6618 22.8569 5.74247 23.0787 5.8358L23.186 5.55642C23.1363 5.53446 23.0869 5.51535 23.0372 5.49558L23.0315 5.49339L23.026 5.49119L23.0233 5.49009H23.0207H23.0183H23.0156H23.0134H23.011H23.0088H23.0064H23.0044L23.0018 5.48899H22.9996H22.9972H22.9952H22.9932H22.9915H22.9897H22.9884H22.9866H22.9851H22.9838H22.982H22.9809H22.9794H22.9781H22.9763H22.9752H22.9737H22.9723H22.9706H22.9693H22.9673H22.966H22.9646H22.9631H22.9613H22.9598H22.9578H22.9565H22.955H22.9534L22.951 5.4879H22.9495L22.9466 5.4868H22.9451L22.9418 5.48548H22.94L22.9367 5.48416H22.935L22.9312 5.48285H22.9295L22.926 5.48153H22.9242L22.9205 5.48021H22.9185L22.913 5.47801L22.9075 5.47604L22.9018 5.47406L22.8961 5.47186L22.8695 5.43365L22.8637 5.43167C22.7268 5.38159 22.5894 5.3365 22.4518 5.29638V5.29528ZM20.9535 5.04424L21.0135 5.36205C21.2456 5.37206 21.4769 5.39633 21.706 5.43475L21.702 5.12286L21.6332 5.11188H21.6297H21.6277H21.6244H21.6227H21.6196H21.6165H21.6139H21.5675H21.5648H21.5622H21.5593H21.5536H21.5479C21.3486 5.08377 21.1512 5.06561 20.9557 5.05741L20.9535 5.04424ZM19.5262 5.17009L19.6924 5.47757C19.9048 5.42873 20.1203 5.39468 20.3374 5.37566L20.2229 5.06027C20.1147 5.06971 20.0076 5.08223 19.9019 5.09848H19.8966H19.8914H19.8865H19.8841H19.836H19.8336H19.8289H19.8243H19.821H19.8193H19.816H19.8109H19.8059C19.7122 5.11445 19.62 5.13303 19.5293 5.15427L19.5262 5.17009ZM18.2953 5.66009L18.5531 5.932C18.7256 5.8284 18.9063 5.73907 19.0934 5.66492L18.8791 5.37149C18.7765 5.41234 18.6765 5.45686 18.579 5.50503L18.5747 5.50722L18.57 5.50942L18.554 5.51755L18.5496 5.51974L18.545 5.52194L18.5428 5.52304L18.5338 5.52765L18.5294 5.52985L18.525 5.53226L18.5094 5.54039L18.505 5.54259L18.5006 5.54478L18.496 5.5472L18.4894 5.55071L18.485 5.55313L18.4806 5.55532L18.4762 5.55752L18.4718 5.55994L18.4652 5.56345L18.4608 5.56587L18.4566 5.56828L18.4522 5.5707L18.4478 5.57311L18.4434 5.57553L18.4412 5.57685L18.437 5.57905L18.4329 5.58124L18.4287 5.58366L18.4243 5.58607L18.4199 5.58849H18.4177L18.4133 5.59091L18.4091 5.59332L18.405 5.59574L18.403 5.59706L18.4008 5.59815H18.3988L18.3968 5.59925L18.3946 5.60035L18.3926 5.60145H18.3904L18.3865 5.60364L18.3825 5.60606L18.3806 5.60716H18.3786H18.3768H18.3751L18.3733 5.60826H18.3718H18.37H18.3685H18.3667L18.3649 5.60935H18.3634H18.3614H18.3601H18.3584H18.357L18.3553 5.61045H18.3537H18.352H18.3504H18.3491H18.3476H18.3463H18.3447H18.3436H18.3421H18.341H18.3394H18.3381H18.337H18.3353H18.3342L18.3322 5.61155L18.3298 5.61287L18.3258 5.61528L18.3227 5.61704L18.2953 5.66009ZM17.3707 6.47274L17.698 6.68359C17.8136 6.53507 17.943 6.39778 18.0845 6.27353L17.7886 6.02952C17.7571 6.05719 17.7264 6.08508 17.6963 6.11385L17.693 6.11693L17.6899 6.11979L17.6883 6.1211V6.1222V6.1233L17.687 6.12462L17.6857 6.12594V6.12703L17.6844 6.12835L17.6831 6.12967L17.6815 6.13121L17.6802 6.13274L17.6787 6.13428L17.6771 6.13582L17.6754 6.13736L17.6721 6.14065L17.6688 6.14394L17.6655 6.14724C17.566 6.24544 17.473 6.35005 17.3872 6.46044L17.3707 6.47274Z" fill="#FF922E"/>
<path d="M16.4342 6.75672C16.698 6.20895 17.0937 5.74486 17.6109 5.37763C18.111 5.02271 18.7027 4.77276 19.3695 4.63417C20.0362 4.49558 20.7462 4.47582 21.4775 4.57509C23.0288 4.79598 24.4743 5.48927 25.6171 6.56059C26.1522 7.0686 26.5802 7.63416 26.8897 8.24101C27.1992 8.84786 27.3733 9.46591 27.4095 10.0776C27.4465 10.7108 27.3317 11.3097 27.0686 11.8566C26.8055 12.4035 26.4091 12.8685 25.8919 13.2357C25.3918 13.5906 24.7998 13.8406 24.1334 13.9792C23.4669 14.1178 22.7566 14.1375 22.0253 14.0383C20.474 13.8174 19.0285 13.1241 17.8857 12.0528C17.3517 11.5456 16.9224 10.9803 16.6132 10.3732C16.3039 9.76615 16.1296 9.14832 16.0933 8.53664C16.0564 7.90343 16.1711 7.30471 16.4342 6.7576M16.3463 6.71521C15.2514 8.99282 16.7842 12.0007 19.7697 13.4325C22.7553 14.8643 26.0631 14.1793 27.1576 11.8999C28.2521 9.62053 26.7193 6.61352 23.7337 5.18172C20.7482 3.74992 17.4397 4.43584 16.3459 6.71433L16.3463 6.71521Z" fill="#F7FAF6"/>
<path d="M16.7598 6.91267C17.0069 6.39829 17.3786 5.96275 17.8644 5.61683C18.334 5.28364 18.8897 5.04885 19.5162 4.91883C20.1426 4.78881 20.8087 4.77036 21.4945 4.86348C22.9515 5.07145 24.3089 5.72304 25.3818 6.7295C25.8841 7.20654 26.2861 7.73718 26.5765 8.30713C26.8669 8.87708 27.0311 9.45714 27.0645 10.0313C27.0992 10.6258 26.9915 11.1881 26.7444 11.7025C26.4974 12.2168 26.1257 12.6524 25.6396 12.9972C25.1703 13.3304 24.6146 13.5652 23.9879 13.6952C23.3612 13.8252 22.6954 13.8437 22.0096 13.7505C20.5524 13.5433 19.1946 12.8921 18.1214 11.8856C17.6191 11.4086 17.2173 10.878 16.9269 10.308C16.6365 9.73805 16.4721 9.15821 16.4387 8.58387C16.404 7.98932 16.5117 7.42705 16.759 6.91267M16.671 6.87028C15.6423 9.01172 17.083 11.8386 19.889 13.1843C22.6949 14.53 25.8036 13.8852 26.8324 11.744C27.8611 9.60275 26.4204 6.77562 23.6144 5.42992C20.8085 4.08422 17.7002 4.72907 16.6706 6.87028H16.671Z" fill="#F7FAF6"/>
<path d="M24.5754 8.33282C24.5433 8.36247 24.5342 8.41079 24.6006 8.48942L24.3239 9.07036L24.5822 9.29504C24.6395 9.3449 24.6604 9.41386 24.6347 9.46745L24.2812 9.15997L24.2408 9.24496L24.4984 9.46921C24.5558 9.51907 24.5769 9.58803 24.551 9.64162L24.1992 9.33414L24.1588 9.41935L24.4158 9.64294C24.4731 9.6928 24.4942 9.76176 24.4685 9.81536L24.1168 9.50787L23.8185 10.1345L23.6134 10.5617C23.5424 10.5083 23.5138 10.4279 23.5435 10.366L23.6992 10.0418L21.6406 8.44484L21.2207 9.32118C22.0639 10.0062 23.0298 10.7501 23.8981 11.447C24.0445 11.5645 24.2922 11.5685 24.3573 11.438C24.7571 10.6364 25.1212 9.81755 25.521 9.01589C25.543 8.9702 25.523 8.91024 25.4705 8.87027L24.7818 8.34468C24.7158 8.29461 24.6239 8.28758 24.5754 8.33282Z" fill="#FF922E"/>
<path d="M19.3825 6.69105L19.3803 6.68929L19.3722 6.70642L18.9818 7.51907L18.9495 7.58496C18.9093 7.66886 18.9658 7.77956 19.0757 7.83227L19.1583 7.66008L19.2902 7.38663C19.3537 7.44264 19.3781 7.51841 19.3518 7.58013C19.3254 7.64185 19.3014 7.69632 19.2764 7.75452L20.1497 8.45735L20.5614 7.60583L19.5599 6.82788L19.5711 6.80416C19.5898 6.76529 19.5692 6.71279 19.5204 6.68402C19.4716 6.65525 19.4109 6.65964 19.3825 6.69105Z" fill="#FF922E"/>
<path d="M21.4211 6.78791L21.3905 6.77561C20.6763 6.49119 19.9353 6.68776 19.6808 7.21774L19.5709 7.44506L18.9433 8.75144C18.8822 8.87883 18.9319 9.04268 19.0679 9.1615L19.3924 9.46547L19.3282 9.59923C19.2842 9.6917 19.2981 9.80569 19.3669 9.90804L19.7318 9.14876C19.7648 9.08274 19.7979 9.01735 19.8311 8.95263C19.881 8.85511 20.0318 8.84105 20.1466 8.91441L20.7045 9.40244L20.664 9.48678L20.1257 9.0183L20.1 9.07189L20.6388 9.54081L20.5871 9.64865L20.0488 9.18017C19.9061 9.45889 19.7892 9.68401 19.6465 9.96295C19.6122 10.0299 19.6307 10.1167 19.6944 10.1859C19.7224 10.2157 19.7536 10.2425 19.7874 10.2656C19.8408 10.3027 19.9129 10.292 19.9268 10.2436C19.9267 10.2431 19.9267 10.2426 19.9268 10.2421C19.9406 10.1887 19.8945 10.1406 19.8907 10.1371L19.9208 10.0745L19.9808 9.94955L20.1268 9.64579C20.1785 9.67061 20.2051 9.72267 20.1862 9.7622L20.0631 10.0183C21.2775 11.0387 22.1557 11.7664 22.4151 12.0181C22.6745 12.2698 22.8438 12.2423 22.9286 12.1903C22.9638 12.1687 22.9917 12.1374 23.0093 12.1002L23.3208 11.4516L21.8772 10.2296L21.8163 10.3565C21.7831 10.4255 21.6829 10.4464 21.5923 10.4029L21.7339 10.1081L21.9399 9.6794C22.653 9.64404 23.3718 9.61153 24.0849 9.57617C24.2266 9.28142 24.3623 8.98316 24.5038 8.68907L22.2098 8.84808L22.3843 8.51578C22.6277 8.00908 22.3562 7.34227 21.7365 6.95154C21.6362 6.88826 21.5306 6.83353 21.4211 6.78791ZM20.8313 9.70773L20.7843 9.80723L20.6319 9.67545L20.6794 9.57661L20.8313 9.70773ZM20.8973 9.5698L20.8617 9.6447L20.7104 9.51292L20.7465 9.43758L20.8973 9.5698ZM21.1105 9.12702C21.0634 9.223 21.0063 9.34072 20.9399 9.48019L20.7896 9.34841L20.9593 8.99524L21.1105 9.12702ZM20.7489 9.31305L20.2281 8.85753C20.2998 8.7152 20.3578 8.59682 20.4005 8.50919L20.9186 8.95988L20.7489 9.31305ZM21.1934 8.95856L21.1714 9.00249L21.154 9.03741L21.0021 8.90563L21.0406 8.82524L21.1934 8.95856ZM20.9615 8.87071L20.4427 8.42067L20.4814 8.34051L20.9993 8.79098L20.9615 8.87071ZM21.3019 8.46153C21.3239 8.62296 21.2894 8.74705 21.236 8.86851L21.0839 8.73673C21.1257 8.66328 21.1625 8.58705 21.1938 8.50853C21.2404 8.3919 21.2496 8.33282 21.2378 8.26693C21.2326 8.23675 21.2238 8.20726 21.2118 8.17908C21.257 8.26768 21.2871 8.36311 21.3011 8.46153H21.3019ZM21.0821 8.04861C21.1738 8.11758 21.1837 8.22059 21.189 8.27572C21.1962 8.34973 21.1767 8.40201 21.1371 8.5037C21.1107 8.57196 21.079 8.63805 21.0423 8.70137L20.5258 8.25199C20.5317 8.22762 20.5814 8.03412 20.7896 7.997C20.8181 7.99151 20.9702 7.96449 21.0819 8.04861H21.0821Z" fill="#FF922E"/>
<path d="M20.3999 8.50854C20.3572 8.59647 20.2992 8.71471 20.2275 8.85716L20.7483 9.31308L20.918 8.95959L20.3999 8.50854ZM20.723 9.22977L20.2946 8.85476C20.3385 8.76683 20.3825 8.6789 20.4249 8.59098L20.8514 8.96225L20.723 9.22977Z" fill="white"/>
<path d="M20.8607 9.64487L20.8963 9.5697L20.7455 9.43781L20.7095 9.5132L20.8607 9.64487Z" fill="white"/>
<path d="M20.7842 9.80743L20.8312 9.70785L20.6793 9.57596L20.6318 9.67488L20.7842 9.80743ZM20.6984 9.6718L20.7046 9.65883L20.7648 9.71093L20.7585 9.72412L20.6984 9.6718Z" fill="white"/>
<path d="M21.4366 6.74596L21.4052 6.733C21.0466 6.59046 20.6674 6.55927 20.3368 6.64514C20.0062 6.73102 19.7559 6.92518 19.6277 7.19203L19.5178 7.41936L18.8904 8.72596C18.8214 8.8696 18.8779 9.05541 19.0307 9.19005L19.192 9.34116L19.3266 9.46723L19.2751 9.57397C19.2252 9.67808 19.2417 9.8092 19.3191 9.92538L19.3804 10.0163L19.4198 9.93417L19.7847 9.17489C19.8167 9.11032 19.8506 9.04443 19.8836 8.97942C19.8935 8.96174 19.9076 8.94683 19.9248 8.93604C19.942 8.92526 19.9616 8.91895 19.9818 8.9177C20.0221 8.91349 20.0626 8.92113 20.0986 8.93967L20.0726 8.99392L20.0469 9.04751L20.0331 9.07584L20.0636 9.10219L20.5714 9.5441L20.5608 9.56606L20.3641 9.39475L20.0843 9.15117L20.024 9.09868L19.9955 9.15447C19.9238 9.29437 19.8587 9.42088 19.7934 9.54739C19.7282 9.6739 19.6649 9.79734 19.5939 9.93615C19.5939 9.93768 19.5923 9.939 19.5917 9.94032C19.5523 10.0225 19.5756 10.1255 19.6525 10.2094C19.684 10.2436 19.7191 10.2741 19.7574 10.3005C19.7946 10.3269 19.8401 10.3392 19.8856 10.3352C19.9043 10.3344 19.9225 10.3287 19.9383 10.3187C19.9542 10.3087 19.9672 10.2948 19.9761 10.2783C19.9784 10.2737 19.9802 10.2688 19.9816 10.2638V10.2612C19.9859 10.2403 19.9856 10.2188 19.9809 10.198C19.9761 10.1772 19.967 10.1576 19.9541 10.1406L19.9735 10.1002L20.0065 10.0312L20.0284 10.0488C20.2641 10.2466 20.4863 10.433 20.6949 10.608C21.5509 11.3256 22.1695 11.8441 22.3765 12.0451C22.6779 12.3376 22.8764 12.2867 22.9678 12.2311C23.009 12.206 23.0419 12.1694 23.0626 12.1259L23.3747 11.4778L23.3886 11.4488L23.3571 11.4224L21.9127 10.1997L21.8514 10.1477L21.8241 10.2043L21.7632 10.3315C21.754 10.3476 21.7402 10.3607 21.7235 10.369C21.7068 10.3773 21.6881 10.3804 21.6696 10.3781L21.7868 10.1338L21.9826 9.72596C22.3302 9.70861 22.6841 9.69191 23.0268 9.67566C23.3637 9.65963 23.7115 9.64315 24.0535 9.62624L24.0773 9.57683C23.3666 9.61197 22.6504 9.64447 21.9398 9.67961L21.7338 10.1083L21.5922 10.4031C21.6828 10.447 21.783 10.4251 21.8162 10.3567L21.8771 10.2298L23.3207 11.4516L23.0092 12.0998C22.9916 12.137 22.9637 12.1683 22.9285 12.1898C22.8436 12.2419 22.6768 12.2717 22.415 12.0176C22.1532 11.7635 21.2779 11.0383 20.0629 10.0189L20.186 9.76264C20.2049 9.7231 20.1784 9.67105 20.1267 9.64623L19.9807 9.94998L19.9207 10.075L19.8906 10.1376C19.8943 10.1411 19.9405 10.1892 19.9267 10.2425C19.9266 10.243 19.9266 10.2436 19.9267 10.2441C19.9258 10.2472 19.9246 10.2502 19.9231 10.2531C19.9036 10.2939 19.8374 10.3012 19.7873 10.2665C19.7536 10.2432 19.7226 10.2163 19.6948 10.1863C19.6321 10.118 19.6132 10.0326 19.6451 9.96668C19.6451 9.96558 19.6462 9.96448 19.6468 9.96316C19.7895 9.68445 19.9064 9.45932 20.0491 9.1806L20.5874 9.64909L20.6391 9.54124L20.101 9.07276L20.1267 9.01917L20.665 9.48765L20.7055 9.40331L20.1476 8.91529C20.0328 8.84171 19.882 8.85598 19.8321 8.9535C19.7987 9.01807 19.7656 9.08346 19.7328 9.14964L19.3679 9.90891C19.2991 9.80656 19.2848 9.69257 19.3292 9.60011L19.3934 9.46635L19.0685 9.1615C18.9324 9.04267 18.8827 8.87883 18.9439 8.75144L19.5719 7.44505L19.6818 7.21773C19.9363 6.68797 20.6773 6.49118 21.3915 6.77561L21.4221 6.78791C21.5316 6.83353 21.637 6.88826 21.7373 6.95153C22.357 7.34226 22.6284 8.00907 22.3851 8.51577L22.2097 8.84808L24.5039 8.68972L24.5281 8.63921L24.4879 8.64206L23.1536 8.73431L22.3051 8.79273L22.437 8.54213C22.5594 8.28713 22.5594 7.9825 22.437 7.68445C22.3145 7.38641 22.0745 7.11341 21.7637 6.91573C21.6596 6.85011 21.5502 6.79331 21.4366 6.74596ZM20.115 8.94779L20.1715 8.99699L20.1625 8.98908L20.1142 8.94713L20.115 8.94779Z" fill="white"/>
<path d="M20.9389 9.48059C20.9574 9.44177 20.9751 9.40462 20.9921 9.36914C21.0361 9.27726 21.0752 9.19667 21.1095 9.12734L20.9583 8.99545L20.7886 9.34892L20.9389 9.48059ZM20.8552 9.34584L20.9836 9.07832L21.0427 9.12998C21.0088 9.199 20.9741 9.27089 20.9392 9.34387L20.9128 9.39706L20.8552 9.34584Z" fill="white"/>
<path d="M21.2119 8.17909C21.2233 8.20672 21.2317 8.23554 21.2369 8.26504C21.2481 8.33209 21.2389 8.39078 21.193 8.50684C21.1793 8.54113 21.1626 8.58004 21.1424 8.62269C21.1253 8.65786 21.1059 8.69564 21.0835 8.73521L21.2356 8.8671C21.2892 8.74488 21.3235 8.62135 21.3016 8.45978C21.2873 8.36194 21.257 8.26709 21.2119 8.17909ZM21.2066 8.78269L21.151 8.73413C21.1661 8.706 21.1809 8.6774 21.1949 8.6486C21.2134 8.61013 21.2308 8.57037 21.2466 8.5308L21.2512 8.51915C21.2549 8.60943 21.2397 8.69951 21.2066 8.78359V8.78269Z" fill="white"/>
<path d="M21.1367 8.50413C21.1763 8.40235 21.1958 8.35026 21.1886 8.27596C21.1833 8.22078 21.1734 8.11769 21.0818 8.04866C20.9701 7.96447 20.818 7.99151 20.7898 7.99657C20.7379 8.00545 20.689 8.02692 20.6473 8.05913C20.6057 8.09131 20.5726 8.13323 20.5509 8.18122C20.54 8.20379 20.5314 8.22744 20.5254 8.25178L21.042 8.70153C21.058 8.67361 21.0756 8.6413 21.0932 8.60459C21.1079 8.57491 21.1226 8.54062 21.1367 8.50413ZM20.5872 8.2454C20.5916 8.23221 20.5968 8.21929 20.6028 8.20671C20.6215 8.16455 20.6502 8.12762 20.6865 8.09914C20.7228 8.07067 20.7655 8.05152 20.8109 8.04339C20.8564 8.03526 20.9707 8.02273 21.0483 8.0812C21.1182 8.13395 21.1264 8.21902 21.1312 8.2698C21.1374 8.33377 21.1215 8.37817 21.0815 8.48105C21.0688 8.51424 21.0545 8.54699 21.0391 8.57931C21.0323 8.59316 21.0255 8.607 21.0182 8.62085L20.5872 8.2454Z" fill="white"/>
<path d="M20.4816 8.33984L20.4429 8.42074L20.9608 8.8718L20.9995 8.79135L20.4816 8.33984Z" fill="white"/>
<path d="M21.1927 8.95867L21.0388 8.82568L21.001 8.90614L21.1529 9.03803L21.1702 9.00308L21.1927 8.95867Z" fill="white"/>
<path d="M15.5821 8.49294C15.5403 7.79143 15.6672 7.12725 15.9593 6.51886L14.2667 5.70753L14.2627 5.71544C13.8794 6.51315 13.729 7.37544 13.7846 8.25068L15.5821 8.49294Z" fill="#F7FAF6"/>
<path d="M16.5386 3.39105L17.6572 4.659C18.2947 4.31439 19.028 4.10201 19.8334 4.02777L19.3067 2.59224C18.2932 2.68449 17.3497 2.95551 16.5386 3.39105Z" fill="white"/>
<path d="M23.9157 4.81318C24.3694 5.03073 24.8029 5.28797 25.2113 5.5819L26.1466 4.57158C25.2475 3.92507 24.2551 3.41929 23.2034 3.0717L22.8931 4.40137C23.2424 4.51679 23.584 4.65432 23.9157 4.81318Z" fill="white"/>
<path d="M28.778 7.4209L27.2788 7.82173C27.6791 8.5105 27.9213 9.21883 27.9989 9.92737L29.6953 10.0965C29.5957 9.19401 29.28 8.2834 28.778 7.4209Z" fill="white"/>
<path d="M27.9769 14.6427L28.0042 14.6069C28.0227 14.5832 28.0411 14.5593 28.0592 14.5351L29.091 13.1848L27.292 15.0339L27.336 15.3157C27.5696 15.1112 27.7842 14.886 27.9769 14.6427Z" fill="#EDE8E8"/>
<path d="M20.5366 16.6327C21.7056 16.9029 22.8608 16.9539 23.9258 16.8015L23.9629 16.0401L20.8079 15.6976L20.5366 16.6327Z" fill="#EDE8E8"/>
<path d="M14.2832 12.4233C14.8783 13.3238 15.6795 14.1584 16.6522 14.8626L17.1505 13.8907L14.9627 11.5768L14.2832 12.4233Z" fill="#EDE8E8"/>
<path d="M14.2633 5.71545L13.8608 6.02514C13.7538 6.19191 13.657 6.365 13.5709 6.54348C13.2091 7.29682 13.0548 8.10771 13.0853 8.93266L13.7846 8.25069L14.2633 5.71545Z" fill="#EDE8E8"/>
<path d="M27.2922 15.0341C28.0427 14.5676 28.6613 13.9473 29.0912 13.185L27.5191 12.3535C27.1874 12.9392 26.7117 13.4268 26.105 13.803L27.2922 15.0341Z" fill="white"/>
<path d="M20.8076 15.6974C21.883 15.9939 22.9541 16.1037 23.9627 16.0398L23.5147 14.6304C22.7 14.6743 21.8641 14.5768 21.0307 14.3389L20.8076 15.6974Z" fill="white"/>
<path d="M17.1507 13.8907L18.1722 12.8979C17.4908 12.3708 16.9217 11.76 16.4836 11.0833L14.9629 11.5768C15.5195 12.4231 16.2585 13.2129 17.1507 13.8907Z" fill="white"/>
<path d="M15.5821 8.49294C15.5403 7.79143 15.6672 7.12725 15.9593 6.51886L14.2667 5.70753L14.2627 5.71544C13.8794 6.51315 13.729 7.37544 13.7846 8.25068L15.5821 8.49294Z" fill="white"/>
<path d="M7.06454 9.3212H6.8667V9.38714H7.06454V9.3212Z" fill="#FF922E"/>
</g>
<defs>
<linearGradient id="paint0_linear_0_6848" x1="4.03318" y1="9.8147" x2="12.3842" y2="12.5704" gradientUnits="userSpaceOnUse">
<stop stop-color="#D86C1A"/>
<stop offset="1" stop-color="#E87E25"/>
</linearGradient>
<linearGradient id="paint1_linear_0_6848" x1="11.1373" y1="9.10799" x2="9.83659" y2="14.2381" gradientUnits="userSpaceOnUse">
<stop stop-color="#FF922E"/>
<stop offset="1" stop-color="#FFC239"/>
</linearGradient>
<linearGradient id="paint2_linear_0_6848" x1="4.80244" y1="7.25135" x2="13.1537" y2="10.0071" gradientUnits="userSpaceOnUse">
<stop stop-color="#D86C1A"/>
<stop offset="1" stop-color="#E87E25"/>
</linearGradient>
<linearGradient id="paint3_linear_0_6848" x1="11.9065" y1="6.5446" x2="10.6061" y2="11.6747" gradientUnits="userSpaceOnUse">
<stop stop-color="#FF922E"/>
<stop offset="1" stop-color="#FFC239"/>
</linearGradient>
<linearGradient id="paint4_linear_0_6848" x1="13.0819" y1="10.1351" x2="29.0911" y2="10.1351" gradientUnits="userSpaceOnUse">
<stop stop-color="#D86C1A"/>
<stop offset="1" stop-color="#E87E25"/>
</linearGradient>
<clipPath id="clip0_0_6848">
<rect width="32" height="18.625" fill="white"/>
</clipPath>
</defs>
</svg>
